<svg xmlns="http://www.w3.org/2000/svg" width="100%" height="100%" preserveAspectRatio="none" viewBox="0 0 977.35 3389.33"><defs><style>.cls-1{fill:#052e35;}</style></defs><title>Asset 62</title><g id="Layer_2" data-name="Layer 2"><g id="Layer_4" data-name="Layer 4"><path class="cls-1" d="M0,3389.33m0-533.47H881.62l95.73-698.73c-9.82-1.17-20.65-2-32.56-2.48,0,0-46.09-16.54-41.85-25.71s-42.66-18.41-42.66-18.41c-4.41-5,5.45-14.87,2.74-30.25-.58-3.3-18.55-38.59-42.44-84.22a160.63,160.63,0,0,0,4.37-16.26c3.07-15.47,5.24-31.11,7.63-45.75h28l-12.33-15.46c31.44,6.05,23-21.25,32.77-33.52-12.36.24-24.31.4-34.51,4.72-8,3.4-13.89,11.91-20.72,18.16l-5.16-5.61,22.69-22.24-12.61-7.77,19.66-1.51c-1.42-3.81-2.59-7-3.77-10.12l4.87,2.31,16.43-37.35-27,12.46-2.46-3.83c-1.67,6.69-3.33,13.39-4.86,19.53l-15.32-11c2.76-3.25,5.51-6.49,9.87-11.6l-9.09,1.22-17.52-32-10.39,12.68c-2.45-7.42-4-12-5.48-16.57l-5.26,1.72c3-20.44-17.06-18.87-26-28.32,1.69,13.15-10.83,25.58,2,38.64,7.18,7.33,9.71,19.22,14.62,29.66a33.15,33.15,0,0,0-2.84,7.24c-.89,3.76-.77,7.76-1.09,11.66l-3.68-.2c-1.75-6.59-3.5-13.17-5.79-21.77-3.8,7.14-6.32,11.87-9.76,18.31-3.17-8.75-5.36-14.77-8.85-24.41l-2.62,9.37c-5.7-10.43-11-20-15.73-28.56-49.83-21-39-60.65-36.58-65.6,4.78-9.88,7.58-13,4.31-25.26-11.95-4,1-11,0-15.73s-2.87,2.92,9.07-19.41c6-11.29-40.88-92.63-90.86-139.14-55.37-3.81-100.71-56.13-105.92-69.43,0,0,11.64-15.59,6.71-15.59A33.76,33.76,0,0,1,506,1453l2.55-.56c-1.22-6.62-2.74-13.22-4.23-19.83-.49-12.52,0-25.28,2.73-28.68,1.69-2.1,1.54-12.21-7.24-35.28,1.91-12.42,4.91-24.87,6.85-37.3l-3.32-.81-8.1,26.82q-2.83-6.66-6.48-14.45c5.28-33.72,32.36-57.24,46.24-86.55l-29.79,37.74c8.14-46,52.36-59.45,69.4-93l-3.62-3.13-41.61,44.54-2.85-2.3,19.55-43.59-6.65-2.88-31.23,69-4-1.28q2.28-20.52,4.54-41l-4.68-.48q-2.61,20.67-5.23,41.35-4.05,31.66-8.11,63.35l-5.26-.78c-5.8-42,3.42-81.7,22.5-119.85l-6.13-2.17c-6.06,13.83-12.13,27.65-20.52,46.78-.36-16.93-.6-28.29-.84-39.66l-5,.14q2.13,51.24,4.27,102.46l-4.82.52-5.82-27.51-4.24,1.08q2.37,10.31,4.73,20.6c-32.58-55.52-77.68-104.53-86.23-117,0,0-6.25-9-1.47-14.38s4.4-13.25,4.4-14.39-42.76-31.18-23.26-82c0,0,11.41-32.72,6.25-43.43s1.11-40,1.11-40l-42.6-141,1.55.11c3.65-2.24,5.84-4.24,8.41-5,7.38-2.32,14.89-4.29,22.42-6.17,4.93-1.23,10-2.06,14.88-3.05-.45-1.21-.9-2.43-1.51-4.11,10.34,3.2,16.9-3.7,24.94-5.57-.19-.69-.39-1.38-.58-2.07l-15.83,5c-.1-.33-.19-.66-.29-1l5.62-3.09c-.17-.4-.34-.79-.52-1.19l-5.62,1.46c-.09-.82-.16-1.49-.19-1.8l-20.76,1.31,6.71-3.74c-5.38,1.8-11.2-3.61-16.13,1.1-.92.88-4.25,0-6-.91-5.56-2.89-5.49-3.06-9.87.33l-11.28,8.8,2.33-10.48c-2.1,3.47-3.75,6.1-5.11,8a16,16,0,0,1-1.23-1.38l.72-.26c-.2-.55-.39-1.1-.59-1.64l-1.3.26a18.84,18.84,0,0,1-1.39-2.53c4.34-4.12,8-8,12.34-9.32,7.27-2.15,15.59-1.17,23.43-.85,7.1.29,14.1,1,20.47-3.3l-16,.89c-.06-.53-.12-1.06-.17-1.59l19.95-3.31-.39-2.13-34.88,5.35c-.05-.35-.1-.7-.16-1.05l49.47-12.84-.27-1.58-14.6,2,0-2.39h25.2c0-.36-.06-.72-.08-1.08L393.63,794l19.6-4.4c-.21-1-.42-1.89-.64-2.84l-42.47,8.53-.5-1.46,27-9.53c-.27-.69-.55-1.37-.82-2.06l-34,12.06c-.13-.39-.25-.79-.37-1.18l35-16.11-.76-1.84c-20.78,7.09-40.32,17.27-62.18,27.56,2.29-3.41,3.31-4.94,4.64-6.93L325,803.41c-.3-.52-.61-1-.92-1.55l16.62-11.57-2.29-.75c1-5.14,9.91-2.12,10.2-10.09l5-2.33c-.17-.41-.34-.83-.5-1.25l-6.93,1.74-7.95,4.81c2-7,3.27-11.88,8.59-14.67-1.25-10.07,9.91-5.87,12.68-11.41l-5.79-1.61,35.64-13.15-.78-2.18L369,745.26l-.51-1.54,16.72-7.47-1.11-2.38-22.86,10.37a33.7,33.7,0,0,1,10-8.43c3.92-2,8.32-3.17,12.52-4.69l-1.14-3c-5.88,2.48-12.49,4-17.45,7.7s-8.39,9.86-12.68,14.77c-3.52,4-7.32,7.84-11,11.71a24.81,24.81,0,0,1-2.37,1.92L337.78,763l15.78-19.7-.6-1.12-9,4.44-.9-1.51,17.39-11.65-1-1.93L342.82,739c6.44-6.4,14.88-8,16.36-18-4.68,3.66-8,6.49-11.59,9-2.36,1.67-4.82,3.2-7.28,4.73,3-4,6.19-8.08,9.77-12.75-11.19,3.72-16.15,14.23-15.4,29-4.89.7-5.33,4-5.87,7.83-1.05,7.42-4.9,13.18-10.86,18.3l6.27-17.66-2.24-.76q-3.25,6.63-6.49,13.25l-1.3-.59,3.06-9-1-.42-13.3,24.75-2.24-1.17c2.07-4,3.28-8.82,6.37-11.65,6.22-5.72,5-11.73,2.94-19.46-5.57,7.38-10.55,14-15.52,20.53l-1-.59c2.74-5.53,5.49-11.06,8.34-16.79l-13,5.89-1.54-2.19c12-4.22,22.56-9.93,26.87-23.6l-5.12,2.71c-.16-.22-.31-.44-.46-.67l11-8.71-1.37-1.56a22.51,22.51,0,0,1-2.41,2.56,17.5,17.5,0,0,1-3.17,1.49l9.81-16-2.42-1.5-25.62,39.83,6.59-19.76-1.38-.52-8,18.32-1.51-.66q6-16.41,11.92-32.83l-2.12-.94c-4.21,10.38-8.43,20.76-13.41,33,.27-4.87.43-7.7.59-10.54l-1.71-.09q-.54,12-1.1,23.9l-2.18-.25c.46-2.41.91-4.83,1.7-9-7.85,9.09-6.69,17.65-2.87,26.57l-3.05.63-.29.06-.21-.5-4-9.51c-.12,2-.24,3.84-.37,5.68q-1.74-1.5-3.36-2.86c-1.13-6.47.29-12.9,2.86-19.34l-3.11,3.25c1.47-12.23,4.59-23.63,13.77-32.59l-2.1-1.25q-3.83,5.13-7.67,10.25l-.79-.5,15.63-26.83-1.52-.89-5.44,6.69-1.26-.92,14.19-19.69-1.63-1.19c-4.49,5.62-8,12.79-13.73,16.48-.84.54-1.63,1.11-2.38,1.7,6.91-12.83,18.26-21.15,30.14-27.42,9.69-5.12,15.15-12.74,21.44-20.37,2.86-3.47,3.2-5.75,2.39-9.08a57.46,57.46,0,0,1-20.53,24c2.77-8,10.62-13.28,12-23.59-4.86,6.94-8.87,12.65-12.82,18.28-2.94-1.78-.35-4.53-2.63-5.9-1.55.74-1.43,2.16-1.26,3.56.46,3.78-.86,7.28-2.28,10.55s-4.66,8-7.56,6.53c-4.43-2.29-4.32.49-5.76,2.53a36.5,36.5,0,0,1-4.36,5c-2.4,2.32-3.91,2-3.83-1.65,0-1,.11-2-1.05-2.59a2,2,0,0,0-1.74,2.64c2.68,7.95-3.22,12.77-6.6,18.5-.81,1.38-2,3-3.8,1.87-1.62-1.06-.1-2.54.32-3.78a84.7,84.7,0,0,0,2.33-8.15c.18-.76.35-1.51.51-2.27,1.88-8.63,2.89-17.46,5-26,1.36-5.42,2.54-10.56,6.23-14.74A151.88,151.88,0,0,0,295,643.15c3.71-5.56,9-10.53,10.36-17.6-4.25,1.57-5.51-.38-5.27-4.48.27-4.84.36-9.68.42-14.53,0-1.23-.43-2.49-2-2.44-1.36,0-1.4,1-1.35,2.15.31,7.24.37,14.5.94,21.71a16,16,0,0,1-3.38,11.26c-.9,1.21-1.76,3.26-3.65,2.53-2.33-.88-1.25-3-1-4.72,1.58-9.63,2.34-19.32,0-28.87A50.92,50.92,0,0,1,288.65,595c.09-8.3,0-16.6,0-26.22-3.23,3-2.73,5.38-2.77,7.48-.21,12.12-.58,24.24,1.77,36.24.28,1.41,1.12,3.62-1.05,4.13-2,.46-2.34-1.56-3-3.08a33,33,0,0,1-2.59-14.79l4-6.18L281,594c-.13-1.88-.37-3.77-.49-5.64l-1.55.19c0,2.06,0,4.12,0,6.18l-11.61,4.16q-5-14.1-8.9-25.24l-13,34.67L239,605.67c2.87-7.07,5.73-14.15,9.36-23.13l-10.23,6.33c-1.22-3.86-2.26-7.18-3.28-10.45-6.35,13.9,5.77,30.36-6,42.46l-.4,0a1.36,1.36,0,0,1,0-.2c-.06-.8.1-1.62.06-2.42-.43-8.18-.88-16.35-1.36-25.21-2.15,3.66.14,8.45-4.28,10.39l1.35-26.24-2.37-.07-3.91,19.59-9.23-2.11c13.76,37.91,13.52,39.18-9.21,52.63-2.11-25.43-11.61-51.21,9.9-74.37L202,570l-10.87,17.76c-1.59-3.35-3.92-8.25-6.24-13.15-.54,14.79,1.69,28.1,3.92,41.41q3.47,20.63,6.9,41.27l-4.38,1.1q-3.75-14.32-7.49-28.66l-3.46,1q1.68,9.24,3.34,18.47l-4.93,2.46c-4.71-7.87-11.33-15.23-13.65-23.75-.88-3.21-1.56-6.37-2.52-9.08,4.52-11.58,8.6-27.9-6.63-49.25-9.68-13.55-62.19-2-56.7-16.84,2.71-7.29,6.7-14.25,10.64-21.19,2-3.57,4.43-7.13,6.12-10.8s9.25-3.51,9.31-7.61c0-4.71,3.46-3.41,7.49-7,5.92-5.23,12.1-7.49,17.25-13.18,3.05-3.37,15.76-5.94,14.79-10-.11-.44-7.56-4.38-7.92-4.73-.53-.51-.81-20.79-1.63-20.95-25.76-4.92-31.13,3.92-9.13-13,23.3-17.87,3.62-19.48,3.25-41.17-8.11-8.32-8.68-3.37-13.44-4.42a20.44,20.44,0,0,0,3.51-2.93A286.18,286.18,0,0,0,165,364.5c9.35-13.12,12.47-30.21,25.71-41,.52-.42,1.16-1.26,1.06-1.77-1.58-8,4.31-12.37,8.39-17.65,2.24-2.9,4.3-5.93,6.44-8.9-.5-.43-1-.85-1.52-1.27L197.12,301l1.12-6.88-1.65-.65-11.66,28.91-1.44-.61c-.18-1.53-.35-3.06-.53-4.59l-2.56-.79-6.91,18.91c-.24-2.46-.41-4.23-.58-6l-1.62-.07-2.83,6.51c1.4-5.55,4.57-11.29,3.67-16.29-1.2-6.67,2.81-10.5,4.55-15.59,2.54-7.4,4.64-14.94,6.93-22.42l-2.8-1.25L164.49,316l-.77-.39,6.43-21.07a29.38,29.38,0,0,0-9.77,11.32q2.46-8.07,4.9-16l-3.59.6c.36-2.53.64-4.47.92-6.4l-2.94-.65L155,308.13c-1.76-2.9-3.13-5.16-4.51-7.42l-2,.74c1.56,12.65,2.11,25.16-4,38.36-4.48-13.53-3-25.18,3.22-36.62l-2.59-.7-6.13,10.16-1.29-.62q1.81-5.92,3.62-11.85l-2.76-.57q-1.69,9.18-3.38,18.35l-1-.09,2-18.33-2.09-.39c-1,5.07-2.11,10.14-3.29,15.82l-4-5.55c.19,8.68,2.47,16.71,3.81,24.89,1.38,8.45,1.4,17.12,2.85,25.56,1.4,8.14,6.77,15.85,1.61,26.42-4.19-21.72-8-41.65-11.88-61.58a14,14,0,0,0-1.65,8.9c1,6.67,2.14,13.3,3.26,19.94a17.44,17.44,0,0,0-3.36-2.18c-2-11.43-6.22-23,4.24-35.25-9,4.9-10,7.73-10.18,23.68l-4.54-1.87-.65.29a52,52,0,0,1-1.72-7.87c4.36-11.05,11.78-20.54,23.11-28.34l-2.49-1.55-10.66,7.83L117,307.23q5.88-13,11.77-26l-3.16-1.37c-7.22,10.77-10.48,23.5-14.69,37.18-7.18-13.62,3.76-20.87,6.92-30.12-8.23,4.22-11,10.12-11.89,16.82a4.15,4.15,0,0,0-2.72-.07,70.8,70.8,0,0,1,6.83-18.3c.76-.44,1.47-.87,2.11-1.31,1.15-1.32,9.2-7,9.69-12.23.68-7.28-6.71-14.64-9.52-16.2-1.24-.69-11.14-23-12.67-23.09-17.11-7,12.48-14,7-25.37.26-4.42-7.28-35.89-5.23-40,2.62-5.26-19.64,8.56-16.6-21.14,1.9-18.58,9.1-30,6.57-30.73-6.53-1.75.2-10.19-2-17.33S76,84.92,79.08,79.32c6.14-11.17-39.85-64.67-40-76v0L.58,0,.34,0ZM156.23,369.27,154,368l10.14-18.25,2.51,1.72Zm10.93-48.74.89.17-8.7,28.47-2.52-.92Q162,334.39,167.16,320.53Zm-11.35.27c-1.08,5-2.15,9.95-4.39,14.38Q153.63,328,155.81,320.8ZM148.21,348l2.5.47q-2.4,12.6-4.79,25.2l-2.34-.43C140.31,364,145.5,356.22,148.21,348ZM136.65,337.3c7.68,4.72,3,11.06,1.43,16.95C137.61,348.7,137.15,343.15,136.65,337.3Zm-9.18,43.59c-.39,2.71-1,5.44-1.28,8.14l-.65-.39c-.13-1.21-.26-2.42-.38-3.63A21.66,21.66,0,0,1,127.47,380.89Zm-26.53-91,1.92-.9a22,22,0,0,1-2.2,3.64C100.75,291.7,100.85,290.78,100.94,289.87Zm-8,19.37-7.58-6.75-1.48,1.31c.14-4.25,4.9-7.7,10.71-10.78.14,4.64.88,9.41,1.52,14.24C95,307.94,93.89,308.63,92.89,309.24Zm66,491.13,0,0,.2-.13.11.19ZM178,659.16l-17.11-1.07a20.62,20.62,0,0,0,3.17,3.22c-3.45-.33-5.36-1.35-4.73-3.44a20.09,20.09,0,0,0,.89-6.8l18.57,2C178.49,655.13,178.23,657.14,178,659.16ZM245.14,612c-.06.69.05,1.32,0,1.93-.28,9.49-.51,19-.83,28.45-.07,2.07-.59,4.62-2.86,4.76-2.62.17-2.72-2.7-2.87-4.55-.37-4.88-.39-9.79-.7-14.67.63-.14,1.27-.27,1.91-.39C235.4,618.78,239.91,614.89,245.14,612Zm-11,7.95v0h0Zm-11.42-14.43,0,0c3.21,2.6,2.21,6.24,2.48,9.58.15,1.84.27,3.68.5,5.48l-3.77-.38Q222.31,612.83,222.69,605.47ZM209.23,798.68l0-.07.24.25Zm5.14-142.09c2.54-1.78-1.2-1.53-7.75-.51l.46-.36c2.28-1.67,2-3.77,1.19-6.59A40.33,40.33,0,0,1,218,637.44a57.57,57.57,0,0,0,4.88,20.06c2.87,6.61,4.57,13.63,6.3,20.66C218.6,669.76,209.51,660,214.37,656.59Zm19,24.76c-1.8-5.4-3.43-10.83-.76-16.78.5-1.13.84-2.81-.93-3.42-2,.25-.49,5.23-3.88,2.85-2-1.43-2.05-3.83-.21-5.86.27-.3.48-.66.77-.93,3.76-3.56,2.57-7.5,1.34-11.86-2.12,1.5-1.21,3.27-1.57,4.72s0,3.51-2.13,3.86-2.31-1.73-3-3.1c-2.5-5-2.22-10.26-2.14-15.57a45.93,45.93,0,0,1,8.31-4.6,15.25,15.25,0,0,0,3.5,3.37,5,5,0,0,1,2,3.56c-.17,7.27,4.22,13.85,2.84,21.37-.68,3.71.54,7.59,1,11.4.69,5.4,2.44,10.74,2.49,16.21C238.64,685,236,683.26,233.41,681.35Zm13,39.11a31.28,31.28,0,0,1,3.63,2.82c.06.69.14,1.39.25,2.09A15.38,15.38,0,0,1,246.44,720.46Zm3.69-3.85a.13.13,0,0,1,0-.06l0,.06Zm-5.94-28.14c0-6.91-1.92-13.77-3-20.65-1.11-7.08-2.1-14.06,4.19-19.66,2.24-2,2.51-5.12,2.21-7.94-.71-6.46.12-12.9-.06-19.34-.09-3.16-.41-6.31-.69-9.84a38.88,38.88,0,0,0,6-3.52c3.82-3.12,13.07.43,21.78,1.16.69-1.06,2.13-3.29,4.43-6.82.16,7.57,1.11,14.91,7.9,20.47A3.64,3.64,0,0,1,288,625c-.88,12.79-.4,26-9.71,36.5-1,1.13-1.82,3.07-3.8,2.14-1.46-.68-1.45-2.43-1.29-3.78.79-6.39-.19-13.23,5.41-19.11-5.59,4-4.45-2.13-7.32-3.8,0,4.74-.22,8.7.06,12.62.31,4.25-1.31,5.89-5.37,5.1.54,1.4.48,3,1.85,4.17,7.47,6.43,6.22,14.7,4.48,23-.27,1.29-.35,3.6-2.89,2.92-4.86-1.3-2.82,1.15-2,3.33a22.9,22.9,0,0,1,.94,14q-1.78,3.54-3.55,7.09a1.51,1.51,0,0,1-.3,0,2.31,2.31,0,0,1-2.12-1.67l2.87-8.1-2.47-.85c-.46,1.26-.91,2.53-1.37,3.79-.6-3.28-1.17-6.57-1.44-9.88-.67-8.22-.93-16.48-1.36-24.72-1.08,3.31-1.14,6.68-1.47,10-.2,2,1.57,5.17-1.5,5.58-2.21.3-3.37-2.43-3.78-4.78-.12-.63-.09-1.68-1.5-1.27-.72,2.43-.71,5.14,1.37,6.62,5.09,3.62,5.65,9.1,6.21,14.36,0,.2,0,.41.07.61-.19.21-.36.42-.54.64-.84-3.83-2.86-7-6-7.66A31.53,31.53,0,0,1,244.19,688.47ZM258.89,721l-1.11-.44q1.59-4.49,3.17-8.95c.31,1.18.61,2.37.86,3.56Zm1.79,11.39L259,733.5a11.67,11.67,0,0,0,.84-1.63C260.07,732.05,260.37,732.22,260.68,732.38Zm-2.44-1.73-.07.15-.49-.34A4.12,4.12,0,0,0,258.24,730.65Zm-3.93-9a19.86,19.86,0,0,1-1.58-1.42c.6-2,1.21-4,1.82-6,2.43-2.65,3.53-7,3.38-11.17.17-.54.33-1.08.49-1.62.35,1.91.82,3.8,1.31,5.67q-2.64,7.34-5.3,14.66Zm8.4,44.4c-.11,1.57-.17,3.15-.25,4.73-.58-.44-1.13-.84-1.64-1.2v-22.9l-1.66,0v20.6c-4.75-12.33-2.24-22.92,2.94-34.27a5.29,5.29,0,0,0,3.21.3C263.67,744.07,263.55,755.1,262.71,766Zm30.9,32.16c-2.16-2.07-4.36-4.15-6.57-6.2l5.46-4.91A16.83,16.83,0,0,1,293.61,798.17ZM781.68,1922.48c-7.33-13.75-14.67-27.46-21.79-40.69l6.76-6c5.56,12.26,9.67,22.29,14.71,31.83,1.49,2.83,5.52,4.29,8.37,6.43l0,0,.33.3a12.71,12.71,0,0,1,1.19,1c-.15-.11-.51-.43-1.19-1l-.23-.17-.13-.1Zm18.18,34.25c-4.42-8.36-8.92-16.85-13.45-25.35C796.47,1939.08,802.8,1945.7,799.86,1956.73Z"/></g></g></svg>