<svg xmlns="http://www.w3.org/2000/svg" width="100%" preserveAspectRatio="none" viewBox="2 0 1920.48 5645.5"><defs><style>.cls-1{fill:#00242c;}</style></defs><title>Asset 66</title><g id="Layer_2" data-name="Layer 2"><g id="Layer_4" data-name="Layer 4"><path class="cls-1" d="M2.39,1.74,2,2695.57h.05l22.67-1.48.09-.31c1.39-5,3-10.26,4.79-15.23,5-2.11,10.31-3.92,15.55-5.76,5-1.77,12.75,1.33,14,5.88,1.72,6.34-3.19,8.51-7.82,10.66,7.36,4.79,7.35,4.79,10.38-2.62,1.57-3.85,3.86-4.81,7.1-1.73,4.81,4.56,9.78,9.05,7.92,16.77-.44,1.83-.57,3.7,1,5.11,1.44,1.28,1,5,3.85,4s.79-3.57.42-5.43c-2-9.94-.73-11.15,9.54-8.64,4,1,8,.89,13.25.14-4.28-4.21-9.29-2.55-12.92-4.74-2.11-1.28-5.79-.58-6.17-3.92s2.84-4.62,5.18-6.16c.77-.51,1.79-.65,2.59-1.55-3.07-1-6.18-2.17-8.66.94-2.92,3.65-5.94,2.3-9,.46-8.74-5.2-12.79-13.73-9.55-20,5.31-10.22,18.73-16.42,27.06-12.57,1.39.64,3,1.46,4.4,1.26,9-1.27,14.86,3.44,20.26,9.66,1.17,1.35,2.43,4.72,4.68,3,2.75-2.16-.8-3.35-2-4.62-6.12-6.76,2.71-7.74,4.48-11.35.84-1.71,5.23-1.81,3.25-4.94-1.43-2.26-4.28-1.21-6.47-.17-6.31,3-12.6,5.07-18.87,0-1.38-1.13-2.43.22-3.62.41-4.72.74-8.47-1-10.53-5.13s.45-7.54,3.37-10.42c3.68-3.6,8.23-5.54,13.11-6.81,2.1-.55,5,.56,5.59-2.91.22-1.44-.37-3.07-1.71-3.06-2.73,0-5-3.26-8-.76a55.82,55.82,0,0,1-8.8,6.5c-5,2.72-8.79.34-9-5.24-.25-6-5.94-12.22-11.33-11.85-3.33.23-3.54,2.31-1.74,4.91,1.93,2.79,4.14,5.54,5.38,8.65a22.13,22.13,0,0,1-6.17,25c-9.44,8.27-19.84,14.72-31.56,18.52,2-3.14,4-5.35,5.89-6.16-.92-5.86-10.08-5-1-29.54a57.39,57.39,0,0,0,2.12-6.86,77.33,77.33,0,0,1,11.42,4.25c-1.53-5-4.44-7.73-9.1-8.43-.49-.07-1-.11-1.53-.14.72-5.89-.41-9.66-1.11-13.58,1.63-1,3.35-2,5.52-3.36-1.82-1.54-2.63-4.47-5.87-1.63l-.14.12c0-4,1.08-8.85,4.93-16.28,10.38-3.76,10.38-3.76,10.26-12.9-4.45-4.63-8.6-22.06-8.6-32.16,0-23.84-14.57-73.28-2.58-81.82a28.73,28.73,0,0,1-4.29-12.1c-.41-4.1,5.09-9.49-.49-12.56-14.89-8.18-2-15-2.46-24.27s10.08-32,5.76-33.81c-2.09-.86,4.86-8.8,3.2-14.37-1.77-6,1.19-12.69,5.16-17.83,2.59-3.35,8.47-7.5,5.16-11.78-2.61-3.37-1-8.29-6-12.1-4.68-3.54-1.68-8.88-6.88-12.42-3.29-2.25-4-13.29-4.4-15.95-.79-4.66-1.69-16.53-2-32.13-.36-16.11,5.41-36.13,5.15-54.44-.18-13.87-9.36-20.13-10-30.74,2.4-4.48,6.52-18.85,11.75-21,1.5-2.31.63-5-.65-9.26,0,0,5.67-4.39,1-13.17-8-14.82-2.7-19.53.11-28.12a6.24,6.24,0,0,1,1.36-2.05,32.3,32.3,0,0,1,1,9.79l-.09,1.17Q63.3,2124.25,76,2144.1l2.18-.67c-4.6-11.1-8.59-22.49-13.91-33.23-8.64-17.46-12-33.15,8.88-44.67,2.9-1.6,4.64-5.3,5.17-10.07q-6.94,5.05-13.86,10.1l-3.92-4.68,46.18-37.11-4.89-5.09-11.18,14.83c.58-8.08,1-13.29,1.32-18.5l-2.34-.56-12.52,27.81L70,2039.14c5.6-13.15,11.18-26.29,18-42.37l-12,10-5.27-9.42c-.39,11.57-.71,21.2-1,30.82l-4.18-.22c.35-6.38.69-12.76,1.06-19.51-16.07,4.6-11.34,13.43-8.06,23.93,2.63,8.43,1,18.2,1.26,27.37l-5.49.58q-3.55-8.68-7.12-17.37l-2.57.77a64.47,64.47,0,0,1,1-15.52c1.52-8.53-6.22-26.31-3.42-40.58,7-17.37,17.23-30.54,16.18-30.54-1.93,0,1-12.81-3.38-14.24s-5.76-29.18-5.76-33.1-26-45.55-24-55.16,19.68-54.45,13.93-54.81,16.42-10.32,23.61-34.16,10.09-56.23,17.78-55.88-36.54-8.85-32.7-19.88,3.88-10.37,3.4-16.06,4.33-7.83,4.33-10.68,5.28-5.34,5.76-11.74,12.48-17.09,5.28-17.44-3.85-19.93-7.2-22.78-7.69-33.45-2.88-37.72,8.63-21.71,4.8-24.92-13.7-6.69-12.73-13.81-2-31-7.27-31,0,0,10.39-11.81c-5.76-3.21-6.57-2.37-4.17-10.91,1.4-5,4.21-6.49,5.65-6.89h0c-3.36,0,12.48-5,10.08-8.54s-16.32-54.09-13.44-71.89,38.77-113.82,24.49-135.59c-13-5.34-14.75-17.52-16.92-30.41-.66-3.93-4.43-19,9.51-41.39,3.14-50.7.7-128.88-5.34-128.88-3.18,0-3.94-12.33,5.34-24.38-.14-.6-.29-1.19-.43-1.77,5.68-1.16,9-5,11.55-9.89.55-1,1.17-2.1.13-3.11s-2.22-.4-3,.4c-2.21,2.21-5.07,3.86-6,7.16-.33,1.13-1.22,2.21-2.54,1.64s-.5-1.8-.23-2.69c.92-3,3.37-5.08,4.73-7.78,2-4,4.37-8,3.49-12.8-.16-.86-.28-1.87-1.44-2a2.19,2.19,0,0,0-2.25,1.13c-1.44,2.66-3,5.34-3.43,8.34a32,32,0,0,1-3.62,10.48c-.62-1.82-1.27-3.53-2-5.16.56-1.14,1.09-2.28,1.6-3.44.3-.7.76-1.46.09-2.11a1.71,1.71,0,0,0-2.13-.06,14,14,0,0,0-1.61,1c-.63-1.29-1.27-2.52-1.93-3.68a63.82,63.82,0,0,0,7.92-9.57c2.1-3.27,5.22-5.33,8.39-7.47a78.35,78.35,0,0,0,9.2-7.92,2.29,2.29,0,0,0,.29-3.42c-1-1.16-2.14-1-3.41-.34a26.85,26.85,0,0,0-5.59,4.47c-.66.65-1.47,1.31-2.34.94-1-.44-.7-1.57-.48-2.37,1.55-5.58,2.36-11.48,7.48-15.4a8,8,0,0,0,3-5.61c.12-1.26,1-3.17-.62-3.75a4.08,4.08,0,0,0-4.14,1.41c-2.63,3.1-5.44,6.71-5.68,10.49-.43,6.6-3.29,12.21-5.28,18.19-2.18,6.55-6.42,11.59-11.28,16.14a53.65,53.65,0,0,0-5.34-6.77,40.89,40.89,0,0,1,5-7.87c3.94-4.91,8.91-9.07,11-15.29.43-1.28,2.12-2.94.07-4-1.62-.81-3,.34-4.12,1.81-2.31,3.05-4.66,6.06-6.19,10.44a9.65,9.65,0,0,1-.63-5.42c.79-6.94,4.84-12.41,8.12-18.2.8-1.41.8-2.36-.17-3.36-1.15-1.18-2.23-.68-3.28.35a20.93,20.93,0,0,0-5,7.95c-.22.6-.4,1.34-1.18,1.21a1.15,1.15,0,0,1-.81-1.51,5.06,5.06,0,0,0-.7-4.35c-.37-.63-.34-1.7-1.26-1.73a2.08,2.08,0,0,0-1.93,1.57c-2.07,5.27-2.24,10.51,1.35,15.1a8.69,8.69,0,0,1,1.77,6.3c-.2,5.26-2.67,9.66-4.94,14.13a56.91,56.91,0,0,0-7.39-5.67A62.65,62.65,0,0,1,44,978.63c.45-.81,1.58-1.74.31-2.62s-2.12.1-3,.84c-2.63,2.14-3.84,5.21-5.43,8.07a5.91,5.91,0,0,0-.6,1.54c-2.71-1.78-4.37-3.21-4.25-5.35.73-12.89,18.12-29.55,11.6-37.07s-13-44-8-58,7-9,16.67-34.91c-4.53-14.07,5.08-30.62-5.07-32.23s10.88-28.47,2.9-29c-4.41-.3-8.83-5.87-13.11-13.06a103.68,103.68,0,0,0,17.37-24.25c15.12-42.42,27.59-221.29,49-232,6-28,67-113,74-117a87.66,87.66,0,0,1,8-14,43.46,43.46,0,0,1,3-15c9-2,7.83-21.66,8-16,.09,2.83,13.62,3.78,18,12s-1,27,16,30c5-11,13.8-23.18,14-34,1-2,3-2,4-5,4.4-17.42,12.63-43.4,14-62,.55-7.4,10.81-22.81,11-29,.47-14.63-2-29-1-30s3.13-6.18,7-8a20.11,20.11,0,0,0,10.3-6c3.52-3.23,4.74-7.63,6.23-7.3s4.1,8.56,4.1,8.56c5.17,5.41,8.68,21.95,8.37,27.77,3,6,1,13,6,17,4,1,4-26,4.57-33.63,3.42-5.37,1.94-10.49,3.68-14.43s.74-6.94,2.37-9.23c0,0,11.38-5.71,15.38-4.71a61.62,61.62,0,0,1,8,5l0,11.84c.19,7.91.89,15.26,3,21,1.39.19,7.73,10.51,9,15.16,1,3.72,4.87,10.37,9,10a40.29,40.29,0,0,0,6-16c-1-5,4.21-15,5-20,1.5-9.42,2.81-16.24,5-25,1.9-7.58,7.22-6.22,10-10,16-1,9.71-1.45,20,3,8-1,14.39,12.15,23,10,20.16,5.69,16,15,33,35,3.81,6.06,8.31,26.32,15,37,3.38,5.39,8,1.64,12,6,9.56-2.08,18.86-19.92,22-36,2.22-11.33,17.64-44.4,20-55,2-8.77,18.29-20.47,26.86-26.24-2.43-1.27.53-1.84,3.22-2.14l.93-.62c4.45.26,1.91.29-.93.62-.86.56-2,1.29-3.22,2.14,1.82.95,6.73,2.3,17.15,4.24,5.36,1,14.45-6.21,21-5,3,4,13,1,16,6,4,4,13,7,22,4s19-14,19-14c8-9,10-8,20.36-12.39,4.11-14.31,13.63-3.61,34.63-6.61,51-1,32,7,44,3,4,4,9,1,13,15,3.53,7.27,6,2,11,7,5.25,10.18,11.49,13,16,17,7.81.53,12,1.12,18-13,8-5,14-10,20-12,9,0,12-1,18-6,12-4,24,2,33,4,16,4,21,5,40,10,19,4,35.26-4,50-3s31.06-12.65,45.71-11.62c38.52,2.68,66-4,92.29-3.38,31.16.71,60.53,8.58,102,11,4.38.25,53.23,1.31,57,19,9,9,5,9,9,16,1.68,9.53,4.3,2.44,6,11,4.1,20.69,8,38,15,44,5.27.28,8.11-1.64,11-22,1-9,5-6,8-8,2-3,2.82-4.15,4-13,2.52-15.6,8-11,12-14,5-1,8-2,16,1,14,0,10-8,16-3,6.44,11.26,19.46,52.81,21,65,2,16.06,16.93,20.32,18,36s10.31,35.79,19,35c12.38,1.5,8.07-31.27,13.56-46.55,2.92-8.13-3.6-18.8-1.56-27.45,4.35-18.42,16.36-22.15,22-22,10.12.26,14.56-10.15,24-10,4.4.07,10,2,12,9,6,23.09,17,35,18,60s7.49,11.2,8,25c.55,15.09,6,12,3,31,2.52.3,13,14,19-2,5.18-8.67,7.16-36.62,8-40,3.15-12.42,3.29-16.91,6-31,1.62-8.41,5.11-10.18,7-20,1.94-10.07,11.28-.19,13-9,4.65-23.62,10.45-11.9,15-12.08,17-13.92,22-17.92,22-17.92,0-.18,18-2.8,18-3,19.13,6.55,10.85,11.27,26,27,21.48,6,39.69,31.27,39.21,60,4.06,29.12,22.79,38,12.8,56,5,13-4,17,8,43,22,4,23-36,46-20,4.77,23.36,14,10,18,43,15,7,1.8,36.19,14,34,21,23,33,40,33,40s11,1,18,31c6.22,17.49,8,41.45,20.15,64.21,6.71,10.89,3.7,42.16,5.79,58.11-.61,15.32,4.6,23.3,6.74,42.3,0,0-1.64,16.36-3.06,29.32-.38-2.21-.7-4.43-.88-6.66-.68-8.22-.94-16.47-1.37-24.72-1.07,3.31-1.13,6.68-1.47,10-.2,2,1.57,5.17-1.49,5.58-2.22.31-3.37-2.43-3.79-4.78-.11-.63-.08-1.68-1.49-1.27-.73,2.43-.71,5.14,1.36,6.62,5.09,3.62,5.66,9.1,6.21,14.37a61,61,0,0,0,1.94,9.42c-.37,3.09-.68,5.42-.87,6.43-.29,1.5-.09,5,.33,9.27-2,.64-3.58-.58-5-1.78-4.34-3.52-6.37-7.76-3.8-13.27,2-4.26,2.23-8.55.45-14.53-1.78,4.79-.88,8.62-2.7,11.76-.6,1-.92,2.37-2.43,2.32s-2.1-1.06-2.64-2.2c-.85-1.83-2-3.7-1.14-5.76,4.46-10.85.8-21.45-.88-32.11-1.11-7.08-2.09-14.05,4.2-19.66,2.25-2,2.52-5.12,2.21-7.94-.7-6.46.12-12.9,0-19.34-.1-3.68-.52-7.35-.84-11.61-2.08,1.8-1.49,3.28-1.53,4.62-.28,9.48-.51,19-.83,28.44-.07,2.08-.6,4.62-2.87,4.76-2.61.17-2.72-2.7-2.86-4.55-.44-5.63-.39-11.29-.87-16.92-.2-2.31.54-5.71-3.62-5.7a11.26,11.26,0,0,1,.37,8.78c-.31.95-1.49.79-2.07.35-2.73-2.1-3.8-5.08-4.05-8.41,0-.8.11-1.62.07-2.42-.43-8.18-.88-16.35-1.36-25.2-2.21,3.74.25,8.66-4.61,10.51-1,.38-.37,1.48.23,2,3.21,2.6,2.22,6.24,2.48,9.58.57,7.07.82,14.23,7.52,19a5,5,0,0,1,2,3.56c-.17,7.27,4.22,13.85,2.84,21.38-.68,3.7.54,7.59,1,11.39.92,7.14,3.67,14.17,1.93,21.54-.27,1.13-.38,2.56-1.92,2.71a2.32,2.32,0,0,1-2.57-2.1c-.21-9.42-7.85-17.93-3.37-27.94.51-1.13.85-2.81-.93-3.42-2,.25-.49,5.23-3.87,2.85-2-1.43-2.07-3.82-.22-5.86.27-.3.48-.66.77-.93,3.77-3.56,2.57-7.5,1.34-11.85-2.11,1.49-1.2,3.26-1.57,4.71s0,3.51-2.14,3.86-2.31-1.73-3-3.1c-2.57-5.1-2.2-10.57-2.12-16,0-3,.9-6.18-1.2-9-1.73,1.16-1.43,2.46-1.53,3.63a56.38,56.38,0,0,0,4.74,28.1c7,16,7.11,34.55,17.27,49.58a3.46,3.46,0,0,1,.47,1.12c.24,1,.46,2-.37,2.83-1.08,1.07-2.26.66-3.31,0-4.1-2.63-8.09-5.24-9.4-10.53a35.12,35.12,0,0,0-3.67-9.57c-2.44-4.17-4.87-8.44-1.18-13.37.79-1.06.39-3-.75-4.32-1.51,1.45-.35,4.39-2.9,5-3.91.91-2.13-4.29-5-4.87-1,2.42-.07,4.26,1,6.29,2.52,4.57,4.8,9.27,7.08,14,.85,1.76,2.22,4.15,0,5.33-1.76.94-3-1.41-4.11-2.79-7-8.45-10.17-18.77-13.54-28.89-1.27-3.84-1.85-8.3,2.56-11.53,3-2.23,1.5-5.24.28-9.71-.57,3.07-.78,4.45-1.07,5.8-.39,1.75-.47,4-2.94,3.89-2-.05-2-2.21-2.77-3.56-1.37-2.49-.61-5.87-3.38-8.6-1.47,3.5-.55,6.13.36,8.74,1.07,3,2.23,6,3.25,9.11.57,1.72,1.23,3.68,0,5.23-2.19,2.68-2.46,2.83.14,4.38,2.29,1.36,2.71,3.54,3.14,5.6,3.81,18.18,16.87,28.83,31.55,37.62,5.85,3.5,12.17,6,16.75,11.39a32,32,0,0,0,7.38,6.22c.2.13.41.25.62.37,1,8.65,2.24,17.51,2,19.88-.39,4.52,3.75,15.34,2,23.4s2,6.69,1,13,2.7,116.5,2.7,116.5-11.88,60.81-9,73.16c0,0,2,4.14,5,15.56s-3,15.62-1.6,17.23a3.22,3.22,0,0,0,.23.25c.23.1.32.32,0,0s-1.23,0-1.23,3.75c0,6.41-1,14.22,3.6,17.43s-.6,3.61-1,9.82-1.6,8.21,1,12-3.2,11.42-1.6,23.24,24.27,103.52,21.45,111.12-14.47,10-12.53,19.41c7,3.09-.56,8.43,0,12.09s1.69-2.25-5.34,14.91-8.18,130.45-2,151.12c0,0-6.86,12-4,12,1.34,4,1.14,7.81-2.07,13s-10.21,17.7.19,37.42c0,0,3.68,6.93.87,11s-2.6,10.19-2.6,11,1.51,24.92-10,63.93c0,0-6.72,25.14-3.69,33.37s-.65,30.77-.65,30.77l-5.2,18.28c-5.15-5.55-9.93-10.73-15-15.66-6.78-6.63-14-12.78-21.09-19.14l-3.81,4.52,22.45,18.34-1.65,4.36-34.13-5.29c4,9.87,24.8,4.48,21,20.36l24.14,12.48c-.35,2.11-.7,4.21-1,6.32-7.85,0-16.84,2.41-23.22-.64-7.18-3.45-12-11.83-20.26-20.62,6.54,25.93,26.21,30.84,43.65,36.66-.78,1.91-1.6,3.7-2.08,5.19h-49.6l.39,7.4,40.29-5.07c.07,1,.13,2,.2,3l-12.79,6.92c.38,1,.76,2,1.13,3l22.83-3.63c-.11,2.15-.39,4.47-.66,6.6l-40.52,4c11.5,10.77,26.72,2.07,40,1,0,.28,0,.55,0,.79a11.52,11.52,0,0,1-.68,3.78l-26,14.94c.6,1.2,1.19,2.41,1.78,3.62l26.1-12.58a23.3,23.3,0,0,1,2.77,3l-39.36,28.77,1.58,2.62,28.6-16.15,5.32,7.22a.36.36,0,0,0,0-.09,4.55,4.55,0,0,0,2.64,2.82c5.2,1.52,27.09,22.32,21.89,27.09-1.59,1.45-2.15,1.84-2.21,1.93.14,0,2.18-.94.91,4.57-1.95,8.45,2.16,12.57.65,21s-11.27,23.84,1.3,46.81a42.46,42.46,0,0,1,3.73,32.94,130.39,130.39,0,0,1-6.25,16.28c-1.2,2.74-2.62,5.48-3.61,8.3s-.84,5.75-.88,8.9c0,3.62-.17,7.58-2.55,10.32-3.49,4-10.42,3.8-13.46,8.17-1.8,2.59-1.64,6.05-1.07,9.15a2.19,2.19,0,0,0,.36,1,2.29,2.29,0,0,0,1.31.64c15.18,3.78,29.72,29.26,16.76,42.23-13.73,13.73-14.36,7.83-14.14,24.5,6.42,8.59-1.79,10.65,5.35,18.34s3.3,12.08,4.94,20.32-4.39,24.17,1.65,27.46,7.14,19.23,6.59,31.31-4.69,26.82-3,28.93c8.28,10.13-8.4,15.24-14.43,20.64-.68,1-5.42,5.36-5.71,9.4-.4,5.59,4,11.25,5.61,12.45.73.53,6.56,17.63,7.46,17.74,10.07,5.38-7.36,10.73-4.1,19.49-.15,3.4,4.29,27.58,3.08,30.76-1.55,4,11.56-6.58,9.77,16.24-1.12,14.28-5.36,23.08-3.87,23.61,3.85,1.35-.11,7.83,1.19,13.32s7.87,10,6.06,14.29c-3.63,8.6,23.54,49.8,23.54,58.4s-6.29,31.12-9,31c-15.61-.55,3.53,66.46,3.08,72.8-.39,5.36,4.76,43.3-3.48,90.2a24.14,24.14,0,0,1-2.58-9.39,8.65,8.65,0,0,1,1.77-6.3c3.58-4.59,3.42-9.83,1.35-15.1a2.08,2.08,0,0,0-1.93-1.57c-.92,0-.89,1.1-1.26,1.73a5.07,5.07,0,0,0-.71,4.35,1.14,1.14,0,0,1-.8,1.51c-.78.13-1-.6-1.18-1.2a20.89,20.89,0,0,0-5-8c-1-1-2.13-1.53-3.28-.35-1,1-1,1.95-.18,3.36,3.29,5.79,7.34,11.26,8.13,18.2a9.74,9.74,0,0,1-.63,5.42c-1.53-4.38-3.88-7.39-6.19-10.44-1.12-1.47-2.5-2.62-4.13-1.81-2,1-.36,2.69.08,4,2.09,6.22,7.06,10.39,11,15.29a41.33,41.33,0,0,1,4.33,6.56c-.68,3.39-1.43,6.83-2.26,10.29-5.83-5.16-11.15-10.73-13.69-18.35-2-6-4.85-11.59-5.28-18.19-.25-3.78-3.06-7.39-5.68-10.49a4.08,4.08,0,0,0-4.14-1.41c-1.62.58-.75,2.49-.63,3.75a8.06,8.06,0,0,0,3,5.61c5.13,3.92,5.93,9.82,7.49,15.4.22.8.56,1.93-.48,2.37-.88.37-1.68-.29-2.34-.93a26.84,26.84,0,0,0-5.59-4.48c-1.27-.7-2.38-.82-3.42.35a2.29,2.29,0,0,0,.29,3.41,78.44,78.44,0,0,0,9.21,7.92c3.17,2.15,6.29,4.2,8.39,7.47,3.2,5,7.45,9,11.49,13.28-.36,1.39-.74,2.78-1.13,4.18,0,.09,0,.17-.07.26a16.51,16.51,0,0,0-5.91-5.48,1.74,1.74,0,0,0-2.14.06c-.66.65-.21,1.41.1,2.11a96.91,96.91,0,0,0,5.78,11.07l-1.39,5c-3.87-5.46-7.36-11.11-8.37-18-.44-3-2-5.68-3.42-8.34a2.19,2.19,0,0,0-2.25-1.12c-1.16.1-1.28,1.1-1.44,2-.88,4.81,1.47,8.81,3.48,12.8,1.36,2.7,3.82,4.79,4.73,7.79.27.88,1.06,2.13-.23,2.68s-2.2-.51-2.53-1.64c-1-3.3-3.83-5-6-7.16-.81-.8-1.94-1.46-3-.4s-.42,2.07.13,3.11c2.57,4.9,5.94,8.81,11.73,9.93a15.21,15.21,0,0,1,6,2.85c-10,36.42-4.76,22.32,2,46.29,7.71,27.16-10.22,43.9-6.15,50.24s1,28.71,1,28.71-.07,3.13-.13,8.21c0,.32,0,.64,0,1,.3,3.72.62,7.44.92,11.15l-1,.22-2,.44q-3.82-13.74-7.66-27.48l-2,.36q.75,12.3,1.51,24.6l-1.63,1.41c-5.13-10.52-13.63-9-22.12-7.76,5.29,3,11.63,4.36,16.13,8s7.4,9.71,11.65,15.61c-3.13-1.62-6-4.31-7.57-3.72-9.1,3.35-12.54-3.64-17.48-8.37-1.19-1.14-3.67-.93-5.56-1.34-.17.48-.35,1-.52,1.43l-6.22-7.37c1.75,17.23,17.83,19.39,29,27.85-9.15,1.28-17.23,2.31-25.27,3.62-1.35.22-2.5,1.64-3.74,2.51,1.26.87,2.58,2.52,3.78,2.44,2.91-.18,5.74-1.67,8.63-1.74,7.28-.18,14.58.13,21.87.24.1.84.19,1.67.29,2.51-.61.4-1.55.67-1.78,1.23-1.06,2.57-1.93,5.23-2.87,7.86,2.92-.38,6.52.16,8.63-1.35s3.72-3.34,5.68-4.75c.83,15.8,2.46,29.25,5.59,31.34,6.46,4.31,8.45,17.61,10.2,24.45,1.8,7,1.13,12.87-.38,20h29.29L1922.48,0Z"/><path class="cls-1" d="M306.13,5232.1c-6.82,13.56-32.27,4-39.48,42.37-60.71,52.31-112.67,70.87-163,161.82C44.59,5543.08,2.86,5582.09.35,5583.2L0,5645.5H1922.21V2869.8h-46.9c2.74,22,.78,31-1.06,38.21l-4.3-5.16-4.13-1.62q1.37,8.08,2.74,16.18l-6.74-.95-13-19.07-8.36,9q10.72,17.1,21.43,34.15l-5.39,3.32-24.91-38.48-2.56,1c1.92,5,3.83,10,6.48,16.95-5.34,1-9.47,1.75-13.56,2.62-.43.09-.68,1-1,1.48.26.5.44,1.32.76,1.38,5.4,1,10.82,1.91,19.92,3.47l-15.13,4.5c15.81,4.76,32.83,5.23,38.68,27.26l-26.33-17.78c-.78.89-1.56,1.77-2.33,2.66l7,8.29-11.24,3.06c0,.91.07,1.82.1,2.73l18,3.32-13.41,6.23c2.4,5.88,4.3,10.51,6.43,15.72,8.13-9.5,17.12-22.75,29.13-15.09-3.57,7.32-7.54,12-9.65,16.83-3.06,6.94-.8,15.9-.32,16.87,1.07,2.13-.71,6,2.49,7.47,1.51.68,4.2,6.25,7.19,12.37.78,1.59,1.57,3.21,2.37,4.79h0c1.08,2.14,2.17,4.2,3.23,6,1.53,2.63,3,4.71,4.29,5.65,3.48,2.55,3.63,19.43,4.11,31.78.16,2.31.31,5,.45,8a.45.45,0,0,0,0,.11c.25,2.58.59,4.39,1.14,5s.08,2.29-.74,5.18c-2.77,9.76-10.58,32.25-8.51,62,.41,5.92-2.2,43.88-7.83,55.52,2.79,2.69,1.66,6.55,5.25,11.63,3.87.89,5.27,2.6,10.51,3.38a4.5,4.5,0,0,1,1.55,0c-1.94,6.19-4.3,12.43-7,13.93-1.35,2.88-.56,6.19.61,11.52,0,0-5.17,5.46-.89,16.38,7.26,18.43,2.47,24.28-.1,35-.5,2.13-2.55,3.91-3.83,7.08.45,15.93,5.69-.45.45,21.67,4.67,19.06,8.88,31.22,6,54.19,0,.25-.06.51-.09.76-1.29,9.91,4.8,29.86,3.5,46.91-.09,1.2-.22,2.39-.39,3.55-6.32,21.6-15.67,38-14.71,38,1.74,0-.87,15.93,3.06,17.71s-19.32,36.28-19.32,41.16,11.37,56.64,9.62,68.59-17.91,67.71-12.67,68.15-2.67,12.84-9.22,42.48-9.17,69.92-16.18,69.49,33.26,11,29.77,24.73-15.82,12.88-15.39,20-3.92,9.74-3.92,13.28-4.8,6.64-5.25,14.6-11.35,21.25-4.82,21.69,7.63,32.9,6.57,28.32c-6.57-28.32-25.84,11.27-30.2,16.58s-2.27,24.35,1.22,28.35-22.43,43.12-23.32,52c-.16,1.63,1.38,6.32.31,13.17q-4.8,8.89-9.57,17.8l-2.24-1.17c2.06-4,3.28-8.82,6.36-11.65,6.23-5.72,5-11.73,2.95-19.46l-15.52,20.53-1-.59,8.35-16.79-13,5.89-1.54-2.19c12-4.22,22.57-9.93,26.88-23.6l-5.13,2.71-.45-.66,11-8.72-1.38-1.56a22.43,22.43,0,0,1-2.4,2.56,17.84,17.84,0,0,1-3.17,1.49c3.6-5.89,6.71-11,9.81-16l-2.42-1.5-25.62,39.83c2.49-7.47,4.54-13.62,6.58-19.76l-1.38-.53q-4,9.17-8,18.32l-1.53-.6,11.94-32.88-2.12-.93-13.41,33c.27-4.87.43-7.7.59-10.54l-1.71-.08q-.55,11.94-1.1,23.89l-2.18-.25c.46-2.41.91-4.83,1.69-9-7.85,9.09-6.68,17.65-2.86,26.57l-3.34.7c-1.31-3.12-2.63-6.23-4.22-10-.26,4-.49,7.63-.72,11.26-5.16-9.35-3.84-18.55-.15-27.78l-3.11,3.26c1.47-12.24,4.59-23.64,13.77-32.6l-2.1-1.25q-3.84,5.13-7.67,10.25l-.78-.52q7.77-13.34,15.54-26.7l-1.44-1-5.44,6.69-1.25-.95,14.17-19.66-1.62-1.19c-4.5,5.62-8,12.79-13.73,16.49-8.1,5.22-11.77,12.57-13.21,20.74-2,11.55-2.1,23.44-3,35.19-.13,1.64-.18,3.29-.27,4.94l-1.62-.05v-24.26l-1.66,0v20.6c-5.07-13.13-1.88-24.28,4-36.49l-7,4.57,15.8-34.76-2.3-1-10.71,21.39-1.1-.47q3.73-10.59,7.49-21.14l-2.47-.85q-4.28,11.81-8.55,23.6l-1.93-.64q3.72-12.3,7.45-24.6c-8.64,9.17-11.61,19.7-8.87,31.71,1,4.43,2,8.86,2.78,13.34.08.45-1.76,1.22-1.82,1.26.71,6.26,1.38,12.14,2.06,18l-2.52.29q-1.6-17.3-3.2-34.6l-1.59-.13-3,9.9-1.73-.42q1.89-10.5,3.75-21l-2-.55q-2.64,7.26-5.29,14.51c-.43-3.65.55-6.94.74-10.29s-.4-6.8-.65-10.21h-2.43q-1.3,11.9-2.63,23.79a31.46,31.46,0,0,1-1.87-8.51c-.26-2.67-.31-5.37-.55-10.06-5,10.15-1.36,23.24,5.7,29.07,3.34,2.76,5.72,6.68,8.54,10.07-.56.41-1.12.82-1.67,1.24l-4.93-7.11-1.56.77,3.07,9.46c-6.62,6.72-4.1,14.22-2.46,21.67l-2.73-5.5c-.25,4-.41,6.58-.57,9.16-1.48-2.92-1.46-5.84-2-8.64a41.25,41.25,0,0,0-2.44-6.53l-3.91.85v21.84l-1.3.16q-2.51-9.69-5-19.4l-2.08.52q3.42,14,6.83,28l-1.12.37-8.77-21.05c-1.36,5-2.58,9.4-3.79,13.82l-1.22-.16v-8l-1-3.7-16-26.07-.94.51q7.5,16.36,15,32.73l-1,.54-19.47-33.66-1.89.91,19.35,37.08-.24-.14,6,5.92,6,7.47c0,.56,0,1.13,0,1.69a51.77,51.77,0,0,1,5.43,3.36c2.19,1.73,3,3.47-1,3.8,0-.4,0-.8-.07-1.2l-.11-.11h-1l-1.92,0-1.51-.1c2.22,3,4.43,6.07,6.68,9.16-8.28-1.53-13.85-6.34-17.69-13.81.18,1.65.36,3.3.65,6.07l-9.76-15.89c.34,3.46.47,4.81.61,6.17l-1,.29c-1.41-2.75-2.82-5.48-4.94-9.62-.29,2.31-.42,3.09-.47,3.87s0,1.65,0,4.07l-10.16-28.77-1.51.45q1.54,6.16,3.07,12.32l-1,.3q-5.17-14.46-10.33-28.92l-1.74.59c.56,3,1.13,6,1.7,9l-1.46.33-6.48-24.83c-.06,9.82-.53,19.68,2.07,28.65,2.37,8.21,8,15.52,12.35,23.12,2.88,5,6.33,9.67,9.32,14.61l-3,1.92-13.22-19.81c-.17,2.47-.28,4-.39,5.61-2.94-3.5-4.31-7.32-6-11-1.86-4-4-7.92-6-11.88-1.63-3.26-3.24-6.53-4.85-9.78l-1.95.86,6.48,16.74-1.81.81-7.36-14.15-2.45,1.34q6.15,10.8,12.28,21.61l-1.85.95-15.07-23.37c1.56,14.71,9.93,22.53,19.12,29.8-6.87,4.52,2.64,6.46,1.37,11.86-5.22-6.33-9.71-11.8-14.21-17.27-.6.43-1.2.86-1.81,1.28l8.3,14.39-15.5-14.47-2.34,2.55,18.86,18.14a86.88,86.88,0,0,1-8.43-4.2c-2.86-1.79-5.41-4.08-8.1-6.15,2.21,8.4,14.51,15.55,22.59,13.34s13.89,3.44,21,4.46c4.86.7,9.45,3.16,14.3,3.9,8.43,1.3,17,1.87,25.46,2.74,0,.57-.09,1.15-.14,1.72h-21.06l2.93,3.6c.68,1.81,1.37,3.61,2.06,5.42,3.77-.63,7.6-1,11.31-1.94a46.12,46.12,0,0,1,12-1.18c-4.69,2.94-9.13,5.84-13.29,8.66-2.25-.25-5.73-1-12.34-2.52,1,1.83,1.58,2.95,2.21,4.15l-1.34,1.23-14.15-9.16c-.33-.19-.67-.36-1-.52l-3.2.51c1,1.12,1.62,1.84,2.24,2.58s1.24,1.51,2.72,3.31c-11.32-5.34-11.32-5.34-13.94-3.4,3.82,7.37,10.52,7.82,17.77,8l-5.67,1.35c5.14,5.08,11.8-1.51,16.93,1.27-23.94,17.18-36.47,30-35,30,4.81,0-18.14,11.91-27.6,26.6,5.25,4,24.13-9,21.93,1.65-1.25,6.19-3.82,8.07-5.13,8.57h0c3.06,0-11.35,6.19-9.17,10.62s14.85,67.26,12.23,89.39-63.35,34.45-50.37,61.52c11.8,6.64-22.05,21.18-20.08,37.21.61,4.89-14.12,35.54-26.8,63.38-.47,10.25,6.69,69-57.9,74.16a102.64,102.64,0,0,0,1.8-30.95c-.7-8.55-1.09-17.34-3.31-27.24-2.32,15.52.14,29.65-1,45.05-3.12-8.87-3.22-17.45-4.13-26.68-1.81,3.2-1.73,6-1.76,8.67a208.8,208.8,0,0,0,1.44,23.78,36.73,36.73,0,0,1,0,8l-3.85.38c-2.28-15.35-5-30.58-4.79-46.68.06-4.71,1.18-9.17,1.32-15.32a29.79,29.79,0,0,0-4.18,15.86,286.55,286.55,0,0,0,3.47,46.59h0q-3.56.41-7.13.89a345.69,345.69,0,0,1,.4-41.47,104.64,104.64,0,0,0-1.68-27.34,12.47,12.47,0,0,0-.66-2c0-.1-.2-.06-.5-.13-1.77,10.73-2.8,21.59-1.8,32.72.29,3.26-.13,6.34-.18,9.51,0,1.17,0,2.59-1,2.78s-1.12-1.12-1.45-2.22a132.09,132.09,0,0,1-5.05-27.28c-.12-1.56.83-5.16-2.16-3.45-1.4.8-.17-4.19-1.92-6.24a68.17,68.17,0,0,0,.15,33.26c.75,3.14,1.36,6.37,2.16,9.48,2,7.92,1.34,15.55-.69,23.14-.14.52-.27,1-.4,1.56-22.88,4-45.66,10.53-66.36,20.86-12-3.57-21.07,33.29-9.07,17.54L1325,4555.3c.29-10,24-4.23,15.7-19.49-31.73,4.49-58.75,14.46-68.6,49l-8-4.66c-7.14,10.44-14.13,20.63-21.22,31l-10-7.87c6.69,14,11.31,23.72,15.93,33.39l-2.59,2.79-21.51-18.31,16,34.65c-32.84,17.21-65.26,36.1-89.25,69.23-55.73,77-102.54-8-138.93,36.9a7.89,7.89,0,0,1-3.11-.11c-2-.54-3-4.42-5.59-8.62l-19,1.22c0,.58,0,1.16.05,1.75l5.2,3.41H982.6l11.55,4.51-.87,2.31c-3.46-1.49-6.84-3.17-10.38-4.43-3.71-1.32-8-3.77-8.94,1.63l-26.65-9.89,13.18,13.2-9.15,1.16,7.83,4.44c-9.64,1.39-17.54-9.7-28.49-2.56,8.55,11.59,23.51,8.48,33.41,17.29-8.37-1.58-16.79-1.88-24.1-4.87-9.84-4-9.48-4.92-11,5.26,10.37,1.25,20.81,2.06,31.07,3.87a135,135,0,0,1,23.29,5.84L978.6,4803c-36.89,43.91-56.14,64.19-54.72,64.19,2.91,0-48.25-62.5-56.71-47.52,1.65,9.52.54,16.81-2.45,22.41-.25-2.65-.5-5.42-.78-8.48l-14.77.66,14.45-11.25c-.4-.82-.79-1.64-1.18-2.46l-11.39,2.46c1-4.51,1.68-7.53,2.35-10.55l-3.3-1.3-15.16,27.93c-5-22.25,9.92-30.51,21.74-42l-15.49,3c7.35-5.58,11.74-8.89,16.07-12.27.26-.2,0-1,0-1.57-.48-.29-1.12-1-1.54-.87-4,1.11-8,2.36-13.24,3.93-.85-7.37-1.47-12.7-2.08-18l-2.68,0q-2.19,22.95-4.39,45.91l-6.32-.46q1.63-20.09,3.26-40.18l-11.54-4.1q-1.39,11.46-2.78,22.93l-5.55,4-5-15.63-2.91,3.35c-.76,3.51-1.53,7-1.63,7.47h0l26.44,30.52-4.33,3.78q-6.18-6.55-12.38-13.1l-1.56,1.66,20.38,42.29c-20.54,2.3-41.67-.56-41.87,4.37-.54,13.05,9.9,32.07,9.42,95.44-10.18,3.53-20.06,7.8-30.1,12.44-8.33.15-17.54,1.87-27.18,4.74l3.52-2.45-2.29-.76c1-5.14,9.91-2.11,10.2-10.09l5-2.32,0-.95-3.2-1.07c-4.43,2.65-5.77,3.46-12.12,7.31,2-7,3.27-11.88,8.58-14.67-1.25-10.06,9.93-5.87,12.7-11.4l-5.8-1.62,35.65-13.15-.73-2.19-19.66,5.87-.56-1.52,16.77-7.49-1.11-2.38-22.86,10.37a33.66,33.66,0,0,1,10-8.43c3.94-2,8.34-3.16,12.53-4.69-.38-1-.76-2-1.13-2.95-5.89,2.47-12.51,4-17.46,7.69s-8.4,9.87-12.69,14.77c-3.53,4-7.33,7.84-11,11.71a24.52,24.52,0,0,1-2.37,1.92l-1.32-1.25q8-9.93,15.92-19.89l-.75-.93-9,4.44-.88-1.52,17.37-11.64-1-1.93L745.32,4923c6.44-6.4,14.89-8,16.36-18-4.69,3.66-8,6.5-11.6,9-2.36,1.67-4.82,3.2-7.28,4.73L740,4922.3l-1-1.26c1.26-.8,2.54-1.58,3.81-2.37,3.05-4,6.2-8.08,9.77-12.75-11.19,3.72-16.15,14.24-15.41,29-4.88.7-5.33,4.06-5.86,7.84-1,7.41-4.91,13.17-10.87,18.3,2.3-6.45,4.29-12.06,6.28-17.67l-2.25-.75q-3.24,6.61-6.5,13.24l-1.31-.54q1.53-4.5,3.08-9l-1-.45-13.32,24.78-2.23-1.17c2.06-3.95,3.28-8.81,6.36-11.65,6.23-5.72,5-11.72,3-19.45L696.94,4959l-1-.6c2.76-5.53,5.51-11.06,8.36-16.79l-13,5.9c-.51-.74-1-1.47-1.54-2.2,12-4.22,22.58-9.92,26.89-23.6l-5.13,2.71-.46-.66,11-8.72-1.37-1.56a20.87,20.87,0,0,1-2.4,2.56,18.35,18.35,0,0,1-3.18,1.49l9.82-16-2.42-1.5c-8.3,12.88-16.59,25.77-25.64,39.83,2.5-7.47,4.54-13.61,6.59-19.76l-1.38-.53-8,18.32-1.53-.6q6-16.44,12-32.88l-2.12-.93c-4.23,10.37-8.44,20.75-13.43,33,.28-4.87.44-7.7.6-10.53l-1.71-.09-1.11,23.9-2.17-.26c.45-2.41.91-4.82,1.69-9-7.86,9.09-6.68,17.66-2.86,26.57l-3.34.7c-1.32-3.12-2.64-6.23-4.23-10-.26,4-.49,7.62-.72,11.26-5.16-9.35-3.84-18.55-.15-27.79-1.06,1.1-2.11,2.21-3.11,3.26,1.47-12.23,4.59-23.64,13.78-32.59l-2.1-1.26c-2.56,3.42-5.13,6.84-7.68,10.26l-.79-.52,15.56-26.7-1.45-1-5.43,6.68-1.25-1,14.17-19.66-1.62-1.18c-4.5,5.61-8,12.78-13.73,16.48-8.11,5.22-11.78,12.58-13.22,20.74-2,11.55-2.1,23.44-3,35.19-.13,1.65-.18,3.3-.27,4.95l-1.62-.05V4930.6l-1.66,0v20.6c-5.08-13.13-1.88-24.28,4-36.49l-7.05,4.57c5.72-12.56,10.76-23.66,15.8-34.76l-2.29-1q-5.35,10.71-10.73,21.41l-1.09-.46,7.5-21.17-2.47-.84-8.58,23.66-1.94-.65q3.75-12.33,7.48-24.66c-8.64,9.17-11.61,19.7-8.87,31.71,1,4.43,2,8.86,2.78,13.34.07.45-1.76,1.22-1.83,1.26.72,6.26,1.39,12.15,2.06,18l-2.52.3q-1.59-17.3-3.19-34.57l-1.59-.17q-1.49,5-3,9.91l-1.71-.41q1.89-10.62,3.79-21.23l-2-.54q-2.68,7.36-5.37,14.72c-.44-3.64.55-6.94.74-10.28s-.41-6.81-.66-10.21h-2.43q-1.32,11.9-2.63,23.79a31.08,31.08,0,0,1-1.87-8.51c-.27-2.67-.31-5.37-.55-10.06-5,10.15-1.37,23.24,5.69,29.07,3.36,2.76,5.74,6.68,8.56,10.07l-1.68,1.24L641,4931.2l-1.57.78c1.09,3.32,2.17,6.65,3.08,9.45-6.63,6.73-4.11,14.22-2.47,21.68-.7-1.42-1.41-2.83-2.73-5.5-.25,4-.41,6.57-.57,9.15-1.48-2.92-1.47-5.83-2-8.63-.45-2.25-1.6-4.36-2.44-6.54l-3.91.85v21.84l-1.3.16q-2.52-9.69-5-19.4l-2.09.53q3.43,14,6.84,28l-1.13.37c-2.86-6.88-5.73-13.75-8.77-21-1.36,5-2.58,9.39-3.79,13.81l-1.22-.16v-8c-.16-.92-.32-1.85-.49-2.77q-8.28-13.5-16.59-27l-1,.37q7.56,16.48,15.14,32.95l-1.05.54q-9.75-16.87-19.52-33.75l-1.89.91q9.68,18.54,19.36,37.08l-.24-.14,6,5.87,6,7.52c0,.57,0,1.13,0,1.69a53.8,53.8,0,0,1,5.45,3.36c2.19,1.73,3.05,3.47-1,3.8q0-.6-.06-1.2l-.11-.11h-1l-1.94,0-1.5-.11c2.21,3,4.44,6.08,6.69,9.16-8.29-1.52-13.87-6.34-17.7-13.81.18,1.65.35,3.3.65,6.07-3.34-5.44-6-9.81-9.77-15.88.34,3.45.47,4.8.6,6.16l-1,.28c-1.41-2.75-2.82-5.47-4.93-9.61-.29,2.32-.42,3.09-.47,3.87s0,1.65,0,4.07c-3.76-10.65-7-19.71-10.17-28.77l-1.51.45c1,4.11,2.06,8.22,3.08,12.32l-1,.37q-5.19-14.44-10.34-28.89l-1.78.49q.86,4.49,1.7,9l-1.47.33q-3.23-12.4-6.46-24.8c-.06,9.82-.53,19.68,2.06,28.65,2.38,8.21,8,15.52,12.36,23.12,2.33,4.07,5.06,7.92,7.61,11.86l-3,2.14c-3.73-5.58-7.45-11.16-11.53-17.28-.17,2.47-.28,4-.39,5.61-2.94-3.5-4.32-7.32-6-11-1.85-4-4-7.92-6-11.88-1.67-3.33-3.31-6.67-5-10l-1.94.85q3.28,8.47,6.58,17l-1.81.82L549.22,4954l-2.44,1.34,12.28,21.61-1.85.95-15.08-23.37c1.57,14.71,9.94,22.53,19.13,29.8l.2-.14.12.2c5.47.66,5.26,1.1,12.53,8.76,3.19,3.36,8.13,5.06,12.27,7.51l3.74,2.24-.94,1.72c-6-3.71-12.16-7.24-18-11.24-2-1.39-1.56-7-6.28-3.28-1.11-1.9-2.22-3.81-3.34-5.71l-.28,0,0,0c-6.89,4.52,2.65,6.47,1.38,11.87l-14.22-17.26-1.81,1.26,8.3,14.39c-5.69-5.31-10.59-9.89-15.51-14.46l-2.34,2.54,18.87,18.15a89.52,89.52,0,0,1-8.44-4.21c-2.86-1.79-5.42-4.08-8.1-6.15,2.21,8.4,14.51,15.55,22.6,13.34s13.9,3.45,21,4.46c4.85.7,9.45,3.16,14.3,3.91,8.44,1.29,17,1.86,25.48,2.73,0,.58-.09,1.15-.14,1.72H601.54l2.92,3.61,2.07,5.41c3.77-.63,7.6-1,11.31-1.93,9-2.19,17.76-.95,26.52.2,0,.84-.05,1.68-.08,2.53l-22.83,2.15c.12.31.38,1,.65,1.62-3.94,1.59-3.94,1.59-17.9-1.54,1,1.84,1.59,3,2.26,4.19l-1.33,1.22-14.21-9.2c-.33-.19-.67-.36-1-.52l-3.2.51c1,1.13,1.62,1.85,2.24,2.58s1.24,1.51,2.71,3.32c-11.32-5.34-11.32-5.34-13.94-3.41,3.81,7.37,10.53,7.82,17.78,8l-5.67,1.35c5.94,5.89,13.94-3.86,19.23,3.35l20-8.52.57,1.48-14.32,5.93c4.18.05,9.2.11,12-2.35a22.37,22.37,0,0,1,13.24-5.68c-17.15,13.12-28.89,24.59-30.18,29.46-1.92,7.21-29.39,24.61-61.44,44.78.54-1.23.35-2.52-1.26-3.67-3.34-2.39-8.19-6.61-11.24-3.61-2.11,2.08-7.15,4.92-5,11.09a8.47,8.47,0,0,1-1,7.88c-4.93,3.14-9.89,6.3-14.79,9.47h0c-5.2.94-6.94-4-9-7.17-8.93-13.55-8.1-29-6.19-44,.85-6.65,7.24-10.29,14.43-9.3,3.56.49,6.66-.26,9.94-1,1.55-.36,3.39-.35,3.33-2.47-.06-2.6-2.24-2.78-4-2.52a57.1,57.1,0,0,1-14.89.19c-4.29-.48-5.41-2.22-3.71-6.24,1.29-3.05,3.73-8.39,2.81-9.12-4.68-3.69-3.44-7.63-2.3-12a2,2,0,0,0-2.09-2.6c-2.12.18-2.14,1.43-1.66,3.34,2.62,10.2,2.55,10.21-8.55,10.45a14.88,14.88,0,0,1,3.3,9.53c-.12,5.51-2.38,9.74-7.2,12.14s-7.54-1.64-11.05-3.87c-9.53-6.07-7.72-16.11-9.35-24.95-.3-1.62,1.29-4.13-1.45-4.5-2.44-.33-2.55,2.12-2.86,3.89-1,5.74-3.36,8.54-8.79,3.78-3.24-2.84-4.05.08-5.87,1.62,2.33,1.42,4.14,2.45,5.88,3.6,3.46,2.28,8.18,4.25,7,9.31s-6.2,3.62-10,4.18c-4.65.69-7.57,3.45-9.1,8.43,23.32-10.41,25.74-4.21,35.43,10.33,3.34,5,1.54,7.19-4,7.3-1.49,0-3.1-.8-4.48.78,1.45,2.72,4.58,1.95,6.79,3.07,5.48,2.78,8.38,10,5.67,16.6-2.25,5.43-7,3.46-10.91,2.75-15.92-2.89-29.53-10.5-41.58-21a22.14,22.14,0,0,1-6.17-25c1.24-3.1,3.45-5.85,5.38-8.64,1.8-2.6,1.59-4.68-1.74-4.91-5.39-.37-11.08,5.86-11.33,11.84-.23,5.58-4,8-9,5.25a56.35,56.35,0,0,1-8.8-6.51c-3-2.49-5.31.8-8,.77-1.34,0-1.94,1.62-1.71,3.06.54,3.47,3.48,2.35,5.58,2.9,4.88,1.27,9.43,3.22,13.11,6.82,2.93,2.88,5.47,6.2,3.37,10.42s-5.81,5.87-10.53,5.12c-1.19-.19-2.23-1.53-3.62-.41-6.27,5.12-12.56,3.05-18.87.05-2.19-1.05-5-2.09-6.47.17-2,3.12,2.41,3.23,3.25,4.94,1.77,3.61,10.6,4.59,4.48,11.35-1.16,1.27-4.71,2.46-2,4.62,2.25,1.75,3.51-1.61,4.68-3,5.4-6.23,11.29-10.93,20.26-9.66,1.38.19,3-.62,4.4-1.26,8.34-3.85,21.75,2.35,27.06,12.57,3.24,6.25-.81,14.78-9.55,20-.52.31-1,.61-1.55.86q-3,0-6,.08a7.46,7.46,0,0,1-1.42-1.4c-2.49-3.12-5.6-2-8.66-1,.79.9,1.81,1.05,2.58,1.56.53.35,1.11.68,1.69,1-12.93.69-25.88,2.38-38.81,3.63-6.92.66-13.78,1.9-17.23,2.39,3.28-6.09,11.14-16.2,9.42-18.25-6.78-8-16-17.72-25.38-19-13.07-1.76-27.08,3.57-40.72,5.62-4.23.64-9.59,2.24-12.72.43-27.31-15.81-54.09-20.51-80.66,3.54l-3.62-3.84c4.14-9.15,7.73-18.61,12.57-27.38,6.26-11.35,3-20-9.54-22.62-14.2-3-46.86,16.33-50.66,30.32-.51,1.88,1.47,4.43,2.29,6.68,2.85-2.05,7.13-3.49,8.32-6.26,6.42-15,15.82-25.17,33.42-25.1,15.72.06,17.23,3.07,10.41,17-4.65,9.48-7.26,19.95-11.13,29.85a38.84,38.84,0,0,1-6,10.46c-5.57,6.73-11.64,13.06-17.5,19.55l6.13,5.66q1.09-6.63,2.2-13.27l5.12,4.16-4.83,13.31c2.53-1.29,4.32-2.2,6.12-3.1,5,18.63,10.53,37.14,14.59,56,.9,4.21-2.79,13.24-5.35,13.64-6.8,1-14.13-1.41-21.26-2.48,1.6-10.59-7.05-2.35-10.66-4.83-7.13-4.88-18.57-3.29-15.76-17.65.59-3-3.85-7-5.84-10.33-3.47,4.27-8.82,9.86-12.79,16.3-1.44,2.35-.78,7.66,1,10,5.86,7.75,12.92,14.59,19.11,22.11,34.39,41.79,114.37,33.38,137.89-14.87,4.21-8.65,6.24-18.36,9.34-27.79l46.22,6.87c-9,5.39-9.92,3-18.32,14.4Z"/></g></g></svg>