<svg xmlns="http://www.w3.org/2000/svg" width="100%" preserveAspectRatio="none" viewBox="2 0 1930.45 4350.72"><defs><style>.cls-1{fill:#104551;}</style></defs><title>Stone 2-4</title><g id="Layer_2" data-name="Layer 2"><g id="Layer_4" data-name="Layer 4"><g id="Stone_2_4" data-name="Stone 2/4"><path class="cls-1" d="M1769.72,1751.83c-27.41,67.37-20.13,120.56-45.13,183a86,86,0,0,1-.33-29.33c1-5.76,7.35-10.58,11.29-15.83-.57-.73-1.13-1.47-1.69-2.21l-9.51,6.32,2.76-16.77-3.86-.93c-3.72,12.16-7.43,24.32-12.41,40.63l-12.35-34.14c-.67,8.54-1.06,13.53-1.51,19.32l-16.9-8.51-1.54,2,7.16,8.21-9.69,4.27c15.12,1.68,30.14-.22,36.11,20.8h-28.54c8.05,4.55,17.06,3.59,23.78,7.08a65.12,65.12,0,0,1,12.88,9.33,268.31,268.31,0,0,1-15,28.54c-18.93,31.32-31.29,43.62-42.16,50.38,2.67-14.51,11.07-26,20.61-35.61,7.71-7.79,10.63-16.71,14.34-25.87,1.69-4.17,1.32-6.44-.45-9.37a57.43,57.43,0,0,1-12.4,29c.24-8.49,6.15-15.85,4.4-26.11l-6.75,21.29c-3.34-.82-1.69-4.22-4.28-4.85-1.26,1.18-.72,2.5-.14,3.78,1.58,3.46,1.37,7.2,1,10.75s-2,9-5.26,8.49c-4.91-.85-4,1.77-4.74,4.14a35.06,35.06,0,0,1-2.65,6.1c-1.59,2.93-3.11,3.12-4.15-.42-.28-.95-.49-2-1.77-2.16a2,2,0,0,0-.87,3c4.94,6.78.76,13.15-.74,19.63,0,.14-.07.29-.11.44-1.3.69-2.58,1.32-3.86,1.91-.54-.8,0-2.13.07-3.13.34-12.51-2.69-24.72-3.41-37.16-.33-5.57-.75-10.83,1.52-15.92a151.33,151.33,0,0,0,6.73-19.38c1.87-6.42,5.48-12.75,4.61-19.89-3.59,2.76-5.37,1.28-6.38-2.7-1.19-4.7-2.56-9.34-3.95-14-.35-1.18-1.16-2.26-2.68-1.72-1.28.45-1,1.41-.64,2.46,2.47,6.81,4.7,13.71,7.41,20.42a16,16,0,0,1,.16,11.76c-.5,1.42-.71,3.63-2.73,3.51-2.48-.15-2.09-2.46-2.34-4.22-1.37-9.66-3.56-19.13-8.68-27.53a51.39,51.39,0,0,1-5.27-12.14c-2.4-8-5-15.85-7.84-25-2.18,3.87-1,6-.4,8,3.44,11.62,6.72,23.29,12.56,34,.69,1.27,2.15,3.12.23,4.26-1.75,1-2.7-.78-3.76-2a33,33,0,0,1-7-13.82c-.76-3.18-2.3-6.17-3.49-9.25l-1.43.65c.83,2.62,1.64,5.25,2.48,7.87,2.86,8.85,5.31,18,15.24,21.94a3.68,3.68,0,0,1,1.82,2.28c3,12.46,7.4,24.89,1.68,37.73-.61,1.38-.81,3.48-3,3.18-1.6-.21-2.11-1.88-2.36-3.22-1.17-6.33-4.16-12.56-.57-19.85-4.14,5.5-4.89-.69-8.13-1.43,1.42,4.52,2.4,8.36,3.85,12,1.56,4,.51,6-3.6,6.48.95,1.17,1.36,2.71,3,3.42,9.07,3.89,10.35,12.16,11.17,20.55.12,1.31.74,3.54-1.89,3.65-5,.22-2.34,1.94-.86,3.76,4.39,5.45,5.69,11.78,5,18.62-.11,1.06-.28,2.08-1.44,2.37a2.51,2.51,0,0,1-2.92-1.62c-2.19-4.29-4.6-8.51-6.41-13-3.11-7.64-5.83-15.44-8.72-23.17,0,3.47.92,6.7,1.6,10,.41,2,3,4.46.25,5.78-2,1-3.94-1.31-5-3.43-.3-.57-.59-1.58-1.81-.77,0,2.54.87,5.13,3.29,5.91,5.94,1.93,8.13,7,10.23,11.84,2.23,5.15,5.6,9.57,8.37,14.33-3.45,1.47-7,3-10.76,4.94a9.61,9.61,0,0,1-1.69-7.42c.62-4.66-.44-8.83-3.93-14-.26,5.1,1.75,8.49,1,12-.27,1.16-.17,2.54-1.62,2.94s-2.32-.38-3.17-1.31c-1.36-1.49-3-2.93-2.82-5.15,1-11.68-5.67-20.7-10.47-30.37-3.18-6.42-6.21-12.77-1.89-20,1.54-2.57.86-5.63-.28-8.23-2.61-6-3.75-12.34-5.86-18.43-1.2-3.49-2.7-6.87-4.28-10.83-1.44,2.33-.43,3.57-.07,4.86,2.58,9.13,5.21,18.24,7.75,27.38.55,2,.81,4.59-1.31,5.4-2.45.95-3.4-1.76-4.1-3.48-2.1-5.24-3.76-10.66-5.9-15.88-.89-2.14-1.2-5.61-5.17-4.35a11.22,11.22,0,0,1,3,8.26c0,1-1.18,1.2-1.87,1-3.23-1.18-5.15-3.7-6.38-6.8-.3-.75-.39-1.58-.67-2.33-2.86-7.67-5.74-15.34-8.85-23.63-1,4.23,2.84,8.19-1.24,11.41-.83.66.1,1.52.82,1.81,3.84,1.51,4,5.28,5.24,8.39,2.66,6.57,5,13.33,12.85,15.82a5.06,5.06,0,0,1,3,2.8c2,7,8.18,11.95,9.12,19.54.46,3.74,2.79,7.07,4.4,10.56,3,6.54,7.75,12.41,8.3,20,.08,1.16.4,2.56-1,3.16a2.32,2.32,0,0,1-3.08-1.23c-3-8.92-12.87-14.76-11.6-25.65.15-1.22,0-2.93-1.91-3-1.83.84,1.1,5.13-2.84,3.88-2.36-.75-3.11-3-2-5.52a10.9,10.9,0,0,1,.45-1.12c2.52-4.53.2-7.92-2.28-11.71-1.57,2.06-.17,3.48-.08,5s1.07,3.35-.88,4.33-2.72-1-3.79-2.06c-4-4.09-5.27-9.42-6.83-14.65-.86-2.86-1-6.17-3.86-8.26-1.3,1.63-.62,2.78-.36,3.92a56.22,56.22,0,0,0,12.94,25.39c11.44,13.21,17.14,30.83,31.34,42.12a3.17,3.17,0,0,1,.79.92c.52.87,1,1.79.49,2.82-.7,1.34-2,1.3-3.16,1-4.69-1.28-9.28-2.57-12.12-7.23a35.38,35.38,0,0,0-6.36-8c-3.58-3.24-7.18-6.59-5.14-12.4.44-1.25-.53-3-2-3.89-1,1.83,1,4.29-1.26,5.62-3.46,2-3.32-3.45-6.25-3.13-.23,2.61,1.21,4.08,2.88,5.68,3.77,3.6,7.35,7.41,10.94,11.2,1.34,1.42,3.36,3.29,1.59,5.08-1.4,1.43-3.25-.45-4.76-1.42-9.24-6-15.33-14.86-21.57-23.51-2.37-3.28-4.26-7.35-1-11.75,2.23-3-.14-5.46-2.65-9.35.39,3.1.61,4.47.73,5.85.16,1.78.74,3.91-1.63,4.59-2,.56-2.61-1.5-3.72-2.56-2-2-2.34-5.43-5.8-7.2-.35,3.78,1.31,6,3,8.23,1.93,2.59,3.94,5.11,5.83,7.72,1.06,1.47,2.27,3.14,1.53,5-1.28,3.21-1.49,3.44,1.45,4.14,2.59.61,3.64,2.56,4.67,4.4,9.08,16.2,24.74,22.44,41.36,26.42,2.38.57,4.77,1,7.13,1.48a95.8,95.8,0,0,0-11.8,9.22c-.87.79-1.75,1.61-2.65,2.47h0a204.44,204.44,0,0,0-18.16,20.22c.34-1,.69-2.07,1-3.1L1599,2068q-1.95,4.49-3.91,9l-4.51,5.74q5.43-14.94,10.85-29.89l-2.12-.94c-4.21,10.38-8.43,20.76-13.41,33,.27-4.87.43-7.7.59-10.54l-1.71-.09-.78,16.9-1.62,2.1c.23-1.23.49-2.63.82-4.31a22.86,22.86,0,0,0-5.42,10.3q-4.2,5.49-8.46,11.13c-1.6-6.93-.17-13.81,2.58-20.7l-3.11,3.25c1.47-12.23,4.59-23.63,13.77-32.59l-2.1-1.25q-3.83,5.13-7.67,10.25l-.79-.5,15.62-26.83-1.51-.89-5.44,6.69-1.26-.92,14.19-19.69-1.63-1.19c-4.49,5.62-8,12.79-13.73,16.48-8.1,5.23-11.77,12.58-13.2,20.75-2,11.55-2.11,23.44-3,35.19-.12,1.64-.18,3.29-.26,4.94l-1.63-.05v-24.26l-1.66,0v20.6c-5.06-13.13-1.88-24.29,4-36.49l-7,4.57,15.8-34.76-2.29-1q-5.37,10.68-10.72,21.38l-1.11-.44,7.5-21.16-2.47-.85-8.56,23.67-1.92-.71q3.72-12.3,7.45-24.6c-8.63,9.17-11.61,19.7-8.86,31.71,1,4.43,2,8.86,2.77,13.34.08.45-1.76,1.22-1.82,1.26.71,6.26,1.39,12.14,2.06,18l-2.52.29q-1.61-17.3-3.2-34.6l-1.58-.13q-1.5,5-3,9.89l-1.72-.39,3.78-21.23-2.08-.33-5.3,14.51c-.43-3.65.55-6.94.74-10.29s-.4-6.8-.65-10.21h-2.42q-1.32,11.9-2.63,23.79a31.48,31.48,0,0,1-1.88-8.51c-.26-2.67-.3-5.37-.55-10.07-5,10.16-1.36,23.25,5.7,29.08,3.34,2.76,5.72,6.68,8.54,10.07l-1.67,1.23-4.93-7.11-1.56.78,3.07,9.46c-6.62,6.72-4.1,14.22-2.46,21.67l-2.73-5.5c-.24,4-.4,6.58-.56,9.16-1.49-2.92-1.47-5.84-2-8.64a42.31,42.31,0,0,0-2.45-6.53l-3.91.85v21.84l-1.32.08q-2.49-9.66-5-19.32l-2.08.52q3.4,14,6.83,28l-1.13.36c-2.87-6.88-5.73-13.76-8.76-21.05l-3.82,13.91-1.19-.25v-8c-.17-.93-.33-1.85-.49-2.78l-16.59-27-1,.37q7.57,16.49,15.13,33l-1.09.44-19.47-33.67-1.88.92,19.34,37.08-.24-.14c2,2,4,3.95,6,5.92l6,7.47c0,.56,0,1.12,0,1.69a50.15,50.15,0,0,1,5.43,3.36c2.19,1.73,3,3.47-1,3.8l-.06-1.2-.12-.11h-1l-1.93,0-1.5-.11,6.67,9.17c-8.27-1.53-13.85-6.34-17.68-13.81.17,1.65.35,3.3.64,6.07l-9.75-15.89c.33,3.46.47,4.81.6,6.17l-1,.23-4.91-9.56c-.29,2.31-.42,3.09-.47,3.87s0,1.65,0,4.07c-3.76-10.66-7-19.71-10.15-28.77l-1.51.45,3.06,12.32-1,.37-10.36-29-1.74.59c.56,3,1.13,6,1.7,9l-1.46.36-6.48-24.83c0,9.82-.53,19.68,2.07,28.65,2.38,8.21,8,15.51,12.35,23.12,2.34,4.06,5.06,7.91,7.61,11.86l-3,2.13L1468,2125.23c-.17,2.47-.28,4-.39,5.61-2.93-3.51-4.31-7.32-6-11-1.85-4-4-7.92-6-11.88-1.68-3.33-3.31-6.68-5-10-.61.37-1.22.74-1.84,1.1l6.48,16.73-1.81.82-7.36-14.16-2.44,1.35L1456,2125.4l-1.86.95L1439,2103c1.55,14.71,9.92,22.53,19.11,29.79-6.87,4.53,2.65,6.47,1.37,11.87l-14.21-17.27-1.8,1.28,8.3,14.39-15.5-14.47-2.35,2.55,18.86,18.14a86.88,86.88,0,0,1-8.43-4.2c-2.86-1.79-5.41-4.08-8.1-6.15,2.21,8.39,14.51,15.55,22.59,13.34s13.89,3.44,21,4.46c4.86.7,9.45,3.16,14.3,3.9,8.43,1.29,17,1.87,25.47,2.74l-.15,1.72h-21l2.92,3.6,2.06,5.42c3.78-.63,7.61-1,11.32-1.94a44,44,0,0,1,10.1-1.19l-4.18,5.86-2.32.22c.12.31.38.95.65,1.62-3.93,1.59-3.93,1.59-17.89-1.55.87,1.64,1.45,2.71,2,3.78l-1,1.73-14.34-9.29c-.33-.19-.66-.36-1-.52l-3.19.51c1,1.12,1.61,1.84,2.23,2.58s1.24,1.51,2.72,3.31c-11.32-5.34-11.32-5.34-13.94-3.41,3.82,7.38,10.52,7.83,17.78,8l-5.68,1.35c5.94,5.88,13.94-3.86,19.23,3.35l9.13-3.88c-.52.75-1,1.48-1.59,2.23h0c-.12.18-.25.35-.38.53-24.41,34.43-48.24,69.15-69.28,100.42,0-.27,0-.54-.07-.81l-.82.12c-.3,1.13-.6,2.25-.88,3.32l0,.12,0,0-2.32-3.06-1.65,8.33-1-.13c-.21-1.79-.43-3.59-.79-6.62-2,5-1.67,10.4-3.29,14.94a0,0,0,0,1,0,0,11.84,11.84,0,0,1-3.53,5.28,13.5,13.5,0,0,1-2.4,1.66c5.21-13,5.21-13,2.51-18.25-1,2.37-2,4.7-3.64,8.53-1.06-4.11-1.7-6.6-2.6-10.11-.81,6.21-1.45,11.12-2.32,17.82-1.74-3.28-2.45-4.61-3.3-6.19l-12.55,16.39c-1.72-8.52-3.28-16.31-5.2-25.88-6,13.77-10.05,25.73-3.77,38.87-12.36-7.34-5.13-18.64-6-27.74l-5,5.66c-1.42-10.63-2.61-19.59-3.81-28.56l-2.24.25c.31,4.23.81,8.46.85,12.69,0,1.86-.83,3.76-1.43,5.59s-2.12,3.88-2.07,5.79c.09,3.48,1,6.94,1.88,11.9-13.17-9.37-11-24.48-17-36-.44,7.83-.86,15.5-1.29,23.16l-1.22-.06c-1.16-5-2.32-10-3.28-14.15-1.18,2.73-2.49,5.76-4.28,9.92l2.24,6.1-8.35-4.2c-.56,2.3-2.27,5.68-1.42,6.57,2.57,2.65,6.06,4.48,9.34,6.36,4.06,2.34,8.28,4.4,12.44,6.58-.42.61-.84,1.22-1.25,1.84l-4-1.5c-.44.74-.87,1.48-1.3,2.22l12.23,8.43c-.13.36-.25.72-.37,1.09l-13-5.45c3.3,7.2,9.2,8.5,15.22,9.14,9.25,1,18.54,1.58,27.9,2.34l-4.53,10.61,1.34,2c1.28-.47,2.59-.9,3.91-1.33-20.3,31.2-33,51.66-33.11,53.06-2.39,26.11,6.29,42.92,2.4,51.33,0,0-16.31,6.21-27.5,14.68a40.45,40.45,0,0,1,4-6.17l-38.58,9.29c.29-10,24-4.23,15.7-19.48-31.73,4.49-58.75,14.46-68.6,49l-8-4.67-21.22,31-10-7.86c5.44,11.42,9.52,20,13.34,28q-2.88,1.72-5.52,3.52l-16-13.61c3.14,6.78,6,13,8.8,19-17.63,14.57-25.56,31.88-28.12,44.65a12.64,12.64,0,0,0-1.49-.29c-8.21-1.1-16.45-2-24.71-2.67-3.31-.27-6.37.71-6.7,4.53-1.76.16-4.31,0-4.42.48a45.72,45.72,0,0,0-1.4,9.93c0,.64,2.3,1.34,3.94,2.22,0,3.47,5.73,7.58,10.89,6.5,5.35-1.12,10.9-2.15,15.79-4.43a53.55,53.55,0,0,0,7.26-4.25,13.59,13.59,0,0,0,1,4.35,1244.52,1244.52,0,0,0-45.82,150.67c-11.5-9.75-18.91-21.53-12.19-40.2.36-1-2-2.77-2-4.17.07-6.15-1.25-13.27,1.41-18.14,2.38-4.39,9.29-6.31,14.21-9.31-.44-.8-.87-1.6-1.31-2.39l-15.47,4.08c-.4-1-.81-1.92-1.22-2.88l16.22-12.54c-.47-.89-1-1.77-1.43-2.65l-10.28,3.68c-.47-4.16-.9-8.09-1.34-12-7.45-1-3.65,22.36-16.63,2.68,2.79,10.94,4.78,18.73,7.41,29.06l-21.31-13.36c20.11,27.57,20.11,27.57,12.48,33.06l13.15,19.19-17.42-5.46c7.5,9.21,16,19.63,24.45,30l-4,3.53-19.13-5.9,5.55,8.67-38.92,2.34c.05,1.46.11,2.92.16,4.37l13.45,1.42c-4.35,5.59-8.15,10.46-11.94,15.34l2,1.47L1108,2781c1.09,1.68,2.17,3.37,3.25,5-4.56,3-9.34,5.74-13.64,9.09-3.88,3-7.25,6.69-10.84,10.08l2.62,2.9,10.94-5.68-1.89,13.47,2.14.4,8.67-19.6,6.59,10.79c1.89-21.49,7.85-29.37,25.47-27.13-5.82,26.2-10.91,54-14.33,82.08-11.3,92.7-3.86,162.44-4.87,178.14-.8,12.46-12.22,36.18-29.24,64.79-19.95,33.53-33,106.86-32.75,125.92.25,17.45.14,34.59-4.19,53,1.67,19.81,2.27,15.64,1.48,81.62-23.7-41-41.45-6.63-39.69-12.09,5.36-16.61-77.52-184.46-78.12-212.93-.23-11.07-43.53-3.27-74.84-19.1q5.76-4.08,11.47-8.23c10-7.29,21.21-12.71,29-23.19,4.38-5.85,11.91-9.36,18.06-13.86,3.2-2.35,5.61-4.77,2.07-9.28l-8,7.67c.23-2.91.37-4.6.5-6.3l-16.62,6.52c4.38,4.26,1.84,6.09-2.26,8.09a71.24,71.24,0,0,0-13.29,8.06c-6.74,5.36-13,11.32-19.46,17l-2-2.2c17.68-16.36,35.65-32.43,52.94-49.53l-5,1.9,6-8.23c-5.26,1.56-9,5.49-13,5.76s-8.5-3-13.54-5l-13.19,10.5-1.22-.75,9.06-10c-.4-.58-.81-1.15-1.21-1.72-4,2.81-8.12,5.38-11.83,8.48s-6.68,6.48-10,9.75l-3.8-3.84,29.26-23.9-1.34-1.48-3.71,1.78c-3.1-7.69-10.22-5.23-15.71-6.6,1.23-4.19,2.3-7.85,3.62-12.32l-10.07,2a15,15,0,0,0-.29,2.36c.41,8.61-.33,9.13-8.6,8.81-4.48-.17-9,.71-13.5,1.12l-1.78-.63,11.76-6.57-2.29-4.13-20.32,1.71-1.71-7c3.33-2.68,6.36-5.76,8.11-9.27A288.6,288.6,0,0,0,848,2971.92c5.1-15.28,3.09-32.54,12.61-46.7.37-.55.74-1.54.49-2-3.85-7.19.51-13.09,2.87-19.34,1.3-3.42,2.38-6.92,3.56-10.39l-1.83-.77c-1.72,2.83-3.43,5.66-5.51,9.1-.41-3-.67-4.93-.94-6.9l-1.77-.15-2.7,31.06-1.55-.16q-.93-2.11-1.85-4.24h-2.68c-.35,6.52-.7,13-1.08,20.1-.95-2.28-1.63-3.92-2.31-5.57l-1.57.41c-.26,2.31-.52,4.62-.8,7.05-.29-5.71,1.07-12.13-1.25-16.65-3.1-6-.39-10.86-.21-16.24.26-7.81.07-15.64.07-23.47l-3-.37q-2.58,19.48-5.15,39l-.85-.15v-22a29.44,29.44,0,0,0-6,13.71v-16.78l-3.26,1.62c-.39-2.53-.69-4.46-1-6.39l-3,.24,2.71,25-6.47-5.78-1.74,1.31c5.19,11.64,9.38,23.44,7.35,37.87-8.24-11.64-10.19-23.22-7.62-36l-2.69.09L807.91,2930l-1.42-.22v-12.39l-2.81.26,2.13,18.54-.39.08-.61.13-3-15.78c-.18-.78-.35-1.56-.53-2.33-11-48.33-20.16-90.77-18.95-90.77S764.58,2788,728.14,2702c.72.07,1.45.09,2.16.12s1.58-.36,2.33-.27c4.41.52,8.82,1.12,14.29,1.84-1.41-2.34-2.32-3.85-3.41-5.68l7-5.59c-.19-.39-.37-.78-.55-1.18-2.88.74-5.78,1.38-8.62,2.23-3.44,1-5.56.18-5.76-3.69-.21-4.2-2.21-4.48-5.64-3a13.26,13.26,0,0,1-5.67.66c-.78,0-1.57-.07-2.34-.07q-3.24-7.7-6.65-15.85c6.29-.62,12.44-2.11,18.28-7.84-3.93-1.07-6.6-2-9.35-2.48s-5.5-.45-8.47-.66c-1.4,2.19-2.17,3.4-3.39,3.95-10.52-25.26-92.15-53.63-104.84-85.21,4.5-2.06,8.37-5.4,12.42-10-4.48-1.39-7.84-2.81-11.34-3.42q-3.4-.6-6.84-1c-.72-1.83-1.46-3.66-2.19-5.51,3.92.84,7.85,1.67,11.8,2.33.59.1,1.47-1.51,2.26-2.38l4.61,2.7c.81-2.72,1.48-5,2.32-7.83-5.59,2-9.91.77-9.73-6.81l-12.93,7.81-6.4-16.13,3.41-3.1c-2,0-3.42-.14-4.66-.1q-4.26-10.74-8.63-21.92l1,.62c.43-.43.85-.86,1.27-1.3-1.09-2.25-2.19-4.51-3.42-7l6.79-6.28-.68-1.36c-2.5.41-5,.64-7.49,1.25a25.08,25.08,0,0,1-2.73.54q-16.59-42.54-35-91.09l7.93-5.09c.08,1.69.15,3.07.21,4.29,7.59-1.2,15.18-2.35,22.74-3.66,1-.16,2.38-1,2.56-1.72s-.66-2-1.34-2.84a9.65,9.65,0,0,0-2.75-2.11c-.81-.43-1.66-.81-2.52-1.17-2.13-3.38-5.18-3.59-8.39-3.61h-.12a13.48,13.48,0,0,1-4.8-5c-.21-.38-1.15-.37-2.42-.73a22.3,22.3,0,0,1-.38,4.5,9.25,9.25,0,0,1-1-.69c-.54,10-6.36,5-11.45,4.7l2.66,2.4a26.4,26.4,0,0,1-5.57-1.7s0,.09,0,.13q-2.12-5.61-4.25-11.3l.48-.23c.66-.31.47-2.43.6-3.2,1.62-.57,4.16-1.07,4.16-1.53a51.46,51.46,0,0,0-1.21-10.5c-.12-.53-2.8-.48-3.74-1.31-2.3-1.36-4.73-4.07-6.88-3.85l-1.08.11c-.26-.68-.51-1.35-.76-2,4.11-1.29,8.25-2.47,12.42-3.58a24,24,0,0,0,5,1.53,41,41,0,0,1,7.5,1.8c4.14,1.63,7.49.21,10.59-2.24.66-.52.63-1.92.92-2.92l.88.34c1-1.27,2.84-2.69,2.66-3.77a15.27,15.27,0,0,0-1.19-3.75c8.57,1.1,14.58-4.6,21.77-6.27-.2-.69-.39-1.38-.58-2.07l-15.84,5c-.09-.33-.19-.65-.28-1l5.62-3.1c-.18-.4-.35-.79-.52-1.19l-5.62,1.46c-.09-.82-.16-1.48-.2-1.79l-20.75,1.3,6.71-3.73c-5.38,1.79-11.2-3.61-16.13,1.1-.92.88-4.26,0-6-.92-5.56-2.89-5.48-3.06-9.86.34l-3.33,2.6c-.79-1.59-1.59-3.22-2.43-4.93l6.82-6c-.18-.47-.35-.92-.52-1.39,5.64-.55,11.64,0,17.37.27,7.11.29,14.11,1.06,20.47-3.29l-16,.88c0-.53-.11-1-.17-1.58l20-3.31-.39-2.13-34.87,5.35c0-.35-.11-.7-.16-1l49.46-12.84-.27-1.59-14.6,2.05c0-.8,0-1.6,0-2.4h25.19c0-.36,0-.72-.08-1.07l-7.84-1.23,19.61-4.4c-.21-1-.43-1.9-.64-2.84l-42.48,8.53c-.16-.49-.33-1-.5-1.47l27-9.52c-.28-.69-.55-1.38-.83-2.06l-34,12.05c-.12-.39-.25-.78-.37-1.17l35-16.12-.76-1.84c-20.77,7.1-40.32,17.27-62.17,27.57,2.28-3.42,3.3-5,4.63-6.93l-13.1,7.63-.93-1.55,16.62-11.56-2.29-.76c1-5.14,9.91-2.11,10.2-10.09l5-2.32c-.16-.42-.33-.84-.5-1.26l-6.92,1.74-8,4.81c2-7,3.27-11.88,8.58-14.67-1.25-10.06,9.92-5.87,12.69-11.4l-5.79-1.62,35.63-13.15-.78-2.17-19.6,5.85-.51-1.53,16.71-7.47-1.11-2.39-22.85,10.37a33.72,33.72,0,0,1,10-8.43c3.92-2,8.32-3.16,12.51-4.69-.38-1-.76-2-1.13-3-5.89,2.47-12.5,4-17.45,7.69s-8.4,9.87-12.68,14.77c-3.53,4-7.33,7.84-11,11.71a24.52,24.52,0,0,1-2.37,1.92l-1.32-1.24,15.77-19.71-.6-1.12-9,4.44-.91-1.5,17.39-11.65c-.34-.65-.69-1.29-1-1.93l-16.54,7.46c6.44-6.41,14.88-8,16.35-18-4.68,3.67-8,6.5-11.59,9-2.36,1.67-4.81,3.19-7.27,4.71,3.05-4,6.2-8.08,9.76-12.74-11.19,3.72-16.14,14.24-15.4,29-4.88.7-5.33,4.05-5.86,7.83-1,7.41-4.91,13.17-10.87,18.3,2.3-6.45,4.29-12.06,6.28-17.66l-2.25-.76L501.6,2286l-1.29-.58q1.51-4.48,3.05-9l-1-.43-7,13.09c-.35-.74-.7-1.49-1.06-2.23,5-5.4,3.81-11.13,1.88-18.38l-6.69,8.85c-.74-1.4-1.48-2.79-2.22-4.15.25-.52.51-1,.77-1.56l-1.31.59c-.4-.74-.82-1.48-1.24-2.22,6.71-3.93,12.11-9.43,14.89-18.27l-5.13,2.71-.46-.66,8.81-7h2.81l-1.09-1.36.51-.4-1.37-1.56c-.12.14-.25.28-.36.42l-1.69-2.12,6.29-10.27-.2-.12c14.4-4.21,10.52-23.73,18.36-33.57-12.37.24-24.32.4-34.51,4.72-7.73,3.27-13.46,11.29-20,17.45l8.08-11.21-1.62-1.18c-3,3.7-5.49,8.07-8.52,11.68-1.29-1.4-2.58-2.79-3.86-4.19l22.7-22.24-12.62-7.77,19.67-1.51-3.77-10.12,4.86,2.31c5-11.26,9.91-22.52,16.43-37.35l-27,12.46q-1.23-1.9-2.45-3.83c-.53,2.14-1.07,4.27-1.59,6.39a7.87,7.87,0,0,1,3.65,7.13,8,8,0,0,1-8.3,8,8.34,8.34,0,0,1-7.62-8.31.66.66,0,0,1,0-.14l-6.34-4.56,9.87-11.6-9.09,1.22c-3-5.4-5.79-10.58-8.54-15.59a8.57,8.57,0,0,1,.71,3.28,8.92,8.92,0,0,1-9.2,9.09,8.67,8.67,0,0,1-8.42-8.77,9.15,9.15,0,0,1,9-8.89,8.77,8.77,0,0,1,7.12,3.82c-2.78-5.08-5.48-10-8.17-14.93l-10.39,12.68-5.47-16.57-5.27,1.72c3-20.44-17.05-18.87-26-28.32,1.69,13.15-10.82,25.58,2,38.64,7.19,7.33,9.72,19.22,14.62,29.66a33.71,33.71,0,0,0-2.84,7.24c-.89,3.76-.76,7.76-1.08,11.66l-3.69-.2c-1.75-6.59-3.5-13.17-5.78-21.77l-7.73,14.49-3-3.25-17.28-91.88-4.33.71q2.85,13.77,5.68,27.54l-4.63,1.45L335,2001.43l-4.63,1.87c4.33,10.51,8.65,21,15.1,36.67L308,2005.32l-1.2,1.13c-53.33-133.8-42.75-273.39-43.36-300.14-11.44-49.46-24.74-103.93-24.2-112.61,1.79-28.47-30.36-34.19-19.72-46,5.56-22.8-1.82-87.22-11.37-152.87.1.32.2.63.31.94l15-4.6-16.14-18.51,36.59,6c.33-1.48.65-3,1-4.43l-15.32-5.32,7.35-12.11-26.73,11.32-3.78-5.38,16.54-23.85c-1.64-.14-4.9,0-7.85-.85-1.73-.52-4-4.1-4.27-3.93-3.29,2.5-8.69,5.21-8.94,8.25-.22,2.68-.41,5-.61,7.14C192.51,1293.32,184,1243.38,183,1227c-.18-2.92-.27-6.24-.3-9.89a7.18,7.18,0,0,1,2.46,1.64c4.8,4.56,9.76,9,7.91,16.77-.44,1.84-.58,3.7,1,5.12,1.44,1.27,1,5,3.85,4s.8-3.57.43-5.42c-2-10-.74-11.15,9.53-8.65,4,1,8,.89,13.24.15-4.28-4.21-9.29-2.56-12.9-4.75-2.11-1.28-5.79-.58-6.18-3.92s2.84-4.62,5.18-6.15c.78-.51,1.8-.66,2.59-1.56-3.07-1-6.18-2.17-8.66.94-2.92,3.66-5.94,2.3-9,.47a23.15,23.15,0,0,1-9.39-9.86c.07-3.49.18-7.17.32-11h0c5.59-9.69,18.48-15.44,26.58-11.7,1.38.63,3,1.45,4.38,1.26,9-1.27,14.87,3.43,20.25,9.65,1.17,1.36,2.44,4.72,4.68,3,2.75-2.15-.8-3.35-1.95-4.62-6.13-6.75,2.7-7.73,4.48-11.34.84-1.71,5.23-1.82,3.25-4.94-1.44-2.27-4.29-1.22-6.48-.18-6.3,3-12.59,5.08-18.86,0-1.38-1.13-2.42.22-3.62.41-4.71.75-8.46-1-10.51-5.13s.44-7.54,3.37-10.41c3.66-3.6,8.22-5.55,13.09-6.82,2.11-.55,5,.57,5.59-2.9.22-1.45-.37-3.08-1.71-3.07-2.72,0-5-3.26-8-.76a56.83,56.83,0,0,1-8.78,6.51c-5,2.72-8.8.33-9-5.25-.25-6-5.94-12.21-11.32-11.84a4.81,4.81,0,0,0-1.67.37c-.11,1.37-.23,2.74-.34,4.12l.28.42c1.93,2.79,4.13,5.54,5.36,8.64a22.12,22.12,0,0,1-6.16,25c-.65.57-1.3,1.13-2,1.67.66-11.63,1.53-23.85,2.48-35.73-1.17-1.89-1.21-3.44.34-4.12,2.83-34.33,6.25-64.92,7.25-68.9,2-7.86-11-18.86-8.27-18.86h0c-1.18-.88-3.5-4.22-4.64-15.22-2-18.86,15.07,4.18,19.8-2.91-8.53-26.09-29.25-47.27-24.91-47.27,1.54,0,36.21-30.44,7.65-68l8.37-7.7L191,906.47l-10.65,5.16c-1.3-1.68-2.64-3.38-4-5.08,9.68-12.75,26.2-10.19,41.45-13.4l-18.91-12.51,2.67-9.36-15.17-8c-3.64,13-7.17,25.69-10.71,38.34l-4.27-1.15c-.57-.69-1.14-1.39-1.72-2.08q5.7-21.68,11.41-43.35l-1.88-.78-8.8,14.63-15.7-9.4,8.48,15.82-13.71-2.57c5.16,6,10,11.54,13.08,17.25-6.51-7.52-13.48-15.12-20.87-22.62a199.28,199.28,0,0,1-15.44-17.54V831.61l-.71-.93c-15.13-21.53.6-50.65,30.05-56-6.76-13.3,7.34-15.37,13-20,3.83-3.11,13.08.44,21.79,1.16l10.46-16.1-17.7,6.34-8.9-25.25c-4.43,11.81-8.7,23.25-13,34.68l-6.51-2.68c2.86-7.07,5.73-14.14,9.36-23.12L153.9,736c-1.21-3.86-2.25-7.19-3.28-10.46-6.34,13.91,5.78,30.37-6,42.46l-6.88-.7q1.11-21.51,2.23-43l-2.37-.07-3.91,19.59-9.23-2.11c13.76,37.91,13.52,39.18-9.21,52.63-2.11-25.43-11.61-51.22,9.9-74.37l-7.34-2.81-10.86,17.76-6.25-13.14c-.54,14.78,1.7,28.09,3.93,41.4q3.47,20.64,6.9,41.27l-4.38,1.11q-3.75-14.34-7.49-28.67l-2.88.82c.14,2.26.36,4.66.69,7.19q1,5.45,2,10.91c-.89-3.86-1.53-7.51-2-10.91q-.63-3.51-1.27-7l.58-.17c-.7-11.18.54-18.82.41-21.57-.8-15.73-24.21-85.26-21.05-92.33s5.05-40.93,1.1-50.36S85.9,533.71,80,584c-1,8.13,0-49.52,5.92-50.31s-4-24.37-4.35-38.53-4.73-19.63-4.73-25.93-3.94-11-3.54-23.59-10.73-11.09-13.89-35.45,33.16-44.73,26.86-43.93-8.68-70.75-14.59-123.43-13-74.68-8.32-75.46S1.57,21.22,0,0L2.28,4350.72h1921l-2.26-2897C1909.84,1492.37,1820.32,1627.49,1769.72,1751.83ZM1486,2153.07c-6-3.71-12.15-7.24-18-11.24-2-1.39-1.56-7-6.28-3.29-1.11-1.9-2.24-3.8-3.35-5.71,5.48.67,5.27,1.1,12.54,8.77,3.18,3.36,8.12,5.05,12.26,7.51l3.74,2.24ZM843,2958.05l2.91.9-4.8,20.09-2.47-.58Q840.77,2968.25,843,2958.05Zm-5.69-28.82.9-.09v29.77l-2.68-.15Q836.38,2944,837.27,2929.23ZM105.72,815.2c6.42,4.48,9.5,12.12,11.17,21.29A141.42,141.42,0,0,1,105.72,815.2ZM314,2024.19q-1.65-4-3.27-7.93c28.95,26,50.47,56.68,61.08,94.33l-4.51,2.82q-16.4-27.4-32.79-54.82Q324.26,2041.4,314,2024.19Zm31,290.24,0,0,.2-.13.11.19ZM384,2144.88c-.33,1.2-.65,2.32-.95,3.39a287.29,287.29,0,0,1-31.51-44.37C365.35,2114.08,377.4,2126.37,384,2144.88Zm24.19,32.31-25.89,4.93c-.12-1.31-.25-2.73-.39-4.34l-9,5.4-.78-1.11c.8-1.75,1.6-3.5,2.87-6.25l-6.21-3.33c4.88-.8,9.33.47,12-1.16s3.67-6.2,5.75-10.16c.87.66,2.69,1.35,3.32,2.63,1.67,3.38,4.64,4.09,7.77,5.28,3.84,1.45,7.33,3.88,11,5.88Zm10.28-26.68c-2-3-4.21-4.89-4-6.44s2.6-3.71,4.32-4c1.09-.19,3.78,2.51,3.78,3.92C422.51,2145.71,420.47,2147.45,418.42,2150.51Zm37.23,71.8c-1.27.11-2.73-1.89-5.22-3.82,2.65-1.71,4.26-3.54,5.55-3.35s3.38,2.47,3.28,3.68S457,2222.18,455.65,2222.31Zm43.17,25.27.45-.73h1.29C500.07,2247.06,499.49,2247.27,498.82,2247.58Zm6.07-15.47-4.6,7.15c-2.06-2.58-4-5-6.28-7.87A37.68,37.68,0,0,0,504.89,2232.11Zm-28,24.2c0-.16,0-.32.07-.47q.7-4.55,1.43-9h2.34L477,2256A3.65,3.65,0,0,0,476.85,2256.31Zm5.49,8.34c1.74-5.22,3.29-9.87,4.83-14.52l-1.38-.52q-2.62,6-5.24,12l-1.39-2.25,4.56-12.56H495.4c-4,6.22-8.07,12.55-12.29,19.13Zm55.22,134.57,4.4,4.2c-.52,1.12-1,2.22-1.55,3.33ZM826.5,2932.79c.42,5.12.85,10.16,0,15.05Zm.68,28.26,2.53-.28,2.79,25.49-2.37.29C824.3,2978.64,827,2969.69,827.18,2961.05Zm-7.86,8.93c-2.07-5.17-4.14-10.34-6.32-15.8C821.72,2956.46,819.14,2963.88,819.32,2970Zm-6.28-.87c1.06,2.58,2.17,5.13,3.42,7.61,3.72,7.38,11.11,13.18,9.27,24.8l-9.14-17.24C815.42,2979.33,814.24,2974.26,813,2969.11Zm20.5,84.32c-.16-.55-.33-1.17-.52-1.87,2.47-2.13,5.63-3.81,8.51-6,1.51,7.79,2.93,15.1,4.21,21.68q-6.11,3.24-12.25,6.47A110.25,110.25,0,0,1,833.54,3053.43Zm25.3,40.37c-3.48,2.81-6.83,6.94-13.49,1.19,7-5.46,13.47-10.49,19.92-15.53s12.7-9.92,19.37-14.71c-5.39,6-4.27,16.17-14.34,19.62C865.92,3085.86,862.72,3090.67,858.84,3093.8Zm568.05-484.16c-3.5.47-4.6-.85-5.22-5.3C1423.43,2606,1425.17,2607.73,1426.89,2609.64Zm57.88,136.94c-.9,11.3-5.44,22.35-9.9,32.9-13.86,32.78-4.58,4.52-19.17,36.84-16.15,35.76-52.38-10.75-77.51,13.41-23.7,22.77-43.53,59-69.22,57s-21.11,21.6-49.3,13.16c0,0-39.28-26.19-43.13-38.4-5.07-16.08-21.62-38.41-16.89-57.36,13.89-55.71,0,0,23.83-51.29,9.68-20.84,19.35-55.53,30.72-86.77l2.17.09c.72-1.57,1.53-3.12,2.37-4.67h0c1.43,3.17,3.09,3.35,5.48.42s6.81-3.74,9.53-1.85l11.19-9.15c-4.29-6.6-10.7-6.58-17.25-6.56-.5,0-1,0-1.53,0,0-.17.06-.35.09-.52,2.18-14.51,7.92-21.92,24.4-17-.07-1.59-.13-3.19-.2-4.79l-15.08-2.45a65,65,0,0,1,12.2-14.78l.05,0c.59-.5,1.17-1,1.77-1.42l.37,1.3,3.91-2.23c5.11,2.4,10-.18,14.94-.36.11-.51.23-1,.34-1.53l-4.43-2.61,15-4.43c3.63,2.39,6.48,4.51,9.61,6,2.59,1.25,5.6,1.69,8.48,2.26,3,.61,8.06-2.86,8.64-5.89,1-5-3.49-6.73-6.31-7-1.42-.11-2.85-.2-4.29-.21l13.36-3.95c23.9.82,47.23,0,67.58,15.42-.34.1-.7.21-1.08.34a26.13,26.13,0,0,1-8.94,1.26c-5.62-.11-11,.17-15.5,4.47h0a38.75,38.75,0,0,1-8.55-1.12c-2.9-.8-4.57-.5-4.66,2.83-.14,5.43-3.16,5.77-7.38,4.35-2.48-.84-5-1.41-7.56-2.11l-.64,1.14,7.14,6-3.25,5.75,16.67-2c1,3,2.47,2.25,4.42-.05,2.32-2.74,5.12-3.56,8-1.45l4-3.35,1.41,1.29c2.7-2.08,6.83-1.28,9.74,2a7.89,7.89,0,0,0,3.63,1.81c.2.06.9-1.58,1.4-2.49l9.67,2.91-.89-2.71,5.57,1.88c-2.23.4-4.46.84-6.67,1.33-5.82,1.29-6,3.17-1.1,6.82a75.83,75.83,0,0,0,14.33,8.75,42.82,42.82,0,0,0,8.39,2.51c9.85,23.21,18.49,51.87,27.31,65.3C1479.35,2716.57,1486.08,2730,1484.77,2746.58Zm52.11-592.36a9.36,9.36,0,0,0-2.57-2c-7.3-3.74-2-9.36-3.69-13.77s-1.62-9.65-2.49-15.72c7,3.12,10.82,5.34,7.46,12.27-1,2,2,6.89,4.38,9.31a15.54,15.54,0,0,0,2.59,2.1Zm22.24-30.28-8.28-14.09,2.15-1.12c1.71,4.78,5.38,8.59,7.76,13Zm284.18,543.64-.1-.07s0,0,0,0l.13-.11h0Z"/><path class="cls-1" d="M1123.43,2941c-1.86.32-4.58.31-4.72.9a41.67,41.67,0,0,0-1,10c0,.44,2.81.85,3.41,1,.92,1.79,1.32,3.81,2.55,4.7,4,2.91,8.39,3.87,13,.91a6.6,6.6,0,0,1,3.65-1.37c10,.89,16.33-5.44,22.87-11.3.53-.48,0-3.37-.76-3.81a21.48,21.48,0,0,0-7.43-2.72c-8-1.17-16.11-2.22-24.21-2.86C1126,2936,1124.5,2937.44,1123.43,2941Z"/><path class="cls-1" d="M1076.17,2928.23c-.23-3.92-3.73-4.81-6.72-4.47-10.19,1.17-20.39,2.55-30.43,4.61-5.1,1.05-5.17,2.76-1.32,6.08,6.35,5.47,12.72,10.81,22,9.93,1.27-.12,2.68,1.17,4,1.82,5.9,2.89,11.37.9,14.22-5.17a2,2,0,0,1,.84-.84,7,7,0,0,0,2-11.24C1079.92,2928.16,1078,2928.48,1076.17,2928.23Z"/><path class="cls-1" d="M966.91,2849.1c-.68,1.18-2.37,2-3.79,2.52-2.63,1.05-5.37,1.83-8.18,2.76l2,6.11-5.21-3.17c.13.31.26.62.4.93l-6.52,5.81,3.26,6.73-1.26,1.28L936.52,2865v6.39c-3.91-1.17-7.41-2.49-11-3.22-3.84-.78-7.79-1-11.7-1.47a31,31,0,0,1-5.39-.76,6.12,6.12,0,0,1-3.4-2.37c-.33-.58.72-2.6,1.63-3.11A85.12,85.12,0,0,1,919.4,2854c2.48-.91,4.6-1.53,6.12-3.7a4,4,0,0,0-.1-1.4c-.58-2.1-3.64-3.52-5.62-5.24l.74-1.2a44.7,44.7,0,0,1,5.81.64,21.58,21.58,0,0,0,5.68.8h.06c3.2-.18,4.53-2.24,6.1-7.45.57-1.88.87-3.85,1.63-7.29,2.49,2.23,4.88,3.49,5.88,5.46,1.64,3.24,4.18,4,7.27,5.05a67.26,67.26,0,0,1,11.93,5.92C966,2846.25,967.26,2848.48,966.91,2849.1Z"/><path class="cls-1" d="M883.29,2714.74c.17-2.22.24-3.13.32-4.19l10.16,3.11c-.16-1.09-.27-1.8-.38-2.54l10.08,3.15.81-1.17-4.08-6.42,9.31-7.6-.76-1.28c-3.93,1-7.85,2.12-11.8,3.12-4.18,1.06-6.56,0-6.83-4.93-.3-5.57-1.38-5.85-6.54-4.07a23.94,23.94,0,0,1-8.5,1.13c-6.85-.29-13.27.18-18.21,6.53l10.47,8.81c3.79.25,6.76-.17,9.18.79S880.61,2712.44,883.29,2714.74Z"/><path class="cls-1" d="M834.08,2618.87a103.16,103.16,0,0,1-3,9.93c-1.53,3.72-4,5.89-8.58,4.26-2.67-.95-5.63-1.08-8.46-1.58l-.78,1.46,6.83,6.18c-1.13,2.24-2.28,4.54-3.42,6.83l1.09,1.41,11.5-7.14v5.57c9.56-1.55,18.68-2.95,27.77-4.58,1.77-.32,3.38-1.51,5.07-2.3a41.64,41.64,0,0,0-3.25-5,10.17,10.17,0,0,0-3.33-2.15c-6.54-3.22-14.84-3.61-18.47-11.59C836.74,2619.55,835.33,2619.4,834.08,2618.87Z"/><path class="cls-1" d="M1033.63,2860.16l.27.3-.45-.12,0-.1Z"/><path class="cls-1" d="M1028.93,2858.62c-.8-1.81-1.61-3.65-2.48-5.6l6.41-5.66c-.17-.47-.34-1-.52-1.42a60.54,60.54,0,0,0-6.33.84c-7.19,1.74-9,.81-11.33-6.26-.69-2.16-1.07-4.43-1.82-7.59-2.15,1.73-4.33,2.7-5.24,4.37-2,3.66-4.77,5.21-8.77,6.18-3.76.91-7.27,3.18-10.61,5.29-1.24.77-1.68,2.8-2.49,4.26,1.38.69,2.7,1.75,4.16,2,1.73.3,3.49.4,5.25.53a12.74,12.74,0,0,0-2.82,2.78l9.33,7.76c2.93-1.76,5.67-1,8.37,1.65.72.71,2.6.29,4,.33.78,0,1.59-.17,2.36-.07,4.63.58,9.26,1.22,14.86,2-1.57-2.42-2.68-4.13-4.07-6.29l6.35-3.45c.33-.86.68-1.76,1.36-3.54C1032.57,2857.43,1030.71,2858.07,1028.93,2858.62Zm-9.4-3.16,6.21,4C1021.89,2860.31,1020.41,2859.31,1019.53,2855.46Z"/><path class="cls-1" d="M1084.84,2861.45l-12.21,10.15c-2.37-1.78-7.66-1.51-9.2,1.19-2.39,4.18-4.06,2.14-6.08-.36-2.82,1.4-5.76,3.07-9.58.8l-8.54,3c-.27-.38-.53-.77-.79-1.16l3.41-5.58-7.95-9c2.88.81,5.77,1.59,8.63,2.44,6.54,1.94,7.89,1,9.41-5.29.35-1.44,2.91-3.78,3.26-3.59,6.27,3.54,13.18.83,19.52,2.31C1078.09,2857.12,1081.08,2859.49,1084.84,2861.45Z"/><path class="cls-1" d="M932.09,2843.94H932l.05,0S932.09,2843.93,932.09,2843.94Z"/><path class="cls-1" d="M1204.13,2933.49l6.38,5.48-3.22,6.83,1,1.27,11.11-6.87c.14,2.05.26,3.91.35,5.18,9.3-1.45,18.47-2.79,27.61-4.37a5.91,5.91,0,0,0,3.78-2.49c.35-.6-1-2.87-2-3.46a88.78,88.78,0,0,0-12.92-6.15c-2.61-.92-4.58-1.71-6-4.33-1.18-2.11-3.54-3.56-5.89-5.8-1.24,4.19-2,7.39-3.13,10.4-1.45,3.69-4,5.42-8.27,4.12a71.6,71.6,0,0,0-8-1.55Z"/><path class="cls-1" d="M955.78,2946.45c6.38,5.63,11.62,11.26,20.27,11.3a12,12,0,0,1,4.61,1.41c5.09,2.35,8.24,0,12.5-3.69s4.85-6.92,2.11-10.25c-2.07-2.5-6.22-4.8-9.32-4.64-8.53.43-17,2.14-25.49,3.5C959.13,2944.29,957.92,2945.33,955.78,2946.45Z"/><path class="cls-1" d="M1008.27,2829.16c-5.13-1.39-9.57-2.91-14.14-3.77a60.21,60.21,0,0,0-13.36-1.27c-2.61.09-5.16,1.87-7.72,2.94-.47.2-.77.85-1.24,1-3.75,1-6.34,5.3-4,8.1,2.57,3.09,6.42,5.11,9.73,7.59a.71.71,0,0,0,.48.07C989,2841.91,1000.17,2840.46,1008.27,2829.16Z"/><path class="cls-1" d="M839.65,2756.54c6.77,5.95,12,11.8,20.83,11.31a3.53,3.53,0,0,1,1.92.33c6.17,3.67,10.46,2.72,15.63-3,3.05-3.4,2.89-5.55,1.94-8.67-.28-.9-2-1.42-3.07-2-.44-.23-1.43,0-1.51-.22-1.86-5.12-6.17-3.76-9.72-3.37-6.88.76-13.72,2-20.54,3.15C843.62,2754.29,842.24,2755.32,839.65,2756.54Z"/><path class="cls-1" d="M1045.73,2907.93c-4.88-1.33-9.3-2.77-13.83-3.71a53.52,53.52,0,0,0-9.89-.91c-4.18-.06-9.18-2.56-11.68,3.36-5.7-.81-5.36,3.54-5.23,6.79.21,5.07,9,10.45,14,9.09,3.28-.9,6.6-1.67,9.93-2.35C1034.26,2919.11,1041.3,2914.28,1045.73,2907.93Z"/><path class="cls-1" d="M785.16,2742.72c2.16.73,4.46,1.77,7.37,2.81-6.91,6.11-12.16,11.68-20.79,11.22-1.33-.08-2.77.94-4.08,1.6-3.78,1.94-7.09.77-10.16-1.53-1.5-1.13-3.34-2.31-4-3.9a10.23,10.23,0,0,1-.44-6.12c.29-1.21,2.16-2.05,3.36-3a8.25,8.25,0,0,1,1.65-1c.32-.15.64-.32,1-.49l1-1.53-9.23-7.5c.26-.45.51-.91.77-1.37,3.4,1,6.8,1.95,10.21,2.87,5.35,1.46,8.72.9,8.42-5.59-.17-3.78,1.66-4.71,5.46-3.54a42.71,42.71,0,0,0,11,1.46c6.32.22,12.43.64,16.61,6.65l-11.55,9.78A6.62,6.62,0,0,0,785.16,2742.72Z"/><path class="cls-1" d="M918,2634c-3.16-1.24-5.35-2.6-7.7-2.95-7-1-14.14-1.87-21.24-2.34-1.6-.1-3.34,1.54-5,2.45-.56.32-1.15,1.3-1.5,1.19-4.44-1.31-3.66,2.75-4,4.49-.27,1.52,1.33,3.41,2.21,5.07.27.5,1.12.7,1.33,1.19,1.91,4.55,5.79,5,9.84,4.47a71.21,71.21,0,0,0,9.37-2.22C907.84,2643.61,912.86,2639.76,918,2634Z"/><path class="cls-1" d="M826.73,2714.75c-1.12,2.17-1.92,6.28-4.09,7.22-2.34,1-6-1-9-1.66a4.9,4.9,0,0,0-3.37.3l7.17,6.1c-.88,1.5-1.83,3.14-2.84,4.88.59.4,1,.93,1.34.88,4.5-.67,9-1.43,13.49-2.14.54-.08,1.47-.16,1.62.1,1.81,3.06,2.67,1,4.48-.24,2.12-1.48,5.09-1.75,8-1.41l9.11-7.6c-2.43-4-6-5.24-10.14-5.44C837.44,2715.5,832.45,2715.12,826.73,2714.75Z"/><path class="cls-1" d="M909.86,2843.55l-9.12,7.62c-2.89.32-5.08.15-6.94.85-2.57,1-3.86,3.56-8,1.83-3.34-1.4-8.34,1.22-12.62,2a9,9,0,0,1-2.64-.52l3.22-5.33c-2.48-2.06-4.82-4-7.16-6l.53-1c2.3.61,4.61,1.18,6.89,1.82,5.37,1.51,6.41,1.22,7.82-3.2.13-.39.26-.81.39-1.27a3,3,0,0,1,.17-.44l0-.06q.41-.83.78-1.62l-4.29-3.7c4.75-.15,10.43,4.14,10.83-5.58,5.38,4.35,12.67-.89,17,5.55a17.76,17.76,0,0,1-6.73,4.74l.6.12C903.58,2839.93,906.27,2841.85,909.86,2843.55Z"/><path class="cls-1" d="M862.44,2650.92c-.23.09-1.13.17-1.36.61-3.26,6.24-9.81,7.14-15.4,9.6a7.77,7.77,0,0,0-2.51,1.61,43.42,43.42,0,0,0-2.93,3.76c1.51.76,3,1.92,4.55,2.21,7.21,1.33,14.48,2.42,22,3.64.08-1.24.18-2.76.28-4.47l9.15,5.82,1-1c-.81-1.84-1.62-3.68-2.53-5.77l5.85-5.17c-4.77,0-9.46,1.34-12.3-.38S864.48,2654.91,862.44,2650.92Z"/><path class="cls-1" d="M829.69,2899.75l9.19-5.78c.1,1.87.18,3.4.24,4.43,7.37-1.17,14.62-2.23,21.82-3.54,1.62-.29,3.09-1.43,4.64-2.18a42.72,42.72,0,0,0-3.17-4.11,10.29,10.29,0,0,0-3-1.78c-5-2.37-11.33-2.65-14-8.81-.26-.58-1.66-.66-3.37-1.28.42,12.2-6.42,13.37-16.34,9.65.08.58.15,1.16.23,1.74l5.33,4.93-2.61,5.58Z"/><path class="cls-1" d="M953.53,2974.66l6.85-5.58-.48-1.11-6.71,1.8c-5.78,1.56-6.74,1-7.83-4.85a6.34,6.34,0,0,0-.41-1.43c-.12-.29-.42-.5-1.18-1.33-6.95,5.19-17.31-2-24.31,7l8.84,7.54c2.92-1.58,5.58-.79,8.24,1.58.77.68,2.55.22,3.87.25.71,0,1.43-.13,2.12,0,4.41.56,8.82,1.16,14.14,1.88C955.41,2978.08,954.46,2976.34,953.53,2974.66Z"/><path class="cls-1" d="M770.11,2661.83c-1.41-2.37-2.31-3.9-3.34-5.64l6.8-5.43-.48-1.19c-2.24.56-4.49,1.1-6.71,1.69-5.63,1.51-6.3,1.11-7.6-4.45a28.07,28.07,0,0,0-1.39-3.49c-7.31,5.63-17.85-1.74-24.59,7.43l8.92,7.6c2.88-1.72,5.53-1.24,8.11,1.48.67.7,2.53.3,3.85.35.82,0,1.65-.1,2.46,0C760.47,2660.66,764.8,2661.19,770.11,2661.83Z"/><path class="cls-1" d="M667.37,2490.8c-4.5-1.69-7.67-3.45-11-4-4.9-.81-9.94-.75-15.5-1.1a5,5,0,0,0-.62,1.42c-1.53,6.41-2.2,6.81-8.62,4.95a12.34,12.34,0,0,0-6.52-.5l6.86,5.66-3.06,5.27c4-.22,7.48-.41,11-.62,2.15-.13,4.5-2.61,6.47.53a7.11,7.11,0,0,0,2.7-1.5c2.41-2.82,5-3.56,7.83-1.59Z"/><path class="cls-1" d="M928.43,2890.46V2895c7.8-1.23,15.37-2.37,22.92-3.67,1.14-.2,2.81-.92,3.06-1.76s-.69-2.34-1.48-3.23a9.82,9.82,0,0,0-3.23-2.3c-5.7-2.62-12.31-3.74-15.86-9.88-.23-.4-1.18-.39-1.25-.41-1.87,3.71-2.8,8.46-5.62,10.26s-7.34.37-12.86.37l6.48,5.08-2.71,5.79c.28.41.57.81.85,1.21C921.73,2894.59,924.73,2892.75,928.43,2890.46Z"/><path class="cls-1" d="M968,2743.14c-.47-1-.92-2-1.4-3s-.87-1.75-1.35-2.71l6.58-5.47c-3.17,0-4.87-.28-6.45,0-6.75,1.4-8.56.39-10.26-6.16-.37-1.42-.63-2.88-1-4.72-1.28.59-2.82.79-3.16,1.54-2.46,5.31-7.71,6-12.23,8.09-2.89,1.35-5.06,4.21-7.56,6.39,3,.94,6,2.12,9.05,2.76,5.6,1.18,11.26,2,17.2,3.08.08-1,.19-2.56.34-4.57l9.23,5.83C967.3,2743.85,967.65,2743.5,968,2743.14Z"/><path class="cls-1" d="M870.06,2972.12c-1.17.5-2.09.6-2.31,1-3.12,6.11-9.4,7.1-14.89,9.39a12,12,0,0,0-3.71,2.49,14.26,14.26,0,0,0-1.93,3.21c1.19.66,2.32,1.7,3.6,1.93,7.41,1.33,14.86,2.48,22.56,3.73.08-1,.19-2.53.34-4.51,3.27,2.14,6.22,4.07,9.18,6l1.09-.87-2.61-6,5.21-4.43-.29-1.18a34.45,34.45,0,0,0-5.3.37c-6.09,1.33-8,.3-9.68-5.78C870.87,2975.91,870.56,2974.28,870.06,2972.12Z"/><path class="cls-1" d="M915.17,2934.29l6.68-5.48-.55-1.18c-2.11.53-4.23,1-6.32,1.6-6.14,1.75-6.59,1.49-8-4.42a9.17,9.17,0,0,0-.89-2c-6,.42-11.52.46-17,1.33-2.86.46-5.48,2.36-9,4l9.82,8.32c.07-.37.15-.73.22-1.09,2.52.75,5.37,1,7.47,2.4,1.79,1.19,2.71,3.57,4.51.2.12-.23,1.36.16,2.08.25l13.88,1.73Z"/><path class="cls-1" d="M495.62,2452.84l-.39,2.23L469.34,2460c-.12-1.31-.25-2.73-.39-4.34l-9,5.4-.78-1.11c.8-1.75,1.6-3.5,2.87-6.25l-6.21-3.33c4.88-.8,9.33.47,12-1.16s3.67-6.2,5.75-10.16c.87.66,2.69,1.35,3.32,2.63,1.67,3.38,4.64,4.09,7.77,5.28C488.5,2448.41,492,2450.84,495.62,2452.84Z"/><path class="cls-1" d="M862.65,2957.69c-7.89-2.21-15.21-5.11-23.16-1.7-2.48,1.06-5.3,2.87-3.71,5.6,1.48,2.53,4.88,5.9,7.12,5.68C850.09,2966.57,857.75,2965.64,862.65,2957.69Z"/><path class="cls-1" d="M949,2791.51c-8-2.05-15.84-5.66-24.23-.77-3.15,1.84-3.16,4.18-1.16,6.88,5.24,7.05,11.53,2.66,17.2,1.14,3.11-.83,5.71-3.6,8.54-5.49C949.22,2792.68,949.11,2792.1,949,2791.51Z"/><path class="cls-1" d="M726.88,2711.57c3.87,4.19,7.52,7.54,13.14,7.73a11.63,11.63,0,0,1,3.25,1c4.11,1.49,9.53-1.07,10.72-5.09.86-2.92-2.28-7.23-6.51-7.26C740.67,2707.85,733.63,2707.72,726.88,2711.57Z"/><path class="cls-1" d="M853.87,2866.91c-5.28-4-18.12-5.13-22.53-2.75-2.6,1.4-5.1,3.09-3.66,5.7s4.78,6,6.9,5.76C841.68,2874.79,849.36,2874,853.87,2866.91Z"/><path class="cls-1" d="M1518,2918.58c-8-1.89-15.85-5.61-24.25-.74-3.18,1.84-3.27,4.31-1.13,6.79,4.14,4.78,11.88,4.9,19.42.33a63.21,63.21,0,0,0,6.18-4.84C1518.19,2919.61,1518.12,2919.09,1518,2918.58Z"/><path class="cls-1" d="M802.09,2817.27c4.09,4.43,7.69,7.58,13.14,7.79,1.41.06,2.78.89,4.18,1.33,3.58,1.13,9-1.77,9.76-5.35,1.09-5-3.34-6.82-6.11-7.1C816.27,2813.25,809.27,2813.69,802.09,2817.27Z"/><path class="cls-1" d="M809.89,2702.64c-9-1.92-16.64-5.6-25-.94-3.62,2-3.2,4.41-1.34,6.68,2.79,3.4,5.76,4.79,11.06,3.15C800.14,2709.81,805.1,2708.22,809.89,2702.64Z"/><path class="cls-1" d="M544.09,2410.79a8.92,8.92,0,0,1-9.2,9.09,8.67,8.67,0,0,1-8.42-8.77,9.15,9.15,0,0,1,9-8.89,8.77,8.77,0,0,1,7.12,3.82.43.43,0,0,1,0,.07,8,8,0,0,1,.76,1.37s0,0,0,0A8.57,8.57,0,0,1,544.09,2410.79Z"/><path class="cls-1" d="M573.39,2438.49a8,8,0,0,1-8.3,8,8.34,8.34,0,0,1-7.62-8.31.66.66,0,0,1,0-.14,8.38,8.38,0,0,1,8.5-7.8,7.68,7.68,0,0,1,3.76,1.12A7.87,7.87,0,0,1,573.39,2438.49Z"/><path class="cls-1" d="M882.39,2839.85a3,3,0,0,0-.17.44c-.13.46-.26.88-.39,1.27l-.19-.11Z"/><path class="cls-1" d="M965.58,2908.19c7.3,7.4,16.39,6.66,25.47,7.74-.54-1.33-1-2.43-1.72-4.19l4.54-3.08-.63-.84-8.54,1.51c-.71-2.14-1.27-3.81-1.8-5.38-4.95.63-9.64,1.13-14.29,1.91C967.63,2906,966.83,2907.19,965.58,2908.19Z"/><path class="cls-1" d="M880.7,2909.19c7.09,7.23,16.18,6.31,25.28,7.56-3.13-4,.28-5.66,2.26-8.31-2.31.53-4.79,1.82-6.87,1.35-1.58-.36-2.64-3-4.46-5.22C892.67,2907.91,885.56,2902.88,880.7,2909.19Z"/><path class="cls-1" d="M789.81,2844.45l4,3.35-1.67,3.88c9.12-1,18.3-.17,25.27-7.55-4.64-6.15-11.65-1.5-16.95-4.86-.66,2-1.15,3.55-1.86,5.7l-8.41-1.29Z"/><path class="cls-1" d="M908,2949.57c-4.6-.48-11,5.73-11-4.93-5.51,4.21-12.82-1-17.32,5.52,6.89,7.17,16,6.37,25,7.39-.47-1.34-.87-2.49-1.29-3.72Z"/><path class="cls-1" d="M830.75,2662.7l-1.8-3.81,4.9-4.27-9.79,1.31c-.58-2-1-3.51-1.72-5.78-5.29,3.45-12.39-1.13-17.08,4.91C812.17,2662.48,821.36,2661.58,830.75,2662.7Z"/><path class="cls-1" d="M780.42,2636.28c-.87-1.6-1.4-2.58-2-3.8l5.13-4.53c-4.92,0-11.2,5.76-11.37-4l-17.21,3C761.65,2636.18,771,2635,780.42,2636.28Z"/><path class="cls-1" d="M892.7,2737c0,7.08-3.84,9.13-9.88,6.7.82,2.74,1.51,5.07,2.33,7.83l4.65-2.68,1.22,2.44,17.2-3.23.45-1.4Z"/><path class="cls-1" d="M841.35,2929.43l17.39,3.21.67-2.68,5,2.95c.71-2.59,1.38-5,2.16-7.88-6,2.53-9.56.12-9.79-6.75L840.91,2928C841.06,2928.49,841.2,2929,841.35,2929.43Z"/><path class="cls-1" d="M762.82,2679.61l17-3,.59-1.37-15.38-9.38c-1.11,2.1-1.77,5.12-3.63,6.34-1.66,1.11-4.63.24-6.9.24.69,2.28,1.41,4.68,2.31,7.65l4.89-3.32Z"/><path class="cls-1" d="M839.3,2782.33l17.13,3.12c.16-.68.37-1.54.65-2.69l5.69,3.3c-1-3.38-1-5.84,3.2-7.78-6.94,1.45-11.52.55-11.16-7.59-3.27,2.19-5.77,4-8.39,5.57s-5.2,2.87-7.81,4.29Z"/><path class="cls-1" d="M764.31,2772c1.07,3.4,1.78,5.65,2.69,8.5l4.9-2.89.71,2.7,17.23-3.17.59-1.31-15.63-9.71C773.7,2771.62,771.72,2776.53,764.31,2772Z"/><path class="cls-1" d="M1930.45,2945.23l-.06.23-.1-.07Z"/><path class="cls-1" d="M925.17,2918.78c-1.8,6.72-1.8,6.72-10.13,7,.74,2.15,1.5,4.4,2.47,7.22l3.32-1.8c7.31,2.75,13.23-1.5,19.4-1l.66-1.68Z"/><path class="cls-1" d="M877.5,2797.61c-6.3-2-12.32-4.27-18.65-1.53-1.51.65-3.53,4-3.19,4.4,1.61,2.06,4.2,5.21,6,4.94C867.32,2804.57,873.65,2804.1,877.5,2797.61Z"/><path class="cls-1" d="M1383.76,2906.54c4.44,7.43,10.65,7.72,16.09,8.67,1.78.31,4.23-3.2,6.38-5-1.75-1.84-3.43-5.16-5.24-5.23C1395.58,2904.81,1390.13,2905.88,1383.76,2906.54Z"/><path class="cls-1" d="M1446.24,2888.58c-6.51-.66-12.11-1.66-17.68-1.51-1.72,0-3.36,3.24-5,5,2.13,1.84,4.52,5.45,6.33,5.19C1435.47,2896.41,1441.74,2895.85,1446.24,2888.58Z"/><path class="cls-1" d="M946.36,2932.53c5.55-.22,10.93,2.91,16.55,1.51l.11-1.34,4.54,2.57,2.26-6.75c-7.46-.21-7.46-.21-9.6-6.29l-14.44,8.45C946,2931.3,946.17,2931.91,946.36,2932.53Z"/><path class="cls-1" d="M812.56,2781.44l2.92,6.3c6.25-.43,13.46-.13,19.26-5.79-3.67-5.3-9.53-1.51-13.88-4.11-.55,1.74-1,3.1-1.56,4.88Z"/><path class="cls-1" d="M509.6,2421.85c0,1.74-2,3.48-4.09,6.54-2-3-4.21-4.89-4-6.44s2.6-3.71,4.32-4C506.91,2417.74,509.6,2420.44,509.6,2421.85Z"/><path class="cls-1" d="M1930.44,2945.24l-.15.15s0,0,0,0Z"/><path class="cls-1" d="M546.35,2496.7c-.1,1.33-2.22,3.36-3.61,3.49s-2.73-1.89-5.22-3.82c2.65-1.71,4.26-3.54,5.55-3.35S546.45,2495.49,546.35,2496.7Z"/></g></g></g></svg>