<svg xmlns="http://www.w3.org/2000/svg" width="100%" preserveAspectRatio="none" viewBox="2 0 1928.48 5251.67"><defs><style>.cls-1{fill:#145a66;}</style></defs><title>Stone 1-4</title><g id="Layer_2" data-name="Layer 2"><g id="Layer_4" data-name="Layer 4"><g id="Stone_1_4" data-name="Stone 1/4"><path class="cls-1" d="M655.52,3457.45l0,0-.08-.07.06.21.09-.06S655.53,3457.46,655.52,3457.45ZM1289.22,3681a18.18,18.18,0,0,0,1.84,1.53c.4-.56.8-1.19,1.24-1.84Z"/><path class="cls-1" d="M1445.15,4181.47v-5.68l-11.56,7.22-1.23-1.3,3.44-7-6.81-6,.59-1.59c2.27.34,4.59.49,6.81,1,7.17,1.76,9,.84,11.41-6.23.73-2.19,1.11-4.49,2-8.33,2.67,2.57,4.69,4.66,6.87,6.56a27.58,27.58,0,0,0,5.22,3.75c4.67,2.43,9.53,4.48,14.15,7a4.3,4.3,0,0,1,1.61,3.6c-.11.82-1.83,1.77-3,2.06-2.54.63-5.17.88-7.77,1.3Z"/><path class="cls-1" d="M1370.91,4050.3c4.5-1.69,7.67-3.45,11-4,4.9-.81,9.94-.75,15.5-1.1a4.55,4.55,0,0,1,.62,1.41c1.53,6.42,2.2,6.81,8.62,5a12.34,12.34,0,0,1,6.52-.5l-6.86,5.66c.91,1.56,1.86,3.19,3.06,5.27-4-.23-7.48-.41-11-.62-2.15-.13-4.5-2.61-6.47.53a7.11,7.11,0,0,1-2.7-1.5c-2.41-2.82-5-3.56-7.83-1.59Z"/><path class="cls-1" d="M1480.8,3997.68a8.33,8.33,0,0,1-7.61,8.31,8.05,8.05,0,0,1-8.31-8c-.1-4.6,3-8.06,7.41-8.24A8.36,8.36,0,0,1,1480.8,3997.68Z"/><path class="cls-1" d="M6,2268.53h152.2c13.33-20.81,82.48-21.77,92.15-39.66,9.21-17,6.8-32.16,10.94-44.3,7.36-21.6-4.23-27.85-17.75-32.67,1.71-7.46,3.65-14.74,5.83-21.61a100,100,0,0,0,4.15-39.67c-.71-8.56-1.1-17.34-3.32-27.25-2.32,15.53.14,29.66-1,45.05-3.12-8.86-3.23-17.45-4.14-26.68-1.8,3.21-1.73,6-1.76,8.67a208.66,208.66,0,0,0,1.44,23.78,32.57,32.57,0,0,1-.8,12.29c-.32,1.12-.71,2.29-1.55,2.12-.69-.14-.78-1.32-.92-2.3-2.37-16.64-5.57-33-5.34-50.43.07-4.7,1.19-9.16,1.33-15.32a29.9,29.9,0,0,0-4.19,15.87,285.69,285.69,0,0,0,3.33,45.58c1.39,9.42,1.56,18.45-.71,27.22-1.42-.55-2.79-1.11-4.11-1.7a324.6,324.6,0,0,1-1.78-65.08,105.15,105.15,0,0,0-1.67-27.35,13.91,13.91,0,0,0-.67-2c0-.09-.2-.06-.5-.12-1.76,10.72-2.8,21.59-1.8,32.72.29,3.26-.13,6.34-.18,9.5,0,1.17,0,2.6-1,2.78s-1.13-1.11-1.46-2.22a132.09,132.09,0,0,1-5-27.28c-.13-1.56.83-5.16-2.17-3.44-1.4.8-.17-4.2-1.92-6.24a68.13,68.13,0,0,0,.15,33.25c.75,3.14,1.37,6.37,2.16,9.48,2,7.92,1.34,15.55-.69,23.14a84.58,84.58,0,0,0-2,10.16c-28.44-30.07-3.9-82.64-18.78-112.13-18.47-36.56-61.68-67.28-46.11-104.26,61.46,5.85,35.94-50.62,77.11-75.38,10.95-29.46,43.76-14.15-36-66.08,13.15-47.79,66.06-86,52.06-119.57a65.54,65.54,0,0,1,6.69,3.26c1.74,1,3.5,2.12,5.71,1.87a3.4,3.4,0,0,0,3.17-2.84c.29-1.32.11-2.9-1.42-3.11-3.65-.51-5.84-4.88-10.09-3.68a1.49,1.49,0,0,1-1.34-.56c-1.36-2.91-3.56-2.71-5.91-2.24-1.12-2.49-2.29-5-3.48-7.39a20.18,20.18,0,0,1,10.4-.56c5.07,1,5.89.21,4.9-4.88a8.7,8.7,0,0,1,.08-1.9c.05-1.59-.94-1.91-2.25-1.85s-2.3.92-3.39,1.6a16.8,16.8,0,0,1-12.2,2.68c-2.65-5.22-5.42-10.33-8.26-15.37a62.5,62.5,0,0,0,7.21-2.48c3.42-1.59,6.06-1.13,8.62,1.55,1.2,1.26,2.7,2.76,4.65,1.52,2.16-1.38,4.13-.8,6.2,0,5,1.85,10,3.79,15.12,5.46,3.24,1.07,6.32,2.89,9.92,2.52,3-.3,3.3-1.48,2.58-4.24-1.19-4.53-3.59-4.75-7.14-2.94a5.22,5.22,0,0,1-1.87.34,3.67,3.67,0,0,1-3.4-1.41c-1-1.46.53-1.94,1.36-2.6a1.32,1.32,0,0,0,.17-2.25c-1.9-1.86-.52-2.33,1.06-3.13,3.75-1.89,7.74-3.41,10.84-6.4,1.14-1.1,2.39-2.35,1.54-4-1-1.83-2.92-1.36-4.45-.86-1.35.44-2.58,1-4,.63-2.56-.72-3.65.23-4,2.92-.61,4.1-4.67,5.8-8.23,3.75-3.07-1.77-5.49-.79-6,2.71-.32,2.19-1.43,2.73-3.32,2.78a12,12,0,0,1-5.56-1.26c-1.71-.83-4.58-1.39-4.18-3.75.34-2,2.64-3.32,4.84-3.9a23.3,23.3,0,0,1,3-.46,4.39,4.39,0,0,0,3.07-1.38c1.89-2.26,3.7-4.5,6.93-5,1.06-.16,1.49-1.45,1.29-2.52-.63-3.27,1-5.61,2.92-7.94,1.2-1.49,2.29-3.06,3.4-4.63a2.43,2.43,0,0,0,0-3.18,2.21,2.21,0,0,0-3.15-.16c-2.85,2.69-8.2,3.15-7.88,8.76.07,1.2-1,1.64-2.15,1.68a1.87,1.87,0,0,1-2.1-1.77,19.43,19.43,0,0,1-.29-3.4,61.09,61.09,0,0,1,1.1-10.26,4.18,4.18,0,0,0-3-5.13c-2.38-.79-3.3,1.3-4.48,2.76-1.42,1.75-.26,3.36.17,5,.79,3.1,1.94,6.47-1.28,8.78-2.89,2.07-2.45,3.85-.25,5.84a5.37,5.37,0,0,1,1.55,6.6,6.9,6.9,0,0,1-7.41,4.27c-3.32-.44-5.59-.09-5.46,4.08a3.75,3.75,0,0,1-3.71,3.77c-2.84.24-5.54,1.59-8.38,2q-2.76-4.78-5.54-9.48l.34-.39a63.69,63.69,0,0,1,5.54-5.48h2c-.06-.57-.11-1.13-.17-1.67a29.9,29.9,0,0,0,7.22-9.28c1.15-2.51,4-4,2.63-7.35a2.44,2.44,0,0,0,.47-3.48c.17-.29.35-.57.52-.85a31.52,31.52,0,0,1,10.06-10.83c3.11-2,3.32-6.08.32-7.55-3.41-1.68-3.62-3.77-2.42-6.78a2.86,2.86,0,0,0-1.33-3.64c-1.49-1-2.36.29-3.27,1.09-1.07.95-2.3,2.24-1.92,3.58,1.22,4.28-.69,7.45-2.9,10.8-1.18,1.78-2.16,3.71-3.36,5.47l-5.26-.49-3.93,3.37c-.44-3.74-.51-7.49,1.09-11.23.64-1.5.69-3.1-1.12-3.93a3.57,3.57,0,0,0-4.18,1c-1.36,1.32-1,3-1,4.65,0,3.91.86,8.55-.91,11.53-2.41,4-1.27,5.92,1.27,8.78a8.53,8.53,0,0,1,1.93,3.48c-4.26-.58-8.26-1-12.06-1.57a12.83,12.83,0,0,1,3.22-5.66c1.51-1.51,2.13-3.3.72-5.15a6.73,6.73,0,0,1-1.54-5.67,2.58,2.58,0,0,0-1.86-3,2.46,2.46,0,0,0-3.33,1.07c-1.42,3.3-1.58,7.06-3.47,10.24q-2.06-3.77-4-7.51-.61-1.17-1.2-2.34c-1.72-3.42-3.36-6.84-4.88-10.27.74-.78,1.45-1.58,2.12-2.41,1.42-1.75,2.78-4.39,2.5-6.39-.22-1.5-3.1-2.62-5.32-4.3,12.32-8.38,26.79-15.72,31.39-31.75l-1.75-2.16-13.18,4.94-.45-.86q6.33-5.76,12.65-11.52c6.67-6.13,13-12.64,20.09-18.28,4.31-3.44,9.86-5.28,14.55-8.32,4.9-3.17,9.44-6.91,14.14-10.4l-1.7-2.48L246,1473.09l-1.21-1.61,14.84-11.62-1.22-2-12.75,6c-.12-2.25-.24-4.38-.36-6.52l-2.15-.34,6.82-3c.17-.72.35-1.45.53-2.17-3.5-1.17-6.94-2.54-10.5-3.45-3.76-1-7.68-1.27-11.43-2.27-11-2.92-12.37-2-12.84,9.11,0,1.21-.28,2.41-.37,3.13l-7,1.8.3-.92a64.1,64.1,0,0,1-6.65-.94c-4.8-1.16-9.81-2-14.13-4.18-1.13-.56-.76-5.81.25-8.39.88-2.26,3.61-3.79,5-7.54-2.12.35-4.4.32-6.33,1.12-2.75,1.16-5.39,2.21-7.65,1.41,9.6-34,29.42-47.71,28.81-62.61-.91-22.22-18.67-49.6-35.34-70.55a18.09,18.09,0,0,1,3.93-1c2.28-.58,4.2-2.46,6.61-1.86,4,.17,4.18.06,4.8-3.76a2.68,2.68,0,0,1,1.88-2.05,89.37,89.37,0,0,1,10.63-4.1c1.34-.37,2.77-.68,3.72-1.88a2.36,2.36,0,0,0,.17-3c-.51-.8-1.37-1.48-2.23-.83-2,1.54-5.26.47-6.75,3.14a1.05,1.05,0,0,1-.93.39c-2.37-.87-3.31.75-4.36,2.33a3.94,3.94,0,0,1-1.59,1.36c-1.15.5-2.52.87-3.54,0s-.59-2.24,0-3.43a13.94,13.94,0,0,1,5-5.73c3-2,3-2.79,0-4.8a6.37,6.37,0,0,1-.89-1c-.76-.8-1.4-.48-2,.2a5,5,0,0,0-.88,2.44,11.52,11.52,0,0,1-5.42,7.78,2.66,2.66,0,0,0-1.26,3.79c1.18,2.75-.93,6.19-3.83,5.78a6.09,6.09,0,0,0-5.27,1.64,4.44,4.44,0,0,1-.91.62q-1.56-1.89-3.07-3.69a4.73,4.73,0,0,1,1.6-2.29,2.11,2.11,0,0,0,.76-2.82c-1.17-2-.31-3.79.45-5.55.91-2.11,2.22-4,3-6.2a4.63,4.63,0,0,1,5-3.47c1.21,0,2.69,0,3-1.53.39-1.74,1.64-2.42,3-3.06,3.37-1.57,6.78-3.07,10.09-4.74,2.11-1.07,4.52-1.69,6.11-3.64,1.32-1.61.89-2.34-.82-3.34-2.81-1.64-4.09-.57-4.95,2.06a3.39,3.39,0,0,1-.75,1.08,2.52,2.52,0,0,1-2.36,1c-1.21-.22-.69-1.21-.6-1.94s-.28-1.2-1-1.19c-1.84,0-1.39-.89-1-2.06.91-2.76,2.12-5.46,2.18-8.46,0-1.1,0-2.32-1.19-2.69-1.37-.43-2.1.76-2.6,1.76a4.65,4.65,0,0,1-1.68,2.29c-1.61.9-1.67,1.9-.55,3.42a3.65,3.65,0,0,1-2.2,5.87c-2.37.64-3.08,2.3-1.6,4.27.92,1.23.64,2-.27,3a8.43,8.43,0,0,1-3.34,2.11c-1.25.43-2.94,1.57-3.9.22-.83-1.17-.33-2.93.47-4.29a13.94,13.94,0,0,1,1.26-1.71,3.06,3.06,0,0,0,.82-2.19c-.18-2-.39-4,1-5.85.44-.6,0-1.44-.61-1.87-1.91-1.29-2.24-3.26-2.46-5.32-.14-1.32-.38-2.64-.6-4a1.7,1.7,0,0,0-1.55-1.58,1.56,1.56,0,0,0-1.63,1.47c-.07,2.73-2.47,5.57.44,8.17.62.56.33,1.28-.23,1.88a1.3,1.3,0,0,1-1.9.16,12.63,12.63,0,0,1-1.81-1.53,42.25,42.25,0,0,1-4.49-5.57,2.91,2.91,0,0,0-4-1c-1.55.78-1,2.25-.84,3.55.16,1.56,1.52,1.78,2.56,2.39,1.9,1.13,4.12,2.23,3.67,4.94-.4,2.43.69,3.09,2.75,3a3.71,3.71,0,0,1,4,2.47,4.78,4.78,0,0,1-1.54,5.74c-1.84,1.41-2.78,2.7-.68,4.68a2.6,2.6,0,0,1,0,3.67c-2,2.34-2.49,5.82-5.76,7.2-1.29.55-1,1.81-.41,3,.49.89,1.47,1.77.9,2.9-.13.25-.26.51-.42.76-1.23-1.11-2.53-2.15-3.88-3.15,1.44-2.23,1.24-4.13-.53-6.14a3.16,3.16,0,0,1-.43-1.75c-.39-5,1-10.11-.93-15.21-.69-1.87,0-4.11-2.63-5-.86-.29-1.08-1.51-1.32-2.49a21.79,21.79,0,0,1-.38-10.25c.55-2.49-1.35-4.6-3.55-3.86-2.49.85-3.62-.07-4.51-2.14a2,2,0,0,0-2.44-1.13c-1.21.25-1,1.3-1.07,2.14-.06,1,0,2.23.82,2.7,2.7,1.5,3.31,4,3.87,6.72.5,2.42,1.47,4.77,1.22,7.27-.18,1.8.28,2.83,2.08,3.33,1.33.36,2.36,1.32,1.62,2.76s-2.12.66-2.94,0c-3.33-2.71-7.28-4.83-9-9.15-.42-1.05-1.18-1.86-2.47-1.38a2.5,2.5,0,0,0-1.55,2.56c0,1.32,1,1.93,1.81,2.76,1.9,1.93,4.62,3.77,5.21,6.1.8,3.17,2.28,3.53,4.93,3.69,4,.23,6.18,3.75,5,7.54-.58,1.78.09,2.89,1.62,3.7,2,1,1.73,2.79,1.43,4.44-1.88-1.16-3.83-2.25-5.83-3.29a4.7,4.7,0,0,1-.76-2.24,1.73,1.73,0,0,0-2.24-1.67c-1.31.24-2-.57-2.56-1.48a9.89,9.89,0,0,1-1.85-5.45c0-1.49-.58-2.67-2.17-2.89a4.65,4.65,0,0,1-3.54-2,1.77,1.77,0,0,0-2.38-.55,1.69,1.69,0,0,0-1.11,2.15c1,2.41,2.82,4.38,3.39,7,.05.23.75.35,1.16.44q2.93.64,3.68,2.78c-17.93-7.79-36.08-12.56-35-23.46,1.63-16.92-.23-31.92,15-47.07l76-75.48a254.35,254.35,0,0,0-14.37-45.92,15.66,15.66,0,0,0,5.13-8.28c.61-2.42,3.13-2.06,4-3.63,2.13-3.71,5.88-6.32,6.58-11.09a10.4,10.4,0,0,0-1-6.32,17.16,17.16,0,0,0-4.79,6.55,6.6,6.6,0,0,1-.7,1.76c-.88,1-1.4,3.18-2.82,2.65-1.69-.62-.35-2.45-.17-3.71.51-3.51.16-7.35,2.42-10.28,1.58-2,3.67-3.57,3.89-6.47.24-3.25.92-6.48-.1-9.72-.36-1.12-.67-2.39-2.08-2.36s-1.11,1.43-1.18,2.35c-.58,7.79-3.43,15.06-5.06,22.6a32.26,32.26,0,0,0-.91,7.94,18.61,18.61,0,0,1-2.49,9.48c-.49.94-1.23,1.84-2.37,1.44s-.24-1.45-.26-2.23a28.41,28.41,0,0,0-1.43-7.79c-.24-.78-.52-1.47-1.49-1.37a1.75,1.75,0,0,0-1.53,1.49,14.82,14.82,0,0,0-.38,2.16c-.68-1.36-1.37-2.73-2.09-4.1a22.09,22.09,0,0,1,1.8-2.46c3.17-3.75,3.93-8.43,4.56-13.15.75-5.64.8-11.45,3.9-16.58a8.66,8.66,0,0,1,4.94-4.29c5.52-1.86,8.25-6.33,9.42-11.87a2.06,2.06,0,0,0-.75-2.37c-.78-.48-1.34.43-2,.75a5.05,5.05,0,0,0-3,3.25,1.13,1.13,0,0,1-1.5.81c-.72-.31-.47-1-.33-1.65a20.78,20.78,0,0,0,.22-9.38c-.3-1.43-.93-2.44-2.54-2.09-1.36.3-1.89,1.09-2,2.71-.43,6.64-.05,13.44-3.21,19.67a9.77,9.77,0,0,1-3.51,4.18c1.13-4.5.82-8.3.57-12.12-.13-1.84-.65-3.57-2.45-3.78-2.28-.27-1.78,2.05-2.12,3.36-1.67,6.34.19,12.55.79,18.82a38.49,38.49,0,0,1-1.42,15.09c-.51,1.65-1.14,3.8-3.17,3.8a2.59,2.59,0,0,1-2.3-1.78c6.15-7.12,2-17.11-1.13-28.26,1.13-5,2.09-9.94,4.73-14.59,1.87-3.29,1.51-7.85,1-11.88a4.09,4.09,0,0,0-2.69-3.46c-1.67-.4-2,1.67-2.58,2.79a8.05,8.05,0,0,0-.61,6.32c1.81,5.19.2,9.87-1.4,14.55-1.43-7.15-1.63-14.64,2.15-22,12.77-25-22.06-49.2,20.57-68.79,8.49-13,8-26.16,11.72-40.25,6.95-26.68,3.23-23.49-23.45-16.39-30.74,8.19-3.58-16.1-2.63-23.23,1.2-8.89,1.69-32.92-10.59-77.89,8.44,1.22,18.46,6.3,20.61,12.54,3.17,9.18,10.87,9.52,17.12,13l1.24-1.52-13.27-11.84c3.58.21,6,1.81,8.6,3.07,1.6.79,4.12,2,5,1.35,1.58-1.12,2.22-3.55,3-4.93l-15.68-6,27.84-13.19c-5.95-5.67-10.75-.45-16.25,2.64l4.87-7.58c-9.45,2.36-14.4,12.27-23.79,9.35l-6.19-5.5c3.53-3.57,7.3-7.61,11.32-11.38,3.22-3,6.75-5.72,10.14-8.56l-1.54-1.74-7.07,3.14,4.37-9-1.54-1-18.18,16.2L172,756.52l6.91-16-2.06-1.16-7.79,9.31-2.61-1.65,13.87-24.93h0c-1.13.31-2.26.61-3.39.89l-14.46,16.55-2.15-.14c1.74-5.15,1.14-9-.71-12.09,5-2.1,10.37-2.64,15.65-3.91l1.67-.41,1.75-2c.55.37,1.09.75,1.64,1.11,14.7-4.06,28.16-10.57,36.31-25.12,1-1.84,2.07-3.79,4.67-4.4,2.94-.7,2.73-.93,1.45-4.14-.75-1.86.46-3.53,1.53-5,1.89-2.61,3.9-5.13,5.83-7.72,1.65-2.21,3.32-4.45,3-8.23-3.46,1.77-3.75,5.23-5.8,7.2-1.1,1.06-1.76,3.12-3.71,2.56-2.38-.68-1.79-2.81-1.63-4.59.12-1.38.33-2.76.72-5.85-2.51,3.89-4.88,6.3-2.64,9.35,3.22,4.4,1.33,8.47-1,11.75-6.24,8.65-12.33,17.56-21.57,23.51-1.51,1-3.36,2.85-4.76,1.42-1.77-1.79.25-3.66,1.59-5.08,3.58-3.79,7.16-7.6,10.93-11.2,1.68-1.6,3.11-3.07,2.89-5.68-2.94-.32-2.79,5.17-6.25,3.13-2.25-1.33-.26-3.79-1.27-5.62-1.49.93-2.45,2.64-2,3.89,2,5.81-1.56,9.16-5.14,12.4a35.38,35.38,0,0,0-6.36,8c-2.84,4.66-7.43,5.95-12.13,7.22-1.2.33-2.45.37-3.16-1-.54-1,0-2,.49-2.82a3.5,3.5,0,0,1,.79-.92c14.2-11.29,19.91-28.91,31.34-42.12a56.34,56.34,0,0,0,12.95-25.39c.25-1.14.94-2.29-.37-3.92-2.85,2.09-3,5.4-3.85,8.26-1.57,5.23-2.85,10.56-6.84,14.65-1.06,1.1-1.73,3.1-3.79,2.06s-1-2.79-.87-4.33,1.48-2.9-.08-5c-2.48,3.79-4.81,7.18-2.28,11.71.19.35.28.75.45,1.12,1.15,2.49.4,4.77-2,5.52-3.94,1.25-1-3-2.84-3.88-1.87,0-2.06,1.76-1.92,3,1.28,10.89-8.57,16.73-11.59,25.65a2.32,2.32,0,0,1-3.08,1.23c-1.43-.6-1.1-2-1-3.16.55-7.56,5.29-13.43,8.3-20,1.61-3.49,3.93-6.82,4.4-10.56.94-7.59,7.1-12.55,9.12-19.54a5,5,0,0,1,3-2.8c7.8-2.49,10.19-9.25,12.85-15.82,1.26-3.11,1.4-6.88,5.24-8.4.72-.28,1.65-1.14.81-1.8-4.07-3.23-.26-7.18-1.23-11.42-3.11,8.3-6,16-8.86,23.64-.28.75-.37,1.58-.66,2.33-1.23,3.1-3.15,5.62-6.39,6.8-.68.25-1.85,0-1.86-1a11.21,11.21,0,0,1,3-8.26c-4-1.26-4.29,2.2-5.17,4.35-2.14,5.22-3.8,10.64-5.91,15.88-.69,1.72-1.65,4.42-4.1,3.48-2.12-.81-1.86-3.4-1.3-5.4,2.54-9.14,5.17-18.25,7.74-27.38.37-1.29,1.37-2.53-.07-4.86-1.58,4-3.08,7.34-4.28,10.83-2.1,6.09-3.24,12.47-5.85,18.42-1.14,2.6-1.82,5.67-.28,8.24,4.32,7.23,1.29,13.59-1.9,20-4.79,9.67-11.45,18.68-10.47,30.37.19,2.22-1.45,3.66-2.82,5.15-.85.93-1.84,1.68-3.16,1.31s-1.36-1.78-1.62-2.94c-.8-3.54,1.21-6.93.95-12-3.49,5.17-4.55,9.34-3.93,14,.7,5.28-1.67,8.56-5.76,10.68a55.16,55.16,0,0,0-7-5.67,60.94,60.94,0,0,0,2.76,7.27,3.76,3.76,0,0,1-3.33-.86c-2.06-1.79-1.67-4.15-.67-6.14,3-5.88,7.24-11,9.9-17.13,2.11-4.86,4.3-9.91,10.24-11.84,2.42-.78,3.25-3.37,3.28-5.91-1.21-.81-1.51.2-1.8.77-1.1,2.12-3,4.38-5.05,3.43-2.8-1.32-.15-3.84.25-5.78.68-3.29,1.64-6.52,1.61-10-2.89,7.73-5.62,15.52-8.72,23.17-1.82,4.45-4.22,8.67-6.41,13a2.52,2.52,0,0,1-2.92,1.62c-1.17-.29-1.33-1.31-1.44-2.37-.71-6.84.58-13.18,5-18.62,1.47-1.82,4.16-3.54-.87-3.76-2.62-.11-2-2.34-1.88-3.65.82-8.39,2.1-16.66,11.16-20.55,1.66-.71,2.07-2.25,3-3.42-4.12-.46-5.17-2.52-3.6-6.48,1.45-3.66,2.42-7.5,3.84-12-3.23.74-4,6.93-8.12,1.43,3.58,7.29.59,13.52-.57,19.85-.25,1.34-.77,3-2.36,3.22-2.17.3-2.37-1.8-3-3.18-5.72-12.84-1.3-25.27,1.69-37.73a3.68,3.68,0,0,1,1.82-2.28c9.93-4,12.37-13.09,15.23-21.94.85-2.62,1.66-5.25,2.48-7.87l-1.42-.65c-1.19,3.08-2.73,6.07-3.49,9.25a33,33,0,0,1-7,13.82c-1.06,1.27-2,3.09-3.75,2-1.92-1.14-.46-3,.23-4.26,5.84-10.74,9.12-22.41,12.56-34,.59-2,1.77-4.1-.4-8-2.89,9.17-5.45,17.07-7.84,25a51.39,51.39,0,0,1-5.27,12.14c-5.13,8.4-7.31,17.87-8.69,27.53-.25,1.76.15,4.07-2.33,4.22-2,.12-2.23-2.09-2.73-3.51a15.94,15.94,0,0,1,.16-11.76c2.7-6.71,4.94-13.61,7.41-20.42.38-1.05.64-2-.65-2.46-1.51-.54-2.32.54-2.67,1.72-1.4,4.63-2.77,9.28-4,14-1,4-2.78,5.46-6.37,2.7-.87,7.14,2.74,13.47,4.6,19.89a152.94,152.94,0,0,0,6.74,19.38c2.26,5.09,1.85,10.35,1.52,15.92-.72,12.44-3.75,24.65-3.42,37.16,0,1.31,1,3.18-.82,3.7-2.08.58-2.71-1.36-3.07-2.93-.44-1.88-1.1-3.75-1.7-5.63a23.82,23.82,0,0,1-1.38-6.67,11.45,11.45,0,0,1,2.34-7.32,2,2,0,0,0-.87-3c-1.28.19-1.5,1.21-1.78,2.16a6.57,6.57,0,0,1-.87,2c-3.52-19-8.44-46.31-23.13-84.92-6.7-17.63,31.33-57.64,34.58-87,13.77,11.49,27.56,8.45,31.5-30.45,6.9-1.91,11.44-3.83,9.94-5.3q-4.68-4.57-9-8.61c.95-15,11.4-34,14.62-55.11,8.69-57.28,16.13-127.33,28.06-153.78,6.38-14.14,18.39-14.26,28.26,2.22,11.19,18.7,13.15,77.85,20.28,54.11,4.22-14,1.65-42.11,5.2-60.31,1.5-7.72,9.95-7.82,11.61-16.19,1.35-6.83.22-15.2,1.51-22.43,1.09-6.07,8.19-10.23,9.27-16.45C310.28,145,314.5,73.92,317,50.79c12.1-113.06-92.87,4.23-72-38.34L6,439.08Zm2.28-101.24v.09L5.1,2967.86,0,5251.67H1923.38L1928,1866.53l-174.08-8c-2.22-4.35-4.55-8.65-4.75-13.77a8.65,8.65,0,0,1,1.77-6.3c3.58-4.59,3.42-9.83,1.35-15.09a2.09,2.09,0,0,0-1.93-1.58c-.92,0-.89,1.11-1.26,1.73a5.07,5.07,0,0,0-.71,4.35,1.13,1.13,0,0,1-.8,1.51c-.78.13-1-.6-1.18-1.2a20.89,20.89,0,0,0-5-8c-1-1-2.13-1.52-3.28-.34-1,1-1,2-.18,3.35,3.29,5.79,7.34,11.26,8.13,18.2a9.78,9.78,0,0,1-.63,5.43c-1.53-4.39-3.88-7.39-6.19-10.44-1.12-1.48-2.5-2.62-4.13-1.81-2,1-.35,2.68.08,4,2.09,6.22,7.06,10.39,11,15.3a38.76,38.76,0,0,1,6.88,12.65q-.3,2.88-.62,5.81c-1.45.68-3-.54-4.13-1.56-5.85-5.18-11.2-10.75-13.75-18.41-2-6-4.85-11.58-5.28-18.19-.25-3.78-3.06-7.38-5.68-10.48a4.06,4.06,0,0,0-4.14-1.41c-1.62.58-.75,2.49-.63,3.74a8,8,0,0,0,3,5.61c5.13,3.93,5.93,9.83,7.49,15.4.22.8.56,1.93-.48,2.37-.88.37-1.68-.29-2.34-.93a27.16,27.16,0,0,0-5.59-4.48c-1.27-.7-2.38-.82-3.41.35a2.28,2.28,0,0,0,.28,3.41,78.44,78.44,0,0,0,9.21,7.92c3.17,2.15,6.29,4.21,8.39,7.48,4.45,6.92,10.93,12.06,16,18.4-.43,3.57-.88,7.19-1.37,10.89-.59-2-1.44-4-1.92-6a17.46,17.46,0,0,0-8.38-11.08,1.74,1.74,0,0,0-2.14.06c-.66.66-.21,1.42.1,2.11a105.78,105.78,0,0,0,7.36,13.67c.78,1.25,1.73,2.56.44,3.71-1.52,1.34-2.67-.25-3.4-1.28-3.87-5.47-7.37-11.12-8.38-18-.44-3-2-5.68-3.42-8.34a2.18,2.18,0,0,0-2.25-1.13c-1.16.1-1.28,1.11-1.44,2-.88,4.81,1.47,8.81,3.48,12.81,1.36,2.7,3.82,4.79,4.73,7.78.27.88,1.06,2.13-.23,2.69s-2.2-.52-2.53-1.65c-1-3.3-3.83-5-6-7.15-.81-.81-1.94-1.47-3-.4s-.42,2.07.13,3.11c2.57,4.9,5.94,8.8,11.73,9.92,3.49.68,6.25,3,8.82,5.1a21.91,21.91,0,0,0,4.88,3.12c-3,21.26-19,64.59-24.3,90.63q-1.18,5.79-2.43,11.43l-25.62,40.83-3.23-1.72,10.92-46.51-7.08-1.57q-8.79,36.83-17.56,73.65l-4.19-.49q-1.66-20.58-3.34-41.16l-4.68.42q1.35,20.81,2.71,41.59,2,31.88,4.06,63.74l-5.31.24c-13.67-40.16-12.15-80.87-.67-121.94l-6.42-1c-3.33,14.73-6.66,29.46-11.27,49.83-3.56-16.55-6-27.66-8.35-38.78l-4.87,1.09,23.64,99.78L1656,2125,1645,2099.09l-4,1.86L1670,2166.2c-2.48,6.65-4.9,13.22-7.21,19.74-3.35.22-5.75-2.75-8.61-4.57-9.53-6.07-7.71-16.11-9.35-24.95-.3-1.62,1.29-4.13-1.45-4.5-2.44-.33-2.55,2.12-2.86,3.89-1,5.74-3.34,8.54-8.78,3.78-3.24-2.84-4,.08-5.86,1.62,2.33,1.42,4.14,2.45,5.87,3.6,3.46,2.27,8.19,4.25,7,9.31s-6.21,3.62-10,4.18c-4.65.69-7.57,3.45-9.08,8.43,23.29-10.41,25.71-4.21,35.41,10.33,3.33,5,1.54,7.19-4,7.3-1.5,0-3.11-.8-4.49.77,1.46,2.73,4.59,2,6.79,3.08a10.12,10.12,0,0,1,1.54.95q-3,9.33-5.57,18.65c-.41-.09-.82-.18-1.21-.25-15.9-2.89-29.51-10.5-41.56-21a22.13,22.13,0,0,1-6.15-25c1.23-3.1,3.43-5.85,5.36-8.64,1.81-2.6,1.6-4.68-1.74-4.91-5.38-.37-11.06,5.85-11.32,11.84-.23,5.58-4,8-9,5.25a56.83,56.83,0,0,1-8.78-6.51c-3-2.49-5.32.79-8,.77-1.34,0-1.94,1.62-1.71,3.06.54,3.47,3.48,2.35,5.59,2.9,4.87,1.27,9.43,3.22,13.09,6.82,2.93,2.88,5.47,6.2,3.37,10.42s-5.8,5.87-10.51,5.12c-1.2-.19-2.24-1.54-3.62-.41-6.27,5.12-12.56,3.05-18.86.05-2.19-1.05-5-2.09-6.48.17-2,3.12,2.41,3.23,3.25,4.94,1.77,3.61,10.61,4.59,4.48,11.35-1.15,1.27-4.7,2.46-2,4.61,2.24,1.76,3.5-1.6,4.68-2.95,5.38-6.23,11.28-10.93,20.25-9.66,1.38.19,3-.62,4.38-1.26,8.34-3.85,21.75,2.35,27,12.57,3.25,6.25-.81,14.78-9.54,20-3.08,1.83-6.09,3.19-9-.46-2.48-3.12-5.6-2-8.66-1,.79.9,1.81,1.05,2.59,1.56,2.34,1.53,5.57,2.73,5.18,6.16s-4.07,2.64-6.18,3.91c-3.62,2.19-8.62.54-12.9,4.75,5.26.75,9.2.84,13.24-.15,10.26-2.5,11.53-1.3,9.53,8.65-.37,1.85-2.47,4.44.43,5.43s2.41-2.77,3.85-4c1.6-1.42,1.46-3.28,1-5.11-1.85-7.72,3.1-12.22,7.91-16.78,3.24-3.07,5.54-2.11,7.11,1.73,3,7.41,3,7.41,10.37,2.63-4.62-2.15-9.53-4.33-7.82-10.66,1.23-4.56,8.94-7.65,14-5.88,4.86,1.71,9.75,3.38,14.45,5.3-2.26,9.59-4.13,19.28-5.53,29.17a14.82,14.82,0,0,1,.17-7.05,8,8,0,0,0-1-6.26c-.67-1.08-1.13-3.12-2.76-2.61a4.05,4.05,0,0,0-2.45,3.62c-.22,4.06-.29,8.63,1.8,11.79a32.53,32.53,0,0,1,3.4,7q-2,15.47-3.72,30.31a39.86,39.86,0,0,1-1.26-11.38c.18-6.29,1.63-12.61-.45-18.83-.43-1.29-.09-3.63-2.34-3.21-1.79.33-2.19,2.09-2.2,3.93,0,3.83-.06,7.64,1.37,12.06a9.66,9.66,0,0,1-3.77-3.94c-3.57-6-3.64-12.81-4.52-19.41-.21-1.61-.79-2.36-2.16-2.57-1.63-.25-2.2.8-2.41,2.25a21.16,21.16,0,0,0,.84,9.35c.19.61.49,1.3-.21,1.67a1.13,1.13,0,0,1-1.55-.72,5.09,5.09,0,0,0-3.19-3c-.68-.27-1.3-1.14-2-.62a2.09,2.09,0,0,0-.59,2.42c1.53,5.45,4.56,9.72,10.19,11.22a8.64,8.64,0,0,1,5.21,3.95c3.44,4.91,3.87,10.7,5,16.28a32.09,32.09,0,0,0,3.08,9.64q-.39,3.43-.75,6.82c-.34,3.17-.67,6.33-1,9.46.22.52.49,1-.1,1.4a7.57,7.57,0,0,0-1.34.18,3.06,3.06,0,0,1-1.36-1.33,18.59,18.59,0,0,1-3.11-9.29,32.88,32.88,0,0,0-1.43-7.86c-2.13-7.43-5.45-14.49-6.56-22.22-.13-.91.21-2.34-1.33-2.27s-1.63,1.36-1.91,2.49c-.81,3.3.09,6.48.54,9.71.41,2.88,2.6,4.27,4.31,6.2,2.45,2.77,2.36,6.63,3.1,10.09.26,1.25,1.72,3,.07,3.72-1.38.62-2-1.52-3-2.46a6.61,6.61,0,0,1-.82-1.71,17.29,17.29,0,0,0-5.21-6.22,10.48,10.48,0,0,0-.64,6.38c1,4.72,4.94,7.06,7.31,10.62,1,1.51,3.49,1,4.26,3.37a16,16,0,0,0,1.41,3.17,8.68,8.68,0,0,0-2.54,6,8.9,8.9,0,0,0,6.49,8.76c-2.44,26-14.23,50.52-15.55,73.5-1.34.26-3.3,2.46-3.21,3.66s1.54,2.66,2.82,3.24c-7,129.92-44.59,174.69-59.09,230.46-1.17-.89-1.8-2.81-2.59-6.13-.32-1.35-3-3.48-3.39-3.27-5.42,3.49-11.33,1.49-17,1.84-5.14.31-9.58,1.93-12.41,6.73l11.6,9.56c6.42-5.27,9.43,4.09,14.77,4.21.21-1.11.4-2.1.55-2.85l4.41,1.29a32.47,32.47,0,0,1-6.67,9.46c-8.2-1.34-16.39-2.83-24.65-3.41-2.69-.19-6.4,2.17-8.24,4.48a5.34,5.34,0,0,0-.61,6.59c-.47,3.31-1.26,13.6-2.65,29.06a36.44,36.44,0,0,0-4.77,1.12c-3.53,1-5.93.5-5.94-3.91,0-3.44-1.64-4.17-4.89-3.14a23.56,23.56,0,0,1-7.62.94c-5.16-.11-9.93.43-13.59,5.24l9.1,7.55c2.9-2.11,5.39-.46,7.91,1.37a25.82,25.82,0,0,0,3.21,1.7c1.31-3,3.16-.87,5-.65,3.38.42,6.79.56,10.62.8-.91,9.61-2,20.65-3.36,32.83-3.65-.26-7.27-.25-10.88-.21-2.78,0-6.36,2.34-8.1,4.69-2.6,3.53-1.27,6.76,2.38,10,3.46,3.07,7,5,11.28,3.42a23.47,23.47,0,0,1,3.36-.93q-.84,7-1.79,14.41c-3.88.87-7.67,2.17-11.5,3.25-.13.85-.25,1.7-.37,2.55,3.45,2,6.84,4.16,10.3,6.14-1.47,10.89-3.11,22.25-4.94,33.94,0,.14,0,.28-.07.43-1.52,9.73-3.18,19.69-5,29.81a1.42,1.42,0,0,0,0,.2l-.1-.18c-2.33-4.08-4.71-8.27-7.17-12.61-1.31,5-2.11,8.11-2.72,10.47l-1.73-.43-.54,1.17,1.72,1.38q-.12.48-.24.93l-9.28-5.6c.84.1,1.69.19,2.52.27,2.23.22,5.63-3.15,7.11-5.68,1.59-2.73-1.23-4.54-3.71-5.6-7.55-3.24-14.53-.79-22,1.36l-4.17-2.51,19.13,32-2.4-1.53-5-3.17-13.7-8.7-1.55-1-18.11-11.51-2.71,3.53,18.06,14.86c-.79,2.19-1.7,3.46-3.07,4L1417.57,2869c3.7,7.12,6.69,12.86,9.68,18.6l-3.25,1.81q-5.71-6.6-11.42-13.22l-2.56,1.51c3.09,6.13,6.17,12.27,10.13,20.13l-15.32-2.86-.57,2.18,21.73,12.4-1.14,3.2-10.06-1.15.22-.19-.78-1.46c-2,.34-4,.51-6,.91l-3.07-.35,1.1.86a4,4,0,0,0-.49.15c-4.57,1.63-7-.54-8.58-4.25a103.4,103.4,0,0,1-3-9.94c-1.25.53-2.66.68-3,1.33-3.63,8-11.93,8.37-18.47,11.6a10.14,10.14,0,0,0-3.33,2.14,41,41,0,0,0-3.25,5c1.69.78,3.3,2,5.07,2.29,9.09,1.63,18.21,3,27.77,4.58v-5.57l11.5,7.14,1.1-1.41-3.43-6.83L1411,2915c8.86,6.89,18.74,14.56,28.61,22.25l-2.79,2.87-16.47-4.25a19,19,0,0,0,2.66-2.39c-4.68-6-11.79-1.46-17.08-4.91-.38,1.26-.69,2.31-1,3.32l-3-.77c.85.75,1.71,1.46,2.6,2.12q-.16.54-.33,1.11l-9.79-1.31c2.29,2,3.62,3.16,4.9,4.28l-1.8,3.81c5.67-.68,11.27-.62,16.33-2.1,5.38,2.88,10.77,5.37,15.34,8.92,5,3.91,6.18,12.81,9.08,19.47l-10.48,1.42c13.91,8.52,25.89,11.32,38.09,7.68q-4,14.17-8.39,28c-.8-1.16-2.42-1.27-4.84-.52a42.76,42.76,0,0,1-11,1.45c-6.33.23-12.43.65-16.62,6.66l11.56,9.78c2.85-2.25,7.41-1.5,10,1.82,1.38,1.78,2.64,2.44,3.69,2.06q-5,13.93-10.52,27.21l-1.92,1.2.58,1.32.26.05a401.39,401.39,0,0,1-18.34,37.84,39.73,39.73,0,0,0-15.14-1.07c-2.77.28-7.2,2.14-6.11,7.1.78,3.58,6.19,6.48,9.76,5.35,1.4-.44,2.77-1.27,4.18-1.33a10.18,10.18,0,0,0,1.59-.17c-10.41,17.25-21.94,32.38-34.72,44.59l-.18-.55-12.49,7.36.33,1.53a32.11,32.11,0,0,1,4.75.66c.42,9.13.62,17.51.64,25.23a64.38,64.38,0,0,0-10.65-.73c-1.81.07-3.5,3.39-5.24,5.23,1.8,1.48,3.81,4.17,5.46,4.84-.75,4.33-1.56,9-2.56,14.74-7.43-7.88-13.79-15-20.62-21.72-4.37-4.27-8.93-8.34-13.51-12.4a42.7,42.7,0,0,0,7.6,1.54c1.81.27,4.2-3.35,6.33-5.18-1.67-1.76-3.31-4.95-5-5-5.57-.15-11.17.86-17.68,1.51.22.36.45.7.68,1l-3.28,3.89,22.44,18.34-1.65,4.36-34.11-5.29c3.37,8.26,18.47,5.83,21.1,14.14a2.68,2.68,0,0,0-1.68-1,104.59,104.59,0,0,0-15.5,1.84c-3,.64-5.67,2.55-9.25,4.25l9.12,7.63h0c10.43,22.59,33.93,23.9,51,31.67a16.13,16.13,0,0,1-2.35,1.18h-59.84l.39,7.4,40.27-5.07c.06,1,.13,2,.2,3l-12.78,6.92c.37,1,.75,2,1.13,3l24.64-3.93c2.59.45,5.18.87,7.79,1.28.11,1.1.21,2.21.32,3.31l.12,1.24-1.68.17-42.93,4.29-3.54.35c-.44.65-.84,1.28-1.24,1.84a4.23,4.23,0,0,1-2.17,1.94c-2.08.47-4.56-.82-6.87-1.35,2,2.65,5.39,4.3,2.26,8.3,7.17-1,14.34-.61,20.52-4a16.37,16.37,0,0,0-.22,2.59c-22.23,35-72.83,36.38-72.83,36.38-27.45,15.35-137.38,52.1-161.05,59.52-23.18,41.33-54.71,75.45-67.88,69.44a73.1,73.1,0,0,1-9.92-.84c8.64-8,18-16.55,27.33-25.14l-1.05-1.8-19.44,9.42c8-23.3,28-18.89,46.24-22.73l-18.91-12.51c.4-1.42,1.53-5.37,2.67-9.37l-15.17-8c-3.64,13.05-7.17,25.7-10.71,38.35l-6.39-1.73q5.91-22.42,11.81-44.85l-1.88-.78q-4.41,7.31-8.8,14.62L998.3,3369l8.48,15.81-13.71-2.57c12.91,14.95,23.87,27.38,10.06,45.77-1.55-10.92-2.9-20.34-4.24-29.76l-2.85.38c-.59,3.68-1.17,7.37-2.72,17.07l-6.58-15.8-4.12,3.56c1.38,3.8,2.76,7.59,4.48,12.3l-9.29-2.83c-2.63,6.08-4.52,10.47-6.3,14.6.65.54,1.32,1.07,2,1.58,18.32-1.87,24.8.92,27.59,12.43-10.32-2.49-20.19-6.9-27.59-12.43-.91.09-1.85.2-2.82.31l.81-1.89a39.8,39.8,0,0,1-5.3-5.23c.24-31.05-197.84,16.42-215.87-38.2-5.91-17.9-108.79-56.59-133.59-97.71,3.59,1.79,7.52,2.29,11.34,2.62,2.14.19,4.94-3.06,6.68-5.32.41-.53-1.84-4.29-3.56-5.09-6.23-2.91-12.24-1.06-18.75.69-5.79-9.58-11.63-19.23-17.35-28.73a61.56,61.56,0,0,0,4.41-20.25c.28-11.1-1.32-17.27,11.41-19.4,1.39-.23,3.47-9.61,1.71-12.81-3.62-6.6-9.63-11.88-15.42-18.6L587,3185l-2.32-3.38L609.49,3161l-1.28-1.41-12.05,4.89c2.85-14.71,5.29-27.25,8.46-43.59l-16.44,25.81c2-17.06,3.63-30.87,5.21-44.23l7-2.11c.43.92.86,1.83,1.28,2.74,1.24-.59,2.88-.87,3.65-1.84,3-3.8,6.5-4.2,10-2.4l11.32-9.08c-4.89-6.4-11.23-6.6-17.85-6.45a22.57,22.57,0,0,1-8.47-1.23c-3.84-1.5-5.48-.7-6,3.4-.84,6.08-1.93,6.66-8.14,5.07-2-.5-3.92-1-5.89-1.55.12-.81.23-1.61.35-2.42l-3.89-.46c-.92,2.91-1.83,5.82-3.16,10.08l-9-13.39q-1,7.09-2,14.28c-1.26-4.36-2.8-9-4.57-13.85l-.66-1.84c-18-48.88-137.43-122.05-143.8-210,3.76,3.78,6.75,7.93,5.25,14.21-.44,1.83-.58,3.69,1,5.11,1.44,1.28,1.05,5,3.85,4.05s.8-3.58.43-5.43c-2-9.94-.73-11.15,9.53-8.64,4,1,8,.89,13.24.14-4.28-4.21-9.29-2.56-12.9-4.75-2.11-1.27-5.79-.57-6.18-3.91s2.84-4.63,5.18-6.16c.78-.51,1.8-.65,2.59-1.56-3.06-1-6.18-2.17-8.66.95-2.92,3.65-5.93,2.29-9,.46a26.77,26.77,0,0,1-5-3.83q-.78-10.12-1.78-20.27c6.29-7.67,17.16-11.75,24.31-8.45,1.38.64,3,1.45,4.38,1.26,9-1.27,14.87,3.43,20.25,9.66,1.18,1.35,2.44,4.71,4.68,3,2.75-2.16-.8-3.35-1.95-4.62-6.13-6.76,2.71-7.74,4.48-11.35.84-1.71,5.23-1.82,3.25-4.94-1.44-2.26-4.29-1.22-6.48-.17-6.3,3-12.59,5.07-18.86,0-1.38-1.12-2.42.22-3.62.41-4.71.75-8.46-1-10.51-5.12s.44-7.54,3.37-10.42c3.66-3.6,8.22-5.55,13.09-6.82,2.11-.55,5.05.57,5.59-2.9.22-1.44-.37-3.08-1.71-3.06-2.72,0-5-3.26-8-.77a56.19,56.19,0,0,1-8.78,6.51c-5,2.72-8.8.34-9-5.25-.25-6-5.93-12.21-11.31-11.84-3.34.23-3.55,2.31-1.74,4.91,1.93,2.79,4.13,5.54,5.36,8.64a22.13,22.13,0,0,1-6.15,25c-.7.62-1.41,1.22-2.13,1.82-21.49-187.48-76.36-369.49-76.36-371,3.79-14.65,38.93-78.27.84-116.43,1.54-6.45,3.25-12.76,5.15-18.74a99.86,99.86,0,0,0,4.13-39.68c-.71-8.55-1.1-17.34-3.33-27.24-2.31,15.53.16,29.66-1,45.05-3.13-8.86-3.24-17.45-4.15-26.68-1.8,3.21-1.72,6-1.75,8.67a208.66,208.66,0,0,0,1.45,23.78,32.57,32.57,0,0,1-.8,12.29c-.32,1.12-.71,2.29-1.55,2.12-.68-.14-.78-1.32-.92-2.3-2.38-16.64-5.59-33-5.36-50.42.06-4.71,1.18-9.17,1.32-15.32a29.79,29.79,0,0,0-4.18,15.86,284.36,284.36,0,0,0,3.35,45.58,76.08,76.08,0,0,1,.56,20.6q-3.12-2.61-6.51-5a334.41,334.41,0,0,1-.67-55.18,104.68,104.68,0,0,0-1.69-27.35,12.47,12.47,0,0,0-.66-2c0-.09-.21-.06-.5-.12-1.76,10.72-2.79,21.59-1.79,32.72.29,3.26-.12,6.34-.17,9.5,0,1.17,0,2.6-1,2.78s-1.12-1.11-1.45-2.21a132.32,132.32,0,0,1-5.06-27.29c-.13-1.56.83-5.15-2.17-3.44-1.4.8-.17-4.19-1.92-6.24a68.17,68.17,0,0,0,.17,33.26c.75,3.14,1.36,6.37,2.16,9.48a43.6,43.6,0,0,1-.25,21.45c-10.85-24.3,6.57-64.95-17.87-118.72,1.73-6.37,3.58-12.65,11.57-15,5.93-1.75,12.55-4.14,16.69-8.37a286.51,286.51,0,0,0,25.94-30.94c9.56-13,13-30,26.37-40.55.52-.41,1.18-1.24,1.09-1.75-1.46-8,4.51-12.3,8.68-17.52,2.28-2.85,4.39-5.85,6.58-8.79l-1.51-1.29-8,7c.53-2.94.88-4.9,1.23-6.86l-1.63-.68-12.13,28.72-1.43-.63-.45-4.6-2.55-.83c-2.34,6.1-4.68,12.19-7.22,18.79-.2-2.46-.34-4.23-.48-6l-1.62-.09-2.93,6.46c1.48-5.53,4.75-11.21,3.93-16.22-1.09-6.7,3-10.46,4.8-15.52,2.66-7.35,4.88-14.87,7.29-22.31l-2.78-1.29-16.89,35.51-.77-.41c2.06-6.38,4.13-12.77,6.78-21a29.35,29.35,0,0,0-10,11.17l-4.8,14.84c-1.17,5-2.31,9.93-4.63,14.32q2.32-7.17,4.63-14.32c1.17-5,2.36-10.12,4.8-14.84q2.59-8,5.16-15.95l-3.6.54c.4-2.53.71-4.46,1-6.39l-2.93-.69c-1.68,8.09-3.36,16.19-5.12,24.65l-4.38-7.48-2.06.71c1.36,12.67,1.71,25.19-4.66,38.29-4.25-13.61-2.55-25.23,3.82-36.57l-2.59-.74-6.28,10.06-1.29-.64q1.92-5.89,3.82-11.79l-2.76-.62q-1.83,9.15-3.67,18.3l-1-.11,2.34-18.29-2.09-.43c-1.13,5.05-2.27,10.1-3.55,15.77-1.62-2.35-2.74-4-3.87-5.62.05,8.68,2.2,16.75,3.4,25,1.25,8.47,1.13,17.14,2.44,25.6,1.27,8.16,6.52,16,1.19,26.44-3.84-21.78-7.37-41.77-10.89-61.75a14.05,14.05,0,0,0-1.8,8.87c1.8,13.43,4.21,26.8,5.62,40.27.52,5-1.12,10.14-1.77,15.22l-.65-.41c-1-11.2-2-22.41-3.09-33.61-1.22-12.65-7.49-25.54,4.32-38.89-9.06,4.75-10.09,7.56-10.56,23.5l-4.51-1.94-2.17.92c9.49,13.28,13.55,27.55,10.45,43.12l-2.17.36-3.24-21.7-3.87.67c.85,6.84.72,14,2.8,20.45,2.84,8.81,2.15,12.74-6.28,17.83-4.35-7,.46-12.13,3.28-17.94l-4.58,3c-5.1-13.15,4.33-22.6,9.21-33.07l-3-1.25-8.29,11.72c0-25.32,7.88-45.56,29.18-59.71L307,2076l-10.79,7.66-1.46-1.08q6.1-12.92,12.19-25.83l-3.13-1.42c-7.4,10.65-10.86,23.32-15.3,36.93-6.95-13.73,4.1-20.8,7.41-30-17.5,8.63-10.91,25.1-13.2,40.72-6.35-18.15-.35-32,7.18-45.58,1.42-2.57,2.65-5.25,4-7.88l-2.07-1.21c-8.09,3.69-8.24,13.18-13.15,19.38q1.14-9.51,2.29-19l-2.54-.21c-9.18,11.61-5.15,25.29-4.05,39.17l-11.21-10.29L261,2079.1c4.48,11.1,17.29,18.8,14.32,33.06l-7.63-7.69-2,1.12c5,12.47,14.59,24.09,8.23,39-6.17-3.73-7.92-8.75-6.26-15.6s0-13.17-5.72-18.9c-1,1.87-1.92,2.72-1.85,3.49.64,7.09,1.22,14.19,2,21.26q-3.9-9.86-7.7-20.11a37.65,37.65,0,0,1,9.93-16,8.83,8.83,0,0,0,1.26-2.31l-1.51-2-12.37,8.45c-.17-7.3-.31-13.54-.46-19.79a17.43,17.43,0,0,0-4.74,9.75A955.74,955.74,0,0,1,207,1941.7c5.29-1,9.89-3.74,14.06-7.22,1.85-1.55,2.19-3.53.53-5.29a48.79,48.79,0,0,0-7.28-6.17c-1.23-.87-2.3-1.55-2.86-3.06a28.29,28.29,0,0,0-2.4-4.16c-.67,2-.75,3.82-1.72,4.75a5,5,0,0,1-3.46,1.67q-1.29-8.68-2.42-17.52c10.64-19.39,26-36.51,35.35-56.27L207,1886.16c8.14-46,52.36-59.45,69.4-93l-3.62-3.13-41.61,44.55-2.85-2.3q9.78-21.79,19.55-43.59l-6.65-2.88-31.23,69-4-1.27q2.28-20.52,4.55-41l-4.69-.47q-2.61,20.67-5.23,41.34-1.28,10-2.57,20-1.86-21-2.66-42.58A249.69,249.69,0,0,1,209.71,1796l-6.13-2.18c-2.81,6.4-58.89-32.82-61.94-25.88L8.21,1816.12Zm1737.66-42.1,182.57,1.36L1928,59.36c-1.42,34.57-242.63,160.05-238.36,161.34s41.34,142.08,36,227.85c-4.78,76.85,72.61,70.56,84.72,67.52a1,1,0,0,1,1.34-.81c.59.13.07.44-1.34.81-1.08,4.55,8.59,27,6.13,61.41-2.86,39.68,9.21,22.51,9.56,43s-2.39,30.34-2.39,40.59-2,3.24-2.4,26.26a21.16,21.16,0,0,1-4.1,12.51c.6-6.82,2-13.59,1.44-20.48-.3-3.87.94-7.4,2.18-11a80.33,80.33,0,0,0,2.55-11.87,2.29,2.29,0,0,0-1.83-2.9c-1.53-.31-2.34.46-2.93,1.79a26.91,26.91,0,0,0-1.76,6.94c-.13.91-.37,1.92-1.3,2.16-1.09.27-1.5-.83-1.81-1.6-2.13-5.39-5-10.58-3.33-16.8a8.05,8.05,0,0,0-1-6.26c-.66-1.07-1.12-3.12-2.76-2.61a4.1,4.1,0,0,0-2.45,3.63c-.22,4.05-.28,8.63,1.81,11.79,3.64,5.52,4.74,11.71,6.77,17.68,2.59,7.64,1.69,15.32.15,23-.33,1.61-.84,3.65-2.67,3.78-2,.14-2.8-2-3.41-3.58a38.36,38.36,0,0,1-2.42-15c.18-6.3,1.62-12.62-.46-18.84-.43-1.28-.09-3.63-2.34-3.21-1.78.34-2.19,2.09-2.19,3.93,0,3.83-.06,7.65,1.37,12.07a9.77,9.77,0,0,1-3.78-4c-3.56-6-3.64-12.81-4.51-19.41-.21-1.6-.8-2.36-2.17-2.57-1.63-.25-2.19.8-2.4,2.26a20.81,20.81,0,0,0,.84,9.34c.19.61.48,1.3-.21,1.67a1.14,1.14,0,0,1-1.56-.72,5.09,5.09,0,0,0-3.19-3c-.67-.27-1.29-1.14-2-.61a2.07,2.07,0,0,0-.58,2.41c1.53,5.45,4.55,9.73,10.19,11.22a8.7,8.7,0,0,1,5.21,4c3.43,4.92,3.86,10.71,5,16.29,1,4.66,2,9.29,5.43,12.81a24.49,24.49,0,0,1,3.2,4.19c-1.05.68-2.11,1.29-3.16,1.85a15.07,15.07,0,0,0-.42-1.6,1.76,1.76,0,0,0-1.62-1.39c-1,0-1.22.68-1.41,1.47-.27,1.13-.49,2.26-.65,3.4-1.76.72-3.38,1.28-4.73,1.73a16.3,16.3,0,0,1-1.21-5.59,31.92,31.92,0,0,0-1.43-7.86c-2.12-7.42-5.45-14.49-6.55-22.21-.13-.92.21-2.35-1.33-2.28s-1.64,1.36-1.92,2.5c-.8,3.3.09,6.48.55,9.71.41,2.87,2.59,4.26,4.3,6.2,2.46,2.77,2.36,6.62,3.1,10.09.27,1.25,1.72,3,.08,3.72-1.38.61-2-1.53-3-2.47a6.7,6.7,0,0,1-.82-1.7,17.13,17.13,0,0,0-5.21-6.22,10.37,10.37,0,0,0-.63,6.37c1,4.72,4.93,7.07,7.3,10.63,1,1.51,3.49,1,4.27,3.36a16.13,16.13,0,0,0,1.43,3.21c3.28,18.39,3.39,74.83,2.65,63.62-5.33-82-6,39.55-9.55,54.92a132.53,132.53,0,0,0-2.09,16.51,5.57,5.57,0,0,1-.55-1.06c-2.74-6.32-3.4-12.75-.84-19.26.86-2.18,2.9-4.63-2-3.32-2.54.68-2.62-1.64-2.9-2.92-1.74-8.25-3-16.53,4.49-23,1.36-1.18,1.3-2.77,1.84-4.17-4.06.8-5.68-.85-5.37-5.1.28-3.92.06-7.88.06-12.61-2.87,1.67-1.73,7.8-7.32,3.8,5.6,5.87,4.62,12.72,5.41,19.11.17,1.35.17,3.09-1.29,3.78-2,.93-2.8-1-3.8-2.15-9.31-10.53-8.82-23.71-9.71-36.5a3.68,3.68,0,0,1,1-2.71c8.28-6.78,7.88-16.21,8-25.5,0-2.75,0-5.51,0-8.26l-1.55-.19c-.22,3.29-.79,6.61-.56,9.87a33.05,33.05,0,0,1-2.56,15.3c-.63,1.52-1,3.55-3,3.08-2.17-.51-1.34-2.72-1.06-4.13,2.35-12,2-24.12,1.77-36.23,0-2.11.47-4.45-2.77-7.49,0,9.62-.07,17.92,0,26.23a51.34,51.34,0,0,1-1.39,13.15c-2.37,9.55-1.61,19.25,0,28.87.29,1.75,1.37,3.84-.95,4.73-1.9.72-2.76-1.33-3.66-2.54a16,16,0,0,1-3.38-11.26c.57-7.21.63-14.47.94-21.7,0-1.11,0-2.11-1.35-2.16-1.61-.05-2,1.22-2,2.45.06,4.84.15,9.69.43,14.52.23,4.1-1,6.05-5.27,4.5,1.32,7.06,6.64,12,10.36,17.59a152.42,152.42,0,0,0,12.23,16.46c3.69,4.18,4.87,9.31,6.23,14.73,3,12.09,3.81,24.64,7.89,36.47.43,1.24,1.94,2.73.32,3.78-1.8,1.18-3-.49-3.8-1.87-3.38-5.72-9.28-10.54-6.6-18.5a2,2,0,0,0-1.74-2.64c-1.16.57-1.06,1.6-1,2.59.07,3.69-1.44,4-3.83,1.65a36,36,0,0,1-4.37-5c-1.44-2-1.33-4.82-5.76-2.53-2.9,1.5-6.13-3.23-7.56-6.53s-2.74-6.77-2.28-10.55c.17-1.4.29-2.82-1.26-3.56-2.28,1.37.31,4.12-2.63,5.91l-12.82-18.29c1.41,10.31,9.25,15.56,12,23.59a57.29,57.29,0,0,1-20.53-23.94c-.81,3.33-.48,5.6,2.38,9.07,6.29,7.63,11.75,15.26,21.45,20.38,12.38,6.53,24.18,15.29,31,29.07,2.77,5.6,7.67,9.84,8.35,16.9l0,.22c-.83,21.9-.68,45.48,1,52.07,1.18,4.75,5.89,24.79,11,48.49l.24-.51c0,.12,0,.23,0,.35l-.08.16c-4.54,9.95-1.09,22.49,5.67,28.31,0,.06,0,.13,0,.19l.93,4.79a.22.22,0,0,1,0,.08l-.33.16.89,2.74c.09.43.17.85.25,1.28s.27.84.4,1.25c.29,1.58.59,3.15.87,4.71l-.14.15c-5.82,6.55-3.42,13.8-1.83,21-.7-1.42-1.4-2.84-2.73-5.5-.24,4-.4,6.57-.56,9.15-1.49-2.92-1.47-5.83-2-8.64a42.31,42.31,0,0,0-2.45-6.53l-3.91.85v21.84l-1.33.08q-2.49-9.66-5-19.32l-2.09.52,6.84,28-1.13.36c-2.86-6.88-5.74-13.76-8.77-21l-3.82,13.91-1.2-.25v-8c-.17-.93-.33-1.85-.49-2.78l-16.61-27-1,.37q7.59,16.49,15.15,33l-1.09.44-19.5-33.66-1.88.91,19.38,37.08-.26-.14c2,2,4,4,6,5.92l6,7.47c0,.56,0,1.13,0,1.69a51.92,51.92,0,0,1,5.44,3.36c2.19,1.73,3,3.47-1,3.8,0-.4,0-.8-.06-1.2l-.12-.11h-1l-1.94,0-1.5-.1,6.69,9.16c-8.29-1.53-13.88-6.34-17.71-13.81.17,1.65.35,3.3.64,6.07l-9.77-15.88c.33,3.45.47,4.8.6,6.16l-1,.23-4.91-9.56c-.28,2.32-.42,3.09-.47,3.87s0,1.65,0,4.07c-3.77-10.65-7-19.71-10.17-28.77l-1.51.45,3.06,12.32-1,.37q-5.17-14.49-10.37-29l-1.74.59c.57,3,1.13,6,1.7,9l-1.46.36q-3.26-12.42-6.49-24.83c0,9.82-.53,19.68,2.07,28.65,2.38,8.21,8,15.52,12.37,23.12,2.34,4.07,5.06,7.91,7.62,11.86l-3,2.13-11.54-17.27c-.17,2.47-.28,4-.39,5.61-2.94-3.5-4.32-7.32-6-11-1.85-4-4-7.92-6-11.88-1.68-3.33-3.31-6.68-5-10l-1.84,1.09,6.49,16.74-1.81.81q-3.69-7.07-7.37-14.15l-2.45,1.34,12.3,21.61-1.86,1L1707.68,1033c1.55,14.71,9.93,22.52,19.13,29.79-6.87,4.52,2.65,6.48,1.38,11.87L1714,1057.42l-1.81,1.28,8.32,14.39-15.53-14.47-2.35,2.55,18.89,18.14a85.89,85.89,0,0,1-8.44-4.2c-2.87-1.79-5.42-4.08-8.12-6.15,2.23,8.4,14.53,15.55,22.63,13.34s13.9,3.44,21,4.46c4.86.7,9.46,3.16,14.31,3.9,8.44,1.3,17,1.87,25.51,2.74l-.15,1.72h-21.08l2.92,3.61,2.07,5.41c3.78-.63,7.62-1,11.33-1.94,9-2.18,17.77-.94,26.53.2,0,.85,0,1.69-.07,2.53l-22.85,2.16a.89.89,0,0,0-.07-.16l.72,1.78c-3.94,1.59-3.94,1.59-17.92-1.55l2,3.78-1,1.73-14.36-9.29c-.33-.19-.66-.36-1-.52l-3.19.51c1,1.12,1.62,1.84,2.24,2.58s1.23,1.51,2.72,3.31c-11.34-5.33-11.34-5.33-14-3.4,3.82,7.37,10.53,7.82,17.8,8l-5.69,1.35c5.95,5.88,14-3.86,19.26,3.35l20-8.52.57,1.48-14.34,5.92c4.18,0,9.21.12,12-2.34,6.42-5.72,13.5-6.17,20.67-5.74a318.88,318.88,0,0,1-5.45,43c-.83-1.56-1.73-3.58-3-5.68l-19,1.22c0,.58,0,1.16,0,1.74l5.2,3.41h-7.45l11.55,4.52c-.29.77-.58,1.54-.88,2.31-3.45-1.49-6.83-3.17-10.37-4.43-3.71-1.32-8-3.77-8.94,1.63l-26.65-9.89,13.18,13.2-9.15,1.16,7.83,4.44c-9.64,1.38-17.54-9.71-28.5-2.56,8.56,11.59,23.52,8.48,33.42,17.29-8.37-1.58-16.79-1.88-24.1-4.87-9.84-4-9.48-4.92-11,5.26,10.36,1.25,20.81,2.06,31.07,3.87,8.67,1.54,17.47,3.42,25.57,6.71a34.26,34.26,0,0,1,8.85,5.89q-2.73,7.8-6,15.87c-.1.23-.2.46-.29.69a344.84,344.84,0,0,1-16.2,33.89q-6.12,11.19-11.8,22.48a10.46,10.46,0,0,0-5.1-6.89,17.18,17.18,0,0,0-.39,8.11,6.61,6.61,0,0,1,.37,1.85c-.18,1.32.58,3.42-.89,3.76-1.75.41-1.64-1.85-2.18-3-1.51-3.2-3.91-6.22-3.63-9.91.2-2.57,1.1-5-.31-7.54-1.59-2.85-2.79-5.93-5.43-8.07-.91-.74-1.87-1.63-3-.83s-.14,1.81.31,2.61c3.79,6.83,5.4,14.47,8.19,21.67a32.29,32.29,0,0,0,3.61,7.13,15.85,15.85,0,0,1,2.08,4.1c-.8,1.64-1.58,3.28-2.36,4.92a31,31,0,0,0-4.7-4.67c-.63-.52-1.24-.94-2-.33a1.76,1.76,0,0,0-.46,2.09,15.6,15.6,0,0,0,3.33,5.48,10.62,10.62,0,0,1,1.57,2.21q-2.29,4.9-4.49,9.76a3.86,3.86,0,0,1-.45-1.3c-1.11-6.46-3.77-12.67-2.94-19.46.59-4.87-1.35-9.2-3.42-13.49-2.47-5.13-5.62-10-5.85-16a8.69,8.69,0,0,1,1.76-6.3c3.59-4.59,3.42-9.83,1.35-15.09a2.08,2.08,0,0,0-1.93-1.58c-.91,0-.88,1.11-1.26,1.73a5.06,5.06,0,0,0-.7,4.35,1.14,1.14,0,0,1-.81,1.51c-.77.13-1-.6-1.18-1.2a20.77,20.77,0,0,0-5-8c-1-1-2.13-1.52-3.28-.34-1,1-1,2-.17,3.35,3.29,5.79,7.34,11.26,8.12,18.2a9.76,9.76,0,0,1-.62,5.43c-1.53-4.39-3.89-7.39-6.2-10.44-1.11-1.48-2.5-2.63-4.12-1.81-2,1-.36,2.68.07,4,2.1,6.22,7.07,10.39,11,15.3a38.52,38.52,0,0,1,7.11,13.39c.48,1.65,1.14,3.79-.56,4.91-1.54,1-3.18-.31-4.41-1.4-5.86-5.18-11.21-10.75-13.75-18.41-2-6-4.86-11.58-5.29-18.19-.24-3.78-3-7.38-5.68-10.49a4.06,4.06,0,0,0-4.14-1.4c-1.61.58-.74,2.49-.62,3.74a8,8,0,0,0,3,5.61c5.12,3.93,5.93,9.83,7.48,15.4.23.8.56,1.93-.47,2.37-.88.37-1.68-.29-2.34-.93a26.64,26.64,0,0,0-5.6-4.48c-1.27-.7-2.38-.82-3.41.35a2.28,2.28,0,0,0,.29,3.41,79.17,79.17,0,0,0,9.2,7.92c3.18,2.15,6.3,4.21,8.4,7.48,4.57,7.11,11.29,12.35,16.48,18.93a16.14,16.14,0,0,1,3.19,15c-.34,1.25-.94,2.5-2.52,2.41s-1.78-1.61-1.76-2.57c.08-3.73-1.8-7.05-2.63-10.47a17.51,17.51,0,0,0-8.38-11.08,1.74,1.74,0,0,0-2.14.06c-.66.66-.21,1.42.09,2.11a107,107,0,0,0,7.36,13.67c.79,1.25,1.74,2.56.44,3.71-1.52,1.34-2.67-.25-3.39-1.28-3.87-5.47-7.37-11.12-8.38-18-.44-3-2-5.68-3.42-8.34a2.19,2.19,0,0,0-2.26-1.13c-1.16.1-1.28,1.1-1.43,2-.88,4.81,1.47,8.81,3.48,12.81,1.36,2.69,3.82,4.79,4.73,7.78.27.88,1.06,2.13-.23,2.69s-2.21-.52-2.54-1.65c-1-3.3-3.82-5-6-7.15-.82-.81-1.94-1.47-3-.41s-.41,2.08.13,3.12c2.57,4.9,5.94,8.8,11.73,9.92,3.5.68,6.25,3,8.82,5.1,4.69,3.89,9.36,5.09,13.68,4.54-29.79,67.62-46,125.16-44.47,125.16,3.93,0-4.78.5-12.49,43,4.27,11.55,9.66,8,7.88,38.75-1,17.92,36.87,23.35,35.8,24.79h0c2.49,0-9.26,17.92-7.48,30.73.91,6.58,4.08,57.68,6.66,114.52-.86,1-2.32,1.24-4.47.83.54,1.4.48,3,1.84,4.16.51.44,1,.88,1.4,1.33-.23.24-.63.33-1.32.23-2.73-.41-3.17-3.74-3.05-6.58.06-1.36,1.59-4-1.18-3.81-2,.1-1.19,2.7-1.27,4.24a7.17,7.17,0,0,0,1.19,4.23,68.18,68.18,0,0,1,3.36,6l.16.31-1.59,0a18.93,18.93,0,0,1,1.92,3.16,2.18,2.18,0,0,1-.55.47c-1.57,1-2.21-.87-3.16-1.64-1.34-1.09-1.9-3.57-4.63-2.67,1,3.76,4.32,5.19,6.27,7.76,2.88,3.81,2.21,5.69-2.32,6.39a25.44,25.44,0,0,1,2.89,4.82,12.72,12.72,0,0,1-4.32,3.38,6.64,6.64,0,0,1-2,.64c0,.26,0,.53,0,.79-.13-.25-.26-.5-.38-.75a1.86,1.86,0,0,0,.33,0c-.42-6.48-.65-13-1-19.48a27.52,27.52,0,0,0-1.1,5.89c-1.3,1.65.35,5-2.66,4.43s-4-3.7-4.09-6.64,1.73-4.9,3.22-7.08c.87-1.26,1.42-2.65.58-4.15a1,1,0,0,0-.81-.38c-1.79.37-1.41,2-1.72,3.18s-.68,2.82-2.3,2.79c-2,0-2-1.79-2.32-3.27-.65-3.51,0-6.47,3-8.81a33.06,33.06,0,0,0,4.48-4.6c.7-.83,1.8-1.65,1.35-3-.25-.77-1-.74-1.63-.6-1.39.29-2.41.82-2.65,2.48a7,7,0,0,1-2.76,4.56c-1.47,1.15-2.84,1.19-3.33-.94a14.17,14.17,0,0,1-.37-3.57,8,8,0,0,0,2.15-6,12.77,12.77,0,0,1,7.9-4.07c2.47-.43,5.1-.68,6.77-3.21-2,.3-3.23-4.61-5.35-.79-.94,1.7-2.06,2.33-3.47,1.78-2.34-.9-.43-2.55-.13-3.7.73-2.82,2.69-5.54-.23-9.21-.63,3.73-3,6-2.49,9.43.28,1.9-1.29,3.34-2.56,4.64a9.73,9.73,0,0,1-.75.69c-.29-5.57.31-11.13.15-16.69-.1-3.68-.52-7.35-.84-11.61-2.07,1.8-1.48,3.28-1.52,4.61-.24,8.13-.44,16.25-.7,24.37a1.85,1.85,0,0,1-.29-.13c-1.48-.8-1-2.29-.8-3.58.35-2.27,1.47-4.49.52-6.82-.52-1.25-.16-3.74-2.07-3.3s-.41,2.45-.36,3.79c.13,2.95,2.25,6.73-3.23,7.3-.12-3.3-.22-6.6-.5-9.89-.2-2.31.54-5.71-3.62-5.7a11.26,11.26,0,0,1,.37,8.78c-.31.95-1.49.79-2.07.34-2.73-2.09-3.8-5.07-4-8.4-.06-.8.1-1.62.06-2.42-.43-8.18-.88-16.35-1.36-25.2-2.2,3.74.25,8.66-4.6,10.51-1,.38-.37,1.48.23,2,3.21,2.6,2.22,6.24,2.48,9.58.57,7.07.82,14.23,7.52,19a5.06,5.06,0,0,1,2,3.56c-.13,5.65,2.49,10.88,3,16.46a8.65,8.65,0,0,0-.84,3.09c-.63,3.59-1.78,6-3.87,6.19a1.81,1.81,0,0,0-1.3-2.18c-.72.09-1,.78-1.19,1.52a13.67,13.67,0,0,1-2.41-1.74,5.24,5.24,0,0,0-1.59-1,5.55,5.55,0,0,1,1.09-1.75c.28-.3.48-.66.78-.93,3.76-3.56,2.56-7.5,1.33-11.85-2.11,1.49-1.2,3.26-1.57,4.71s0,3.51-2.13,3.86-2.31-1.73-3-3.1c-2.57-5.1-2.19-10.57-2.12-16,0-3,.9-6.18-1.2-9-1.73,1.16-1.43,2.46-1.53,3.63a56.38,56.38,0,0,0,4.74,28.1c.43,1,.84,2,1.22,3-.61.6-1.17,1.42-1.89,2,1.21.74,2.29,1.37,3.28,2,1.57,4.86,2.76,9.87,4,14.86-1.47.1-3,0-4.39.26a11,11,0,0,0-4.08,1.38,9.3,9.3,0,0,1,1.68-3.47c.79-1.06.39-3-.75-4.32-1.51,1.45-.35,4.39-2.9,5-3.91.91-2.13-4.29-5-4.87-1,2.42-.07,4.26,1.05,6.29q1.3,2.37,2.53,4.79a15.13,15.13,0,0,0-1.6,3.63c1-.44,1.92-.84,2.82-1.22,1.13,2.25,2.22,4.5,3.32,6.76.85,1.76,2.22,4.15,0,5.33-1.76.94-3-1.41-4.11-2.79-7-8.45-10.17-18.77-13.53-28.89-1.27-3.84-1.85-8.3,2.55-11.53,3-2.23,1.5-5.24.28-9.71-.56,3.07-.77,4.45-1.06,5.8-.38,1.75-.47,4-2.94,3.89-2-.05-2-2.21-2.77-3.56-1.37-2.49-.61-5.87-3.38-8.6-1.47,3.5-.55,6.13.36,8.74,1.07,3,2.23,6,3.25,9.11.57,1.72,1.23,3.68,0,5.23s-1.79,2.14-1.72,2.73c-4.94.63-9.73,6.31-10,11.8s-4,8-9,5.24a56.13,56.13,0,0,1-8.78-6.5c-3-2.5-5.31.79-8,.76-1.34,0-1.93,1.62-1.71,3.06.54,3.47,3.48,2.36,5.59,2.91,4.88,1.27,9.43,3.22,13.09,6.81,2.93,2.88,5.48,6.2,3.37,10.42s-5.79,5.88-10.51,5.13c-1.2-.19-2.24-1.54-3.62-.41-6.27,5.12-12.55,3-18.86,0-2.19-1-5-2.09-6.47.17-2,3.13,2.41,3.24,3.24,4.94,1.78,3.61,10.61,4.6,4.48,11.35-1.15,1.27-4.7,2.46-2,4.62,2.24,1.76,3.51-1.6,4.68-3,5.38-6.22,11.28-10.93,20.25-9.66,1.38.2,3-.62,4.39-1.26,8.33-3.84,21.74,2.35,27,12.57,3.24,6.25-.81,14.78-9.54,20-3.08,1.84-6.1,3.2-9-.46-2.48-3.11-5.59-2-8.66-.94.8.9,1.81,1,2.59,1.55,2.34,1.54,5.58,2.74,5.18,6.16s-4.06,2.64-6.18,3.92c-3.61,2.19-8.62.54-12.9,4.74,5.27.75,9.21.84,13.24-.14,10.27-2.5,11.53-1.3,9.54,8.65-.37,1.85-2.48,4.44.42,5.42s2.41-2.77,3.85-4c1.6-1.42,1.47-3.28,1-5.12-1.86-7.72,3.1-12.21,7.91-16.77,3.23-3.07,5.53-2.12,7.1,1.73,3,7.41,3,7.41,10.37,2.63-4.62-2.16-9.53-4.33-7.82-10.67,1.23-4.55,8.94-7.65,14-5.88,19.31,6.79,39,13,45.75,35.94a5.43,5.43,0,0,0,.93,1.6c0,8-.08,15.21-.29,21.33-.74,22.2,33.54,82.37,27.15,154.79M1801.6,995a31.48,31.48,0,0,1-1.88-8.51c-.2-2-.27-4-.4-6.86.83,3.88,1.68,7.85,2.5,11.85,0,.18.07.36.11.54Zm-46.61,88.1c-6-3.71-12.15-7.24-18-11.24-2-1.39-1.56-7-6.28-3.28-1.11-1.91-2.23-3.81-3.34-5.71,5.46.66,5.26,1.1,12.53,8.76,3.18,3.36,8.12,5.06,12.26,7.51l3.74,2.24Zm-46.22,657.66a16.47,16.47,0,0,0,.41-4.43c0-.32,0-.64,0-1a9.43,9.43,0,0,1,.67,1.36c.74,2,.35,3.26-1,4a2.22,2.22,0,0,1-.09.37l-.46-.12A4,4,0,0,0,1708.77,1740.78Zm-4.6-32.76a20.81,20.81,0,0,0,3,6.47,5.81,5.81,0,0,0,.61,4.24l-.14-.09c-6.27-4-7.64-9.7-8.29-15.66l.25.15C1701.64,1704.3,1703.61,1705.58,1704.17,1708Zm3.14,24c0,.12-.06.24-.08.36-.09.41-.16.8-.22,1.19-.49,3.05-.41,5.64-1.71,7.88l-.06.1c-.25,0-.5,0-.76,0-1.34,0-2.78-.65-4,.36l-.18-.37c-.86-1.83-2-3.7-1.15-5.76a29.69,29.69,0,0,0,2.12-11.85,81.35,81.35,0,0,1,5.91,8.27A1.68,1.68,0,0,1,1707.31,1732.07Zm-6.48-34.16c-.71.9-1.34,1-1.94.8-.16-1.69-.34-3.38-.65-5-.2-1.09.47-2.6.06-3.57a7.58,7.58,0,0,1,.33-.86c.43.59.85,1.19,1.25,1.81C1701.22,1693.15,1702.73,1695.49,1700.83,1697.91Zm-2.65-21.85a7.71,7.71,0,0,1,2.91,4.38c-.35,1.36-1.08,2.49-2.57,2.58-2.62.17-2.73-2.7-2.87-4.55-.12-1.52-.2-3-.26-4.56C1696.29,1674.66,1697.27,1675.31,1698.18,1676.06Zm-2.34,9.56-.21,0,.13-.13ZM1698,1721a22.7,22.7,0,0,1-.5,6.79c-.27,1.13-.38,2.56-1.91,2.71a2.33,2.33,0,0,1-2.58-2.1,33.12,33.12,0,0,0-2.1-9.63A11.84,11.84,0,0,1,1698,1721Zm-9.5-16.84c2.45,1.67,4.43,3.69,3.59,7.18a4.45,4.45,0,0,1-2.53,3.28A22,22,0,0,1,1688.54,1704.2Zm-10.12,17.56a45.87,45.87,0,0,1,9.09-2.66c2.15,8.34,4.73,16.54,9.71,23.91a3.72,3.72,0,0,1,.48,1.12c.23,1,.45,2-.38,2.83-1.08,1.07-2.26.66-3.31,0-4.1-2.63-8.09-5.24-9.4-10.53a35.09,35.09,0,0,0-3.66-9.57A28,28,0,0,1,1678.42,1721.76Zm23.13,43.07c-15.91-2.89-29.51-10.5-41.56-21a22.13,22.13,0,0,1-6.16-25c1.23-3.11,3.43-5.85,5.37-8.64a7.89,7.89,0,0,0,.73-1.25,11.78,11.78,0,0,1,1.17,3.63c3.8,18.18,16.86,28.83,31.53,37.62,5.85,3.5,12.17,6,16.74,11.39a25,25,0,0,0,2.14,2.23C1709.05,1767,1705,1765.45,1701.55,1764.83Zm11.77-5.89a12.62,12.62,0,0,1-2-1.4c-4-3.23-6-7.07-4.34-11.94A13,13,0,0,1,1713.32,1758.94Zm15.25-20.75c0-.18,0-.37,0-.55a.86.86,0,0,1,0-.16c.14-1.31.29-2.62.45-3.92,0-.4.09-.8.14-1.19l0-1c0,.13.08.26.11.39a10.3,10.3,0,0,1,.45-1.8c-.12.7-.25,1.39-.39,2.09a6,6,0,0,1-.06,2.35c.1,2.71.2,5.41.28,8.1C1728.46,1741.55,1728.51,1739.75,1728.57,1738.19Zm-1.11-37.52c.14-.72.28-1.45.39-2.19,0-.13,0-.25,0-.37a.24.24,0,0,1,.06.09,2.74,2.74,0,0,1-.05.28c0,.72.07,1.43.09,2.15Zm1,55.54,1.53-2.27c.12,3.81.23,7.59.33,11.3A50.11,50.11,0,0,1,1728.43,1756.21Zm-342.16,2786.3-4.48-3.2q2.64-.42,5.26-.87l1.47,1.21Zm-111,329.91c-7.83,0-16.82,2.41-23.19-.64-4.52-2.17-8.1-6.29-12.19-11.24a8.9,8.9,0,0,1,2,.46c2.58,1,3.87,3.56,8,1.83,3.34-1.39,8.34,1.22,12.61,2a9.06,9.06,0,0,0,2.65-.52l-3.22-5.32.22-.18c4.63,2.41,9.39,4.87,14.15,7.33C1275.94,4868.21,1275.59,4870.31,1275.24,4872.42Zm-1081.76-3398c4.59-7.9,8.78-10,15.62-8,.19,5.33.37,10.26-4.77,14.28-1.88,1.48-2.27,6.57-1.42,9.44,1.58,5.34.12,8.46-5,11C187.19,1490.24,186.57,1486.33,193.48,1474.43ZM180.05,1514c1.78,2.58,3.78,5.71,3.79,8.59,0,2.62-2.44,5.26-3.86,7.88-1.7-7.88-3-15.28-3.92-22.26Zm-5.7-44a5,5,0,0,1,.06-1.13,145.06,145.06,0,0,1,1.81-15.38c3.16,4,2.62,7.21-1,13.41a5.94,5.94,0,0,0-.84,2c0,.37,0,.75-.06,1.13.07,1.76.81,4.67,2.48,11.08-1-.48-1.89-1-2.77-1.48C174.07,1476.35,174.16,1473.15,174.35,1470.07Zm-19.8-740a23.65,23.65,0,0,1,1.32,5.35c.48,4.35-.6,8.88-1.65,13.84q-2.67-8-5.8-16.66A31.9,31.9,0,0,0,154.55,730ZM600.79,4691.68l.08.07,0,0s0,0,0,0l-.09.06Zm52.88,89.24c.11-.75.21-1.5.32-2.24,2.1-14.66,4-27.57,5.76-40.25l4.89,4-3.82,6,.76,1.19,7.45-2.32-14.35,31.34Zm649.05,62.5-4.3-6.72a19.59,19.59,0,0,0,4.49-1.5Q1302.85,4839.46,1302.72,4843.42Zm135.24-467c-.64-1.07-1.24-2.08-1.89-3.19l2.37-2C1438.28,4372.92,1438.12,4374.66,1438,4376.45Zm107.43-598.74c-.78-33.7,21-61.71,29-92.83l-22.08,42.7c-.52-32.32,18.88-52.62,34.31-74C1574.49,3701.28,1559.27,3741,1545.39,3777.71Zm217-2116.22a1.29,1.29,0,0,0,0-.19l.13.13ZM1814,1093.64l-1.4.88c-3-4.21-5.18-10.15-9.29-12.25-7.3-3.74-2-9.36-3.69-13.77s-1.62-9.65-2.49-15.72c7.05,3.12,10.82,5.34,7.46,12.28-1,2,2,6.88,4.38,9.3A20.66,20.66,0,0,0,1814,1078c.06,1.81.12,3.8.16,6l-5.47-.46,5.52,3.61c0,.36,0,.73,0,1.1l-1.18.35Q1813.52,1091.08,1814,1093.64ZM1820,765.77v0Z"/><path class="cls-1" d="M1499,2682.12c-1.62-.57-4.17-1.07-4.16-1.52a52.26,52.26,0,0,1,1.2-10.51c.12-.52,2.8-.47,3.74-1.31,2.3-1.36,4.74-4.06,6.88-3.85,11,1.1,22.06,2.55,32.92,4.71,5.1,1,5.27,2.85,1,6a89.84,89.84,0,0,1-15.52,9.65,41.29,41.29,0,0,1-15,3.68c-3.45.14-7.07-2.1-10.43-3.67C1498.9,2685,1499.08,2682.89,1499,2682.12Z"/><path class="cls-1" d="M1023.54,3412.5c1.87.32,4.59.3,4.73.9a42,42,0,0,1,1,9.95c0,.44-2.81.86-3.41,1-.92,1.78-1.32,3.81-2.55,4.7-4,2.9-8.39,3.87-13,.9a6.63,6.63,0,0,0-3.64-1.36c-10,.88-16.34-5.44-22.88-11.3-.53-.48,0-3.37.76-3.82a21.74,21.74,0,0,1,7.43-2.71c8-1.18,16.11-2.22,24.21-2.86C1021,3407.55,1022.47,3408.94,1023.54,3412.5Z"/><path class="cls-1" d="M1156.24,3296.79c-5.3,1.63-5-2.13-4.81-5.26s-.55-7,4.78-6.34c.49.06,1.38-.15,1.49-.44,1.88-5.21,6.36-4.39,10.14-3.94,8.87,1.05,17.78,2.19,26.49,4.12,5.81,1.29,6,3.17,1.1,6.82a76.47,76.47,0,0,1-14.33,8.75c-4.51,2-9.6,2.75-14.51,3.68C1161.46,3305.15,1155.76,3301.08,1156.24,3296.79Z"/><path class="cls-1" d="M1070.81,3399.74c.22-3.93,3.72-4.81,6.71-4.47,10.19,1.17,20.39,2.55,30.43,4.61,5.1,1,5.18,2.76,1.32,6.08-6.35,5.46-12.72,10.81-22,9.93-1.28-.12-2.69,1.16-4,1.82-5.9,2.89-11.37.89-14.22-5.17a1.9,1.9,0,0,0-.84-.84,7,7,0,0,1-2-11.24C1067.05,3399.66,1069,3400,1070.81,3399.74Z"/><path class="cls-1" d="M903.57,3354.11c1.77.17,4.32,0,4.43.48a45.71,45.71,0,0,1,1.39,9.94c0,.64-2.29,1.33-3.93,2.22-.06,3.47-5.74,7.58-10.89,6.49-5.36-1.12-10.9-2.14-15.8-4.43-5.31-2.48-10-6.28-14.89-9.68-2.43-1.7-1.66-3.42.74-4.4a31.8,31.8,0,0,1,7.55-2.48q12.32-1.65,24.71-2.67C900.18,3349.32,903.24,3350.29,903.57,3354.11Z"/><path class="cls-1" d="M666,3241.23l-1,2.21c.11-.75.21-1.5.32-2.24Z"/><path class="cls-1" d="M1229.75,3216.12c.76,3.44,1.06,5.41,1.63,7.29,2.28,7.58,4,8.49,11.84,6.65a44.7,44.7,0,0,1,5.81-.64l.73,1.2c-2,1.72-5,3.13-5.62,5.24s1.22,5,1.29,8.68l-11.88-7.4,4.6,5.13a40,40,0,0,1-4.37,1.45c-3.74.7-7.48,1.39-11.25,1.81-1.18.13-2.47-.64-4.72-1.3l-5.22,3.18,2-6.11c-2.82-.94-5.55-1.72-8.18-2.77-1.42-.56-3.12-1.33-3.79-2.51-.35-.62.94-2.86,2-3.47a66.92,66.92,0,0,1,11.93-5.92c3.08-1,5.62-1.81,7.26-5.05C1224.86,3219.61,1227.26,3218.35,1229.75,3216.12Z"/><path class="cls-1" d="M1356.28,3101.66l-.32-4.18-10.16,3.1c.16-1.08.27-1.8.38-2.54l-10.08,3.15-.81-1.17c1.36-2.13,2.71-4.27,4.08-6.41-3.16-2.59-6.24-5.09-9.31-7.6l.76-1.29c3.93,1,7.85,2.12,11.8,3.12,4.19,1.06,6.56,0,6.83-4.93.3-5.57,1.38-5.85,6.54-4.07a23.71,23.71,0,0,0,8.5,1.13c6.85-.29,13.27.18,18.21,6.53l-10.47,8.81c-3.79.25-6.76-.17-9.18.79S1359,3099.37,1356.28,3101.66Z"/><path class="cls-1" d="M1466.24,2785c2.48,2.3,5,3.7,6,5.82,1.56,3.08,4,3.7,6.82,4.81a108.56,108.56,0,0,1,13.6,6.91,3.6,3.6,0,0,1,1.31,3.21,4.15,4.15,0,0,1-2.9,2.11c-3.53.57-7.17.5-10.67,1.18-6.19,1.18-12.31,2.73-18.77,4.2-.09-1.84-.19-3.86-.3-6.18l-11.48,7.37-1.27-1.29,3.42-7-6.79-6.28c.23-.45.46-.9.68-1.35,2.5.4,5,.63,7.49,1.24,6.16,1.52,8,.7,10.13-5.26C1464.5,2791.86,1465.1,2789.11,1466.24,2785Z"/><path class="cls-1" d="M1535.44,2726.9c-.07-1.31-.16-3.19-.27-5.52l-11.57,7.22-.85-1c.81-2.65,2.71-5.59,2.11-7.88-.56-2.12-3.78-3.55-5.83-5.28.2-.54.41-1.07.62-1.61,2.29.33,4.63.47,6.88,1,7.22,1.72,8.9.86,11.27-6.38.72-2.18,1.13-4.46,2-7.83,2.31,1.87,4.77,3,5.76,4.85,1.93,3.65,4.86,4.66,8.5,5.82,4.33,1.37,8.28,4.06,12.24,6.43.9.54,1.91,2.49,1.58,3.13a5.73,5.73,0,0,1-3.31,2.46,51.28,51.28,0,0,1-6.81,1.19Z"/><path class="cls-1" d="M822,3249.68c-2.49,1.68-4.59,3-6.52,4.44s-3.4,3-5.14,4.55c-2.7-2.08-6.83-1.27-9.74,2a7.81,7.81,0,0,1-3.63,1.82c-.2.06-.9-1.58-1.4-2.5l-9.68,2.92.9-2.71-9.88,3.33-.9-1.21,3.82-6.17-8.91-7.27.75-1.4c3.24.95,6.45,2,9.71,2.82,5.94,1.54,7.35.7,8.08-5.23.53-4.22,2.38-4.67,6.08-3.38a26.22,26.22,0,0,0,8.95,1.26C811,3242.81,817.14,3243.21,822,3249.68Z"/><path class="cls-1" d="M781.75,3328.83l-8.73-7,.76-1.34c3.43.92,6.84,1.93,10.29,2.75,5.57,1.32,6.65.55,7.43-5,.67-4.83,1.47-5.09,6.21-3.56a26.41,26.41,0,0,0,8.49,1.12c6.6-.12,13,0,17.41,6.44l-11.24,9.32c-6.11-5.56-8.93,4-14.2,4l-.47-2.8-9.75,2.93c.3-1.15.5-1.88.69-2.57l-9.62,3.14-.9-1.08C779.28,3333.13,780.44,3331.12,781.75,3328.83Z"/><path class="cls-1" d="M786.11,3409.4l-11.19-9.15c4.29-6.6,10.69-6.59,17.24-6.57a24.83,24.83,0,0,0,9-1.25c4.09-1.61,5.35-.24,5.91,3.61.85,5.92,1.88,6.5,7.79,5,3.33-.84,6.63-1.79,9.94-2.69l.74,1.24-8.86,7.28,3.88,6.14-.72,1.13-9.89-3.11c.13.54.27,1.17.56,2.45l-9.34-2.68c-1.43,3.18-3.1,3.35-5.48.42S788.83,3407.5,786.11,3409.4Z"/><path class="cls-1" d="M1113.34,3331.66l-8.22,9.32c.9,1.49,2.16,3.54,3.41,5.59l-.79,1.16-8.54-3c-3.82,2.28-6.77.6-9.58-.8-2,2.51-3.69,4.54-6.08.36-1.55-2.7-6.83-3-9.2-1.19L1062.13,3333c3.76-2,6.75-4.34,10.12-5.13,6.33-1.48,13.25,1.23,19.52-2.3.34-.2,2.91,2.14,3.26,3.59,1.52,6.33,2.87,7.22,9.4,5.28,3-.89,6.06-1.7,9.09-2.55Z"/><path class="cls-1" d="M1088.14,3160.17c.2,1.13.36,2.27.6,3.39,2,9.58,4.09,10.94,13.44,9a40.3,40.3,0,0,1,5.06-.39c.18.42.36.84.53,1.26l-6.5,5.77,3.35,6.85-1.16,1.29-11.17-7v5.38c-9.22-1.49-18.2-2.85-27.14-4.45-1.6-.29-3-1.53-4.52-2.33.88-1.44,1.42-3.49,2.71-4.21,4-2.25,8.38-3.9,12.52-6a25,25,0,0,0,5.3-3.6c2-1.77,3.77-3.85,5.63-5.79Z"/><path class="cls-1" d="M1152.26,3240.93l-11,7.18L1140,3247l3.12-7-6.42-5.66c.18-.47.35-1,.52-1.42a60.54,60.54,0,0,1,6.33.84c7.2,1.74,9.06.81,11.33-6.26.7-2.16,1.08-4.43,1.83-7.59,2.15,1.73,4.33,2.7,5.23,4.37,2,3.66,4.77,5.21,8.78,6.18,3.76.91,7.27,3.18,10.61,5.28,1.23.78,1.68,2.81,2.48,4.27-1.38.69-2.69,1.75-4.15,2-3.22.56-6.55.45-9.75,1.07-5.74,1.11-11.41,2.56-17.36,3.93C1152.46,3245.14,1152.37,3243.23,1152.26,3240.93Z"/><path class="cls-1" d="M1210.45,3342.89v-6.39l-11.14,7.07-1.25-1.27,3.26-6.74-6.53-5.81.63-1.43a69.79,69.79,0,0,1,6.95,1.09c6.13,1.58,8.06.71,10.12-5.23.86-2.49,1.4-5.08,2.4-8.78,2.34,2,4.88,3.31,5.9,5.35,1.55,3.08,3.91,3.75,6.78,4.79a87.07,87.07,0,0,1,12.76,6.42c.91.52,2,2.53,1.62,3.11a6.13,6.13,0,0,1-3.39,2.37,30,30,0,0,1-5.4.76c-3.9.47-7.85.69-11.7,1.47C1217.85,3340.4,1214.36,3341.72,1210.45,3342.89Z"/><path class="cls-1" d="M942.84,3405l-6.38,5.48,3.22,6.83-1,1.26-11.12-6.86c-.14,2.05-.26,3.91-.35,5.17-9.3-1.44-18.47-2.78-27.61-4.36a6,6,0,0,1-3.78-2.49c-.35-.61,1-2.87,2-3.46a88.13,88.13,0,0,1,12.91-6.15c2.61-.93,4.58-1.72,6-4.33,1.18-2.11,3.54-3.57,5.89-5.8,1.24,4.18,2,7.38,3.14,10.4,1.44,3.69,4,5.41,8.26,4.12a71.34,71.34,0,0,1,8-1.55Z"/><path class="cls-1" d="M739.84,3285.66c-3.79,3.85-10.71,7-1.89,13.83l-2.81.55-11.23-7.22c-.11,2-.2,3.86-.28,5.31-9.43-1.46-18.91-2.86-28.36-4.41-3.4-.56-4.37-3.18-1.63-5.06a58.61,58.61,0,0,1,13.1-6.79c2.76-1,5-1.72,6.53-4.49,1.19-2.09,3.54-3.52,5.88-5.73,1.26,4.2,2,7.37,3.18,10.36,1.44,3.65,3.91,5.51,8.22,4.08,2.66-.88,5.56-1,8.35-1.51Z"/><path class="cls-1" d="M1191.19,3418c-6.38,5.62-11.62,11.25-20.27,11.3a11.94,11.94,0,0,0-4.61,1.4c-5.09,2.35-8.24,0-12.5-3.69s-4.85-6.91-2.11-10.24c2.07-2.5,6.22-4.8,9.32-4.65,8.53.44,17,2.14,25.49,3.51C1187.85,3415.8,1189.05,3416.84,1191.19,3418Z"/><path class="cls-1" d="M1161.3,3216.09c5.13-1.4,9.57-2.91,14.14-3.78a60.21,60.21,0,0,1,13.36-1.27c2.61.1,5.16,1.87,7.72,2.94.46.2.77.86,1.24,1,3.75,1,6.34,5.31,4,8.1-2.57,3.09-6.43,5.11-9.73,7.59a.72.72,0,0,1-.48.08C1180.58,3228.83,1169.4,3227.38,1161.3,3216.09Z"/><path class="cls-1" d="M1399.92,3143.46c-6.77,5.95-82,11.8-90.83,11.31a3.53,3.53,0,0,0-1.92.33c-6.17,3.67-10.46,2.72-15.63-3-3-3.4,67.11-5.54,68.06-8.66.28-.91,2-1.43,3.07-2,.44-.23,1.43,0,1.51-.21,1.86-5.13,6.17-3.77,9.72-3.38,6.88.76,13.72,1.95,20.54,3.15C1396,3141.21,1397.33,3142.24,1399.92,3143.46Z"/><path class="cls-1" d="M1101.24,3379.44c4.88-1.34,9.3-2.77,13.83-3.71a52.67,52.67,0,0,1,9.89-.91c4.18-.06,9.18-2.57,11.68,3.35,5.7-.8,5.36,3.54,5.23,6.8-.21,5.07-9,10.45-14,9.08-3.28-.9-6.6-1.66-9.92-2.35C1112.71,3390.62,1105.67,3385.78,1101.24,3379.44Z"/><path class="cls-1" d="M1397.05,2767.55c4.26-1.53,7.22-3.07,10.36-3.6a131.24,131.24,0,0,1,17.79-1.9c2.08-.07,4.24,1.74,6.34,2.73a8.32,8.32,0,0,1,1.66,1c1.19,1,3.07,1.81,3.36,3a10.3,10.3,0,0,1-.44,6.12c-.69,1.59-2.53,2.77-4,3.9-3.07,2.3-6.38,3.47-10.16,1.54-1.3-.67-2.74-1.68-4.07-1.61C1409.21,2779.23,1404,2773.65,1397.05,2767.55Z"/><path class="cls-1" d="M1412.55,2869.16c4.48-1.39,7.84-2.8,11.34-3.42,5.22-.92,10.53-1.36,15.81-1.85,3.83-.35,11.23,3.36,11.9,6.25.5,2.11.88,5.68-.21,6.46-3.81,2.73-6.32,8.43-12.65,6.42-3.23-1-6.63-1.51-9.9-2.42C1422.58,2878.85,1417.72,2875,1412.55,2869.16Z"/><path class="cls-1" d="M1321.53,3020.93c3.16-1.25,5.35-2.61,7.7-3,7-1,14.14-1.86,21.24-2.33,1.6-.11,3.34,1.54,5,2.44.56.32,1.15,1.3,1.5,1.2,4.44-1.32,3.66,2.74,4,4.48.27,1.52-1.33,3.41-2.21,5.07-.27.5-1.12.7-1.33,1.19-1.91,4.55-5.79,5-9.84,4.47a71.21,71.21,0,0,1-9.37-2.22C1331.73,3030.53,1326.71,3026.68,1321.53,3020.93Z"/><path class="cls-1" d="M1255.24,3274l-7.14,6c1,1.77,1.94,3.46,3.24,5.75l-16.67-2c-1,3-2.46,2.25-4.42-.05-2.32-2.74-5.12-3.55-8-1.45l-9.24-7.66c3.18-5.53,8.34-5.43,13.47-5.66a38.91,38.91,0,0,0,8.55-1.12c2.89-.8,4.56-.5,4.65,2.83.14,5.43,3.16,5.77,7.39,4.35,2.47-.84,5-1.41,7.55-2.11Z"/><path class="cls-1" d="M1113.52,3331.85l-1.41-3.64c2.94.94,5.17,1.72,7.45,2.37,5.64,1.6,7.22.57,8.16-5.1a19.71,19.71,0,0,1,1.15-3c7.79,5.28,18.69-1.93,25.75,7.39l-9.32,7.77c-2.93-1.76-5.67-1-8.37,1.64-.72.72-2.6.29-4,.33-.79,0-1.59-.16-2.36-.07-4.64.58-9.27,1.22-14.86,2,1.57-2.43,2.67-4.14,4.07-6.29l-6.49-3.54Z"/><path class="cls-1" d="M649.86,3162.42l-7.07-5.68.51-1.21,7.62,2c4.07,1.07,7.32,1.05,7.33-4.59,0-3.35,1.79-3.57,4.7-2.53a22,22,0,0,0,7.67,1.1c5.27-.07,10.38,0,14.43,5.22l-8.71,7.34-.28-.9c-2.9,1.13-5.77,2.36-8.72,3.34a11.53,11.53,0,0,1-3.86.27c-.59,0-1.2-.72-1.74-.64-4.72.65-9.41,1.41-15.26,2.32Z"/><path class="cls-1" d="M1412.84,3101.67c1.12,2.17,1.92,6.29,4.1,7.22s6-1,9-1.65a4.79,4.79,0,0,1,3.37.3l-7.17,6.09c.88,1.5,1.83,3.14,2.84,4.88-.59.41-1,.93-1.34.89-4.5-.68-9-1.44-13.49-2.14-.54-.09-1.47-.17-1.62.1-1.81,3.06-2.67,1-4.48-.25-2.12-1.48-5.09-1.75-8-1.41l-9.11-7.6c2.43-4,6-5.24,10.14-5.44C1402.13,3102.42,1407.12,3102,1412.84,3101.67Z"/><path class="cls-1" d="M1377.13,3037.84c.23.09,1.13.17,1.36.61,3.26,6.24,9.81,7.14,15.4,9.6a7.94,7.94,0,0,1,2.51,1.61,46.71,46.71,0,0,1,2.93,3.76c-1.51.76-2.95,1.92-4.55,2.21-7.21,1.34-14.48,2.43-22,3.64-.08-1.24-.17-2.76-.28-4.47l-9.15,5.82-1-1c.81-1.85,1.62-3.69,2.53-5.78l-5.85-5.17c4.77,0,9.46,1.34,12.3-.38S1375.09,3041.83,1377.13,3037.84Z"/><path class="cls-1" d="M1372.19,2984.32l-6.85-5.59.48-1.11,6.72,1.81c5.77,1.56,6.73,1,7.82-4.85a7,7,0,0,1,.41-1.44,9.62,9.62,0,0,1,1.18-1.32c7,5.19,17.32-2,24.31,7l-8.84,7.54c-2.91-1.58-5.58-.79-8.24,1.58-.76.67-2.55.22-3.87.25-.7,0-1.42-.13-2.12,0-4.41.57-8.82,1.17-14.14,1.89Z"/><path class="cls-1" d="M1500.41,2981.33a1.42,1.42,0,0,0,0,.2l-.1-.18Z"/><path class="cls-1" d="M1218.54,3362v4.51c-7.8-1.23-15.37-2.37-22.92-3.67-1.14-.2-2.81-.92-3.06-1.76s.69-2.34,1.48-3.23a9.68,9.68,0,0,1,3.23-2.3c5.7-2.62,12.31-3.74,15.86-9.88.23-.41,1.18-.39,1.25-.41,1.88,3.7,2.8,8.46,5.62,10.26s7.34.37,12.86.37l-6.48,5.08,2.71,5.79-.85,1.21Z"/><path class="cls-1" d="M1271.57,3130.06c.47-1,.92-2,1.4-3s.87-1.75,1.35-2.71l-6.58-5.47c3.17,0,4.87-.27,6.45,0,6.75,1.4,8.56.39,10.26-6.16.37-1.42.63-2.88,1-4.71,1.28.59,2.82.78,3.16,1.53,2.46,5.31,7.71,6,12.23,8.09,2.89,1.35,5.06,4.21,7.56,6.39-3,.94-6,2.12-9,2.76-5.6,1.18-11.26,2-17.2,3.08-.08-1-.19-2.56-.34-4.57l-9.23,5.83C1272.27,3130.77,1271.92,3130.42,1271.57,3130.06Z"/><path class="cls-1" d="M1458.13,2983.1l-1.55-1c.72.24,1.23.38,1.4.7Z"/><path class="cls-1" d="M1476.83,2995l-5-3.17,1,.41a12.22,12.22,0,0,1,3.71,2.49Z"/><path class="cls-1" d="M1410.55,2944l-6.67-5.48.55-1.18c2.1.53,4.22,1,6.31,1.6,6.15,1.74,6.59,1.49,8-4.42a8.61,8.61,0,0,1,.88-2c6,.42,11.53.46,17,1.33,2.86.46,5.48,2.36,9,4l-9.82,8.32c-.08-.36-.15-.72-.23-1.09-2.52.76-5.36,1-7.46,2.41-1.8,1.19-2.72,3.57-4.52.2-.12-.23-1.36.15-2.07.24l-13.89,1.74C1408.69,2947.48,1409.57,2945.81,1410.55,2944Z"/><path class="cls-1" d="M1472.73,2887.37c1.72,3.28,2.67,7.8,5.38,9.46s7.11.36,11.61.36l-5.37,5.07,2.27,5.48-.93,1-8.8-5.52c-.15,1.54-.29,2.91-.43,4.29-.27.13-.57.42-.81.37-6.77-1.29-13.56-2.54-20.3-4a19.53,19.53,0,0,1-4.11-2c.9-1.29,1.54-2.92,2.74-3.82,5.87-4.44,14.9-3.61,17.94-12.87Z"/><path class="cls-1" d="M1523,2761.84v-4.45l-9.12,5.73-.88-.95c.78-1.87,1.57-3.74,2.37-5.63l-5.12-4.55.45-1.16c1.79.24,3.62.33,5.37.74,5.42,1.27,7,.45,8.82-4.92.61-1.83,1-3.75,1.49-5.7.82.24,1.52.23,1.71.54,3.71,5.86,10.16,7.2,15.87,9.78,1.33.6,2.93,1.55,3.42,2.74a4.35,4.35,0,0,1-1.06,3.85c-.77.76-2.5.5-3.81.72Z"/><path class="cls-1" d="M1492,2709.78l-8.81-5.67c-.09,1.68-.16,3.07-.22,4.28-7.59-1.2-15.17-2.35-22.73-3.65-1-.17-2.38-1-2.57-1.72s.66-2.05,1.35-2.85a9.31,9.31,0,0,1,2.75-2.1c5.49-2.92,12.42-3.49,15.83-9.82.2-.39,1.15-.37,2.41-.73-.08,11.11,5.82,13.33,15.78,9.2-.06.58-.13,1.16-.19,1.74l-5.07,4.85c.83,1.79,1.65,3.54,2.46,5.3Z"/><path class="cls-1" d="M1451.07,2846.25v-4.82c-2,1.55-3.26,2.68-4.68,3.58a9,9,0,0,1-5.28,1.59l2.29-5.44-5.82-5.31c2.76,0,4.46-.27,6,.05,6.38,1.27,8.18.21,9.78-6.16.31-1.26.54-2.54.89-4.21,1,.31,2.08.3,2.37.78,3.18,5.43,8.78,6.86,14.09,8.85a10,10,0,0,1,3.7,2.48,2.67,2.67,0,1,1-1.5,5.1C1465.86,2844,1458.74,2845,1451.07,2846.25Z"/><path class="cls-1" d="M1220.58,3178.43c8-2,15.84-5.66,24.23-.77,3.15,1.84,3.16,4.19,1.16,6.88-5.24,7.05-11.53,2.66-17.2,1.15-3.12-.83-5.71-3.6-8.54-5.5C1220.35,3179.6,1220.46,3179,1220.58,3178.43Z"/><path class="cls-1" d="M1299,3255.49c-4.16,2.66-7.24,5.05-10.66,6.7-2.59,1.25-5.61,1.7-8.48,2.27-3.05.6-8.07-2.87-8.65-5.9-1-5,3.5-6.72,6.31-6.95C1284.32,3251.06,1291.34,3251.29,1299,3255.49Z"/><path class="cls-1" d="M1186.55,3303.46c8-1.88,15.86-5.61,24.26-.74,3.18,1.84,3.27,4.31,1.13,6.79-4.14,4.79-11.89,4.9-19.42.33a64.66,64.66,0,0,1-6.18-4.83Z"/><path class="cls-1" d="M1429.68,3089.56c9-1.92,16.64-5.6,25-.94,3.62,2,3.2,4.41,1.34,6.68-2.79,3.41-5.76,4.79-11.06,3.15C1439.43,3096.73,1434.47,3095.14,1429.68,3089.56Z"/><path class="cls-1" d="M1262.84,3221.36c4.31-6.44,11.6-1.21,17-5.56.4,9.72,6.08,5.44,10.83,5.59l-4.29,3.7,1.56,3.28c-.53.28-.83.6-1.08.56C1278.49,3227.66,1269.37,3228.73,1262.84,3221.36Z"/><path class="cls-1" d="M1505.45,2951.09c0,.14,0,.28-.07.43l-.33-.32Z"/><path class="cls-1" d="M1181.4,3379.7c-7.31,7.39-16.4,6.66-25.48,7.74l1.72-4.19-4.54-3.08.63-.84,8.54,1.5,1.8-5.38c5,.64,9.65,1.14,14.29,1.91C1179.34,3377.53,1180.14,3378.7,1181.4,3379.7Z"/><path class="cls-1" d="M1252.55,3377.17l-3.54.35c.33-.48.67-1,1-1.44A5.62,5.62,0,0,0,1252.55,3377.17Z"/><path class="cls-1" d="M757.75,3326.73c-7,7.34-16.22,6.27-25.23,7.62l1.55-3.89-5.41-4.85c3.68.89,6.1,2.16,8.16,1.74,1.63-.33,2.83-2.75,4.66-4.72C751.58,3322.56,753.77,3323,757.75,3326.73Z"/><path class="cls-1" d="M1346.87,3123.87c0,7.08,3.84,9.14,9.88,6.7-.82,2.74-1.51,5.07-2.33,7.83l-4.65-2.68-1.22,2.45-17.2-3.23-.45-1.41Z"/><path class="cls-1" d="M1484.37,2939.09,1467,2942.3c-.19-.72-.4-1.6-.68-2.68l-5,3c-.71-2.59-1.37-5-2.15-7.88,6,2.53,9.56.12,9.78-6.75l15.91,9.73C1484.67,2938.15,1484.52,2938.62,1484.37,2939.09Z"/><path class="cls-1" d="M1330.27,3169.25l-17.13,3.13c-.16-.69-.37-1.55-.65-2.7l-5.7,3.3c1-3.38,1-5.84-3.19-7.78,6.94,1.45,11.52.55,11.16-7.59,3.27,2.19,5.77,4,8.39,5.57s5.2,2.87,7.81,4.3Z"/><path class="cls-1" d="M612.25,3154.35l-.09.06-.06-.21.08.07Z"/><path class="cls-1" d="M1221.8,3390.29c1.8,6.72,1.8,6.72,10.13,7-.74,2.15-1.5,4.4-2.47,7.22l-3.32-1.8c-7.31,2.75-13.23-1.5-19.4-1-.22-.56-.44-1.12-.65-1.68Z"/><path class="cls-1" d="M1292.07,3184.53c6.3-2,12.32-4.27,18.65-1.53,1.51.65,3.53,4,3.19,4.4-1.61,2.06-4.2,5.21-6,4.94C1302.25,3191.49,1295.92,3191,1292.07,3184.53Z"/><path class="cls-1" d="M1200.61,3404c-5.55-.22-10.93,2.92-16.54,1.52l-.11-1.34-4.55,2.57-2.26-6.75c7.46-.21,7.46-.21,9.6-6.29l14.44,8.45C1201,3402.8,1200.81,3403.42,1200.61,3404Z"/><path class="cls-1" d="M1268.49,3247.45l-3.43-6.48,6.6,1.3,2-4.56,14.66,2.39C1282.06,3247.84,1274.38,3246.63,1268.49,3247.45Z"/><path class="cls-1" d="M1357,3168.37l-2.92,6.29c-6.25-.43-13.46-.12-19.26-5.79,3.67-5.3,9.53-1.5,13.87-4.11l1.57,4.89Z"/><path class="cls-1" d="M644.35,3136.77c1.35,1.89,3.53,3.65,3.86,5.71.5,3.1-1.67,5.82-4.94,5.1-1.9-.42-4.37-3-4.6-4.91s2.13-3.9,3.35-5.87Z"/><path class="cls-1" d="M612.25,3154.35l-.07-.08.05,0S612.24,3154.34,612.25,3154.35Z"/><path class="cls-1" d="M408.13,2777.91c2-1.1,4.35,0,6.68.64,3.51,1,5.6.64,7.31-2.16.7-1.14.32-2.94.47-5a28.81,28.81,0,0,1,3.36,3.42c.92,1.33,2.12,1.72,3.54,2.26a48.91,48.91,0,0,1,8.59,4.15c2.05,1.29,2.21,3.29.8,5.25-3.66,5.11-8.12,9.35-14.14,11.47-1.07.38-2.59-.53-3.82-.83-.51,1.38-1,2.82-1.56,4.21-1.27,3-4.86,2.2-6.55.42a16.75,16.75,0,0,0-2.63-2.27,4.18,4.18,0,0,1-1.1-5.69c-3.28,2.29-5.68,6.12-10.77,6.24,2.13-1,2.4-2.3,1.65-4a9.51,9.51,0,0,1-.88-3.36c-.13-3.51-.06-3.51-3.39-4,1.39-.86,3.11-.87,6.62-.15,2.07.42,3.76,2.5,6.41,1.57-1.71-1-2.14-3.54-1.53-5.92A60.25,60.25,0,0,0,408.13,2777.91Z"/><path class="cls-1" d="M468.44,2761.94c2-1.1,4.35,0,6.68.64,3.51,1,5.6.64,7.31-2.16.7-1.14.32-3,.47-5a28.07,28.07,0,0,1,3.36,3.42c.92,1.33,2.12,1.72,3.54,2.26a48.91,48.91,0,0,1,8.59,4.15c2.05,1.29,2.21,3.29.8,5.25-3.66,5.1-8.12,9.34-14.14,11.47-1.07.38-2.59-.54-3.82-.83-.51,1.37-1,2.82-1.56,4.21-1.27,3-4.86,2.2-6.55.42a16.24,16.24,0,0,0-2.63-2.27,4.19,4.19,0,0,1-1.1-5.7c-3.28,2.3-5.68,6.13-10.77,6.25,2.13-1.05,2.4-2.3,1.65-4a9.4,9.4,0,0,1-.88-3.35c-.13-3.51-.06-3.52-3.39-4,1.39-.86,3.11-.87,6.62-.15,2.07.42,3.76,2.5,6.41,1.57-1.71-1-2.14-3.54-1.53-5.92A60.25,60.25,0,0,0,468.44,2761.94Z"/><path class="cls-1" d="M503.92,2788.11c3.9-1.32,7.94,1.34,12,3.17,6.14,2.74,10,2.82,14-1.5,1.62-1.77,1.45-5,2.34-8.59,2,2.65,4,4.64,5.14,7,1.29,2.59,3.37,3.64,5.79,5a91.89,91.89,0,0,1,14.48,9.86c3.37,2.87,3.09,6.39-.06,9.36-8.18,7.74-17.57,13.72-29.19,15.57-2.06.32-4.58-1.73-6.74-2.63-1.32,2.24-2.6,4.6-4.07,6.84-3.2,4.86-9.52,2.32-12.08-1.29a30.73,30.73,0,0,0-4.16-4.75,7.16,7.16,0,0,1-.34-10.23c-6.65,3-12.16,8.89-21.49,7.53,4.2-1.17,5.06-3.26,4.19-6.44a15.86,15.86,0,0,1-.63-6.1c.79-6.14.91-6.12-5-8,2.78-1.07,5.94-.55,12.13,1.77,3.66,1.38,6.14,5.5,11.25,4.7-2.84-2.2-2.87-6.8-1.05-10.74C501.83,2795.53,502.61,2792.11,503.92,2788.11Z"/><path class="cls-1" d="M431.49,2808.81c2.47-.79,4.8,1.12,7.21,2.46,3.62,2,6,2.18,8.66-.64,1.08-1.15,1.15-3.35,1.89-5.74a33.06,33.06,0,0,1,2.78,4.85c.66,1.78,1.88,2.55,3.3,3.53a54.72,54.72,0,0,1,8.37,7.06c1.91,2,1.55,4.4-.54,6.33-5.42,5-11.5,8.8-18.73,9.73-1.29.17-2.72-1.29-4-1.95-.93,1.47-1.84,3-2.86,4.51-2.22,3.2-6,1.32-7.35-1.19a19.32,19.32,0,0,0-2.3-3.33,5.2,5.2,0,0,1,.33-6.92c-4.24,1.84-7.93,5.68-13.59,4.51,2.64-.67,3.28-2.06,2.91-4.24a11.76,11.76,0,0,1-.07-4.14c.81-4.12.89-4.11-2.67-5.51,1.77-.65,3.68-.21,7.36,1.53,2.17,1,3.48,3.88,6.66,3.47-1.63-1.56-1.41-4.67-.08-7.28C429.82,2813.77,430.48,2811.48,431.49,2808.81Z"/></g></g></g></svg>