<svg xmlns="http://www.w3.org/2000/svg" viewBox="0 0 1765.13 411.66"><defs><style>.cls-1,.cls-2,.cls-4{fill:#fff;}.cls-2,.cls-5{opacity:0.29;}.cls-3,.cls-4{opacity:0.56;}.cls-6{fill:#ededed;}</style></defs><title>Asset 27</title><g id="Layer_2" data-name="Layer 2"><g id="Layer_1-2" data-name="Layer 1"><circle class="cls-1" cx="1436.12" cy="59.98" r="4.28"/><circle class="cls-1" cx="1558.21" cy="122.71" r="2.48"/><circle class="cls-1" cx="138.05" cy="137.12" r="3.61"/><circle class="cls-1" cx="71.37" cy="135.56" r="1.76"/><circle class="cls-1" cx="1729.01" cy="118.09" r="4.08"/><circle class="cls-1" cx="2.68" cy="35.78" r="2.68"/><circle class="cls-2" cx="1167.65" cy="211.87" r="1.87"/><circle class="cls-2" cx="1240.15" cy="255.37" r="2.37"/><g class="cls-3"><circle class="cls-1" cx="401.17" cy="148.81" r="4.28"/></g><circle class="cls-4" cx="442.3" cy="194.32" r="2.32"/><circle class="cls-4" cx="138.81" cy="246.82" r="1.82"/><circle class="cls-2" cx="555.11" cy="92.93" r="3.1"/><circle class="cls-2" cx="1315.79" cy="68.7" r="3.1"/><g class="cls-5"><circle class="cls-1" cx="636.08" cy="27.94" r="3.1"/></g><g class="cls-5"><circle class="cls-1" cx="691.22" cy="70.71" r="3.51"/></g><g class="cls-5"><circle class="cls-1" cx="1655.29" cy="30.48" r="3.79"/></g><g class="cls-5"><circle class="cls-1" cx="1655.29" cy="131.48" r="3.79"/></g><circle class="cls-2" cx="4.87" cy="168.02" r="3.1"/><g class="cls-5"><circle class="cls-1" cx="1155.59" cy="33.58" r="4.19"/></g><g class="cls-5"><circle class="cls-1" cx="1378.8" cy="161.92" r="2.34"/></g><circle class="cls-1" cx="1523.69" cy="191.77" r="2.44"/><circle class="cls-1" cx="1762.03" cy="70.71" r="3.1"/><g class="cls-3"><circle class="cls-1" cx="1210.58" cy="68.67" r="2.81"/></g><circle class="cls-1" cx="250.07" cy="171.67" r="2.88"/><circle class="cls-2" cx="521.5" cy="149.96" r="1.96"/><circle class="cls-2" cx="1521.22" cy="116.6" r="2.4"/><circle class="cls-2" cx="132.76" cy="4.22" r="3.1"/><circle class="cls-1" cx="195.05" cy="70.71" r="3.51"/><circle class="cls-1" cx="310.36" cy="58.49" r="1.82"/><circle class="cls-1" cx="309.87" cy="223.36" r="3.79"/><circle class="cls-1" cx="1208.08" cy="148.4" r="2.93"/><circle class="cls-1" cx="1331.35" cy="219.03" r="4.19"/><circle class="cls-1" cx="1626.35" cy="227.03" r="4.19"/><circle class="cls-1" cx="763.35" cy="99.03" r="4.19"/><circle class="cls-1" cx="1439.35" cy="256.03" r="4.19"/><circle class="cls-1" cx="1288.35" cy="38.03" r="4.19"/><circle class="cls-1" cx="525.35" cy="242.03" r="4.19"/><circle class="cls-1" cx="417.48" cy="2.11" r="2.11"/><circle class="cls-1" cx="766.11" cy="7.91" r="3.07"/><circle class="cls-1" cx="474.67" cy="78.16" r="4.28"/><g class="cls-3"><circle class="cls-1" cx="1285.53" cy="101.86" r="2.1"/></g><circle class="cls-4" cx="1518.82" cy="10.42" r="3.1"/><g class="cls-3"><circle class="cls-1" cx="996.38" cy="33.58" r="3.79"/></g><g class="cls-5"><circle class="cls-1" cx="1080.37" cy="100.62" r="1.83"/></g><g class="cls-5"><circle class="cls-1" cx="882.69" cy="76.3" r="2.18"/></g><circle class="cls-4" cx="394.96" cy="96.03" r="3.1"/><g class="cls-3"><circle class="cls-1" cx="598.56" cy="176.72" r="5.11"/></g><path class="cls-6" d="M180.36,375.25c-.79,0-1.59,0-2.38,0-9-.42-17.5-4.11-26.16-6.65-14.84-4.34-28.59-3.72-43.75-3.1-14.32.58-28.86.18-43.23.38-3,0-6.59-.34-7.71-3.07-1.63-4,3.88-7,8.16-7.51,7-.79,14.32-.46,20.74-3.36,9.16-4.15,14.81-14.18,24.23-17.7,9-3.38,19.9-.12,28.28-4.91,12.79-7.32,15.75-25,29.34-33.17,12.67-7.58,28.79-9.78,42.75-4.61,12.83,4.74,22.69,34.21,39.28,25.26,3.64-2,6.69-5.08,10.64-6.33a21.43,21.43,0,0,1,9-.41c36.85,4.3,74.65,38.22,112.22,18.79a52.8,52.8,0,0,1,47.83.08c5.05,2.63,9.66,6.1,14.83,8.5,20.45,9.52,50.4-9.29,72.18-9.89,9.18-.25,18.72,1.85,25.87,7.61,3.22,2.6,6,6,10,7.21,3.32,1,6.9.37,10.37.4,7.16.05,13.8,3.12,20.86,3.64,6.89.51,13.6-1.18,20.59-.91,17.56.69,34.69,5,51.63,9.4,1.14,1,.59,3-.66,3.9a7.56,7.56,0,0,1-4.39.91c-18.72.05-37.33,2.24-56,3.36-17.93,1.08-35.19-1.41-53-1.25-9.28.08-15.48,5.32-24.11,6.65-8,1.24-17,0-24.62-2.36-18.89-5.83-33.2-5.39-52.59-5.81-13.42-.28-25,7.93-38.25,8.18-9.37.17-18.18-4.19-27.4-5.84-14.06-2.52-28.36,1.32-42.47,3.59a166,166,0,0,1-36.38,2c-11.57-.69-22.68-4.4-34.2-4.86-17.8-.69-34.77,0-52,5C200.1,371.17,190.41,375.1,180.36,375.25Z"/><path class="cls-6" d="M1653.85,410.72c-5-.72-9.58-1.63-12.82-2a330.73,330.73,0,0,0-67.25-.23c-10.5,1-21.26,2.56-31.47-.1a16.44,16.44,0,0,0-4.25-.8c-2.44,0-4.66,1.32-7,2.18-7.89,2.94-16.62.57-25-.36a142.74,142.74,0,0,0-16.68-.53c-22.26,0-44.6.21-66.76.26-7.94,0-11.87-2-19.81-1.94-6.77,0-6.84-5.84.52-5.07,9.64,1,18.53-2.29,28-3.41,9.27-1.11,17.12-7.18,26.45-8,11.45-1.05,24.2,6.58,33.74.14,4.31-2.91,6.57-8,10.45-11.52a18,18,0,0,1,18.92-3c2.66,1.2,5.32,3.1,8.18,2.55,1.88-.36,3.52-1.77,5.43-1.72,1.61,0,3,1.11,4.4,1.86a12.4,12.4,0,0,0,15.21-3.44c1.3-1.76,2.13-3.87,3.7-5.38,2.65-2.56,6.89-2.81,10.36-1.6s6.35,3.65,9.15,6c4.09,2.13,8.94-.5,12.78-3.05,7.86-5.22,11.57-16.41,20.57-19.82,12.69-4.8,28.29,8.26,31.25,20,.83,3.31,1.18,7,3.63,9.4,4.79,4.63,12.53.53,19.17,0,12-1,22.76,11.7,17.21,23C1677.71,412.9,1664.84,412.29,1653.85,410.72Z"/><path class="cls-6" d="M1404.51,156.2q-10.93.06-21.86-.31c-7.5-.26-15-.53-22.52-1.24-6.49-.62-12.52-3.43-19.2-3.08-4.25.23-8.33,1.64-12.45,2.71a79.22,79.22,0,0,1-32.83,1.47c-7.47-1.25-14.87-3.57-22.43-3.22-5.39.25-10.61,1.85-15.94,2.67-10.89,1.7-20.28-2.52-30.79-2.35l-24,.38c-1.8,0-4.31.1-5.75-1.22s-2.24-4.25.37-4.63q10-1.42,20-2.56c6.35-.72,13.08-.27,19.22-2.08,3.86-1.13,7.07-3.78,10.63-5.67a29.32,29.32,0,0,1,18.82-3c4.19.75,8.17,2.41,12.35,3.2s8.85.58,12.21-2c2.22-1.72,3.62-4.28,5.5-6.37,6.62-7.36,18-7.74,27.76-6.35,8,1.14,19.41,4.7,27.28,1.3,5.47-2.35,4.22-11.36,10.44-12,2.09-.21,7.85,3.08,9,.43.4-1,.41-2.16,1.21-2.83a2.5,2.5,0,0,1,3,.16,17.82,17.82,0,0,1,2.21,2.3,8.51,8.51,0,0,0,4.18,2.39,13.78,13.78,0,0,0,7.18-.64c5.66-1.74,7.62-7.82,11.75-11.44,5-4.4,11.87-5.27,18.29-5.07,6.11.19,12.34,1.22,17.64,4.24s9.57,8.33,10.18,14.41c.35,3.59-.33,7.83,2.34,10.25a6.76,6.76,0,0,0,6.34,1.12c3.65-1,6.52-5.07,10.48-2.35s5.48,8.58,8.19,12.31a21.36,21.36,0,0,0,8.6,6.95c5,2.23,6,4.12,1.05,6-5.37,2.06-13,1.84-18.71,2.5q-18.17,2.1-36.43,3Q1416.14,156.13,1404.51,156.2Z"/></g></g></svg>