<svg xmlns="http://www.w3.org/2000/svg" viewBox="0 0 1921.25 525.19"><defs><style>.cls-1{fill:#eee;opacity:0.09;}</style></defs><title>Currents Low</title><g id="Layer_2" data-name="Layer 2"><g id="Layer_1-2" data-name="Layer 1"><path id="Currents_Low" data-name="Currents Low" class="cls-1" d="M1385.15,123.28c53.49-39.78,294.38-75.13,536.1-121.45V0c-132.19,21.49-467.9,76.86-562.48,100.19-20.79,5.13-48.37,7-65.9,19.2-5.38,3.74-9.06,9.75-7.12,14.83,3.12,8.17,19.58,13.13,27.11,18.82,12,9,22.08,19.4,32.09,29.85,5.09,5.31,10.26,10.73,13,17.17,8.9,20.6-17.37,40.95-38.6,51-66,31.35-194.92,59.26-292.86,71.85-57.76,7.42-113.3,12.33-167.27,16.62-81.44,6.48-158.2,8.27-240.7,15.84C261.29,386.91,100.77,470,0,513.9v11.29C104.47,482.59,333.88,400,560.25,392c306.47-10.84,714.24-25.53,903.18-111.64S1327.67,166,1385.15,123.28Z"/></g></g></svg>