<svg xmlns="http://www.w3.org/2000/svg" viewBox="0 0 1921.64 799.09"><defs><style>.cls-1{opacity:0.09;}.cls-2{fill:#eee;}</style></defs><title>Currents High</title><g id="Layer_2" data-name="Layer 2"><g id="Layer_4" data-name="Layer 4"><g id="Currents_High" data-name="Currents High" class="cls-1"><path class="cls-2" d="M801,79.37c-221.24-5.06-325,82.2-325,111.55s-35.5,58-35.5,58c-92.87,35.09-16.39,37.3-16.39,37.3C536.05,269,784.61,408,541.52,398,340,389.75,83,403.12.94,407.94v25.42C93.13,425,408.57,401,659.48,436.09c0,0,197.5,15.36,128.54-113.4,0,0-93.55-75.77-183.68-87.33,0,0-98.33-26.5,161.15-118.58,0,0,74.37-19.91,164.19-14.94s342.2,4,342.2,4l26.18-4.5q-9.42.14-18.85.2C1104.12,102.47,928.33,82.28,801,79.37Z"/><path class="cls-2" d="M1678.76,36l-380.7,65.38c122.77-1.75,244.33-14.58,347.7-51.76C1645.76,49.58,1658,43.68,1678.76,36Z"/><path class="cls-2" d="M1678.76,36,1884.85.56C1801.57-4,1721.83,19.93,1678.76,36Z"/><path class="cls-2" d="M910.8,88.22c-221.24-5-325,82.21-325,111.56s-35.51,58-35.51,58c-92.87,35.09-16.39,37.31-16.39,37.31,112-17.2,360.54,121.72,117.45,111.77s-567,11.56-567,11.56v26.34s387.75-41.37,685,.18c0,0,197.51,15.37,128.55-113.4,0,0-93.55-75.76-183.69-87.33,0,0-98.33-26.49,161.15-118.58,0,0,74.37-19.91,164.2-14.93s342.2,4,342.2,4l26.18-4.5q-9.42.14-18.86.19C1213.92,111.33,1038.13,91.13,910.8,88.22Z"/><path class="cls-2" d="M1921.64,12c-54.76,6.48-102.91,21.56-133.07,32.78L1921.64,22Z"/><path class="cls-2" d="M1788.57,44.81l-380.7,65.39c122.77-1.75,244.32-14.58,347.69-51.76C1755.56,58.44,1767.81,52.54,1788.57,44.81Z"/><path class="cls-2" d="M1441.47,329.26c-59.85,57.83-452.95,123.2-452.95,123.2-383.77,16.77-949.93,235-949.93,235S16,714.2,0,738v37c43.11,5.08,173.77,24.1,173.77,24.1C359.14,703,785.53,475.6,912.2,471.49s403.8-76.13,471.05-95.13,114.18-59.59,114.18-59.59c123-47.36,284.08-73.5,424.21-87.94V213.09C1706.33,241.43,1480.25,291.79,1441.47,329.26Z"/></g></g></g></svg>