<svg xmlns="http://www.w3.org/2000/svg" viewBox="0 0 300.53 119.26"><defs><style>.cls-1{fill:#22727c;}</style></defs><title>Lower Fish 1</title><g id="Layer_2" data-name="Layer 2"><g id="Layer_4" data-name="Layer 4"><g id="Lower_Fish_1" data-name="Lower Fish 1"><path class="cls-1" d="M0,64.18c.45-.77,1-.75,1.66-.25A19.08,19.08,0,0,0,4.47,66a4,4,0,0,0,4.64-.27,29.28,29.28,0,0,1,6.93-4c.7-.28,1-.57.61-1.37s-.69-1.61,0-2.32a2.57,2.57,0,0,1,2.73-.45,4.91,4.91,0,0,1,2.65,2,7.68,7.68,0,0,0,5.83,3.11c3.81.31,5.91,3,7.93,5.83.34.47.12.81-.19,1.16-2.17,2.39-4.58,4.38-8,4.47a8.8,8.8,0,0,0-5.88,2.54,4.81,4.81,0,0,1-3.14,1.35c-1.9.07-2.7-.9-2-2.63.49-1.15.09-1.37-.9-1.54A18.57,18.57,0,0,1,9,71.45c-2-1.23-3.93-.54-5.79.45-.55.3-1.08.66-1.61,1A1,1,0,0,1,0,72.65V69.44c.45-.29.45-.58,0-.88Zm28.33,1a2.44,2.44,0,0,0-2.53,2.46,2.56,2.56,0,1,0,2.53-2.46Z"/><path class="cls-1" d="M28.33,65.21a2.55,2.55,0,1,1-2.53,2.46A2.44,2.44,0,0,1,28.33,65.21Zm1.28,2.58c0-.65-.48-1.34-.86-1.18a3.1,3.1,0,0,0-1.52,1.55c-.18.46.55.87,1.11.86A1.19,1.19,0,0,0,29.61,67.79Z"/><path class="cls-1" d="M29.61,67.79A1.19,1.19,0,0,1,28.34,69c-.56,0-1.29-.4-1.11-.86a3.1,3.1,0,0,1,1.52-1.55C29.13,66.45,29.58,67.14,29.61,67.79Z"/><path class="cls-1" d="M68.33,62.85a9.75,9.75,0,0,0-4.54,1.81c-.48.3-1,.85-1.58.47a1.59,1.59,0,0,1-.48-1.73,18,18,0,0,0,0-5.38,4.36,4.36,0,0,1,.07-1.3c.22-1.28.57-1.43,1.62-.7s1.75,1.4,2.7,2a3.94,3.94,0,0,0,4.76-.23,27.13,27.13,0,0,1,6.94-4c.8-.31.85-.7.52-1.42s-.7-1.59,0-2.31A2.64,2.64,0,0,1,81,49.64a4.36,4.36,0,0,1,2.47,1.71,8.92,8.92,0,0,0,6.59,3.48c3.62.41,5.79,3.11,7.79,5.87.45.62-.19,1-.52,1.32a12.44,12.44,0,0,1-8.94,4.33A6.65,6.65,0,0,0,84.29,68c-1.12.91-2.2,1.9-3.77,2-2.12.2-3-.76-2.22-2.75.31-.81.34-1.15-.67-1.33a19.61,19.61,0,0,1-7.19-2.66A3.79,3.79,0,0,0,68.33,62.85Zm19.55-3.17a2.52,2.52,0,1,0,5,.23,2.45,2.45,0,0,0-2.5-2.61A2.33,2.33,0,0,0,87.88,59.68Z"/><path class="cls-1" d="M87.88,59.68a2.33,2.33,0,0,1,2.53-2.38,2.45,2.45,0,0,1,2.5,2.61,2.52,2.52,0,1,1-5-.23Zm3.81.07c-.1-.59-.51-1.27-.94-1.11a2.74,2.74,0,0,0-1.51,1.46c-.18.53.56,1,1.18,1A1.27,1.27,0,0,0,91.69,59.75Z"/><path class="cls-1" d="M91.69,59.75a1.27,1.27,0,0,1-1.27,1.32c-.62,0-1.36-.44-1.18-1a2.74,2.74,0,0,1,1.51-1.46C91.18,58.48,91.59,59.16,91.69,59.75Z"/><path class="cls-1" d="M30.85,51.08c0-1.41,0-2.81,0-4.21,0-.52-.05-1.18.5-1.45s1,.29,1.39.58c.84.58,1.6,1.27,2.47,1.79A3.88,3.88,0,0,0,40,47.53a28.45,28.45,0,0,1,6.93-4c.54-.22.93-.42.61-1.16s-1-1.87.08-2.64a3.11,3.11,0,0,1,3.32,0A6,6,0,0,1,53,41.58a7.65,7.65,0,0,0,5.63,2.92c3.86.33,6.13,3,8.29,5.87.37.48.12.78-.2,1.12-2.41,2.63-5.23,4.49-8.94,4.6a7.22,7.22,0,0,0-4.49,1.82,7,7,0,0,1-3.52,2c-2.15.28-3.08-.74-2.35-2.76.31-.85.28-1.15-.71-1.33a20,20,0,0,1-6.94-2.53c-2.08-1.28-4-.41-5.9.59-.83.43-1.61,1.61-2.54,1S31,52.94,31,52a8.52,8.52,0,0,1,.08-.87Zm28.25-4a2.35,2.35,0,0,0-2.47,2.45,2.47,2.47,0,0,0,2.55,2.58,2.52,2.52,0,1,0-.08-5Z"/><path class="cls-1" d="M59.1,47.06a2.52,2.52,0,1,1-2.47,2.45A2.35,2.35,0,0,1,59.1,47.06Zm1.34,2.63c0-.7-.43-1.42-.94-1.26A2.78,2.78,0,0,0,58,49.91c-.18.41.47.91,1.06.94A1.26,1.26,0,0,0,60.44,49.69Z"/><path class="cls-1" d="M60.44,49.69a1.26,1.26,0,0,1-1.38,1.16c-.59,0-1.24-.53-1.06-.94a2.78,2.78,0,0,1,1.5-1.48C60,48.27,60.42,49,60.44,49.69Z"/><path class="cls-1" d="M48.93,87.58c.58-1.83-.14-3.85,0-5.88,0-.54,0-1.16.54-1.43s1,.23,1.4.55.9.74,1.36,1.09c2.26,1.72,3.92,1.76,6.22.13A29.18,29.18,0,0,1,65,78.34c.72-.27.87-.57.54-1.28s-.73-1.71,0-2.44a2.73,2.73,0,0,1,2.77-.34,4.65,4.65,0,0,1,2.42,1.8,8.18,8.18,0,0,0,6.2,3.3c3.74.36,5.9,3.08,8,5.81.36.47.09.81-.23,1.13-2.31,2.4-4.84,4.39-8.38,4.47a9.06,9.06,0,0,0-6,2.67,4.61,4.61,0,0,1-3.19,1.21c-1.75,0-2.47-1-1.77-2.56.53-1.22,0-1.43-1-1.61a16.25,16.25,0,0,1-6-2.12,5.43,5.43,0,0,0-5.92-.08c-.47.25-.9.57-1.38.81s-1.11,1-1.81.57S49,88.45,48.93,87.58Zm28.27-.64a2.65,2.65,0,0,0,2.63-2.44,2.69,2.69,0,0,0-2.54-2.68,2.49,2.49,0,0,0-2.59,2.42A2.64,2.64,0,0,0,77.2,86.94Z"/><path class="cls-1" d="M77.2,86.94a2.64,2.64,0,0,1-2.5-2.7,2.49,2.49,0,0,1,2.59-2.42,2.69,2.69,0,0,1,2.54,2.68A2.65,2.65,0,0,1,77.2,86.94Zm.06-1.28a1.22,1.22,0,0,0,1.24-1.29c0-.6-.4-1.27-.84-1.13a2.44,2.44,0,0,0-1.53,1.54C76,85.3,76.69,85.58,77.26,85.66Z"/><path class="cls-1" d="M77.26,85.66c-.57-.08-1.26-.36-1.13-.88a2.44,2.44,0,0,1,1.53-1.54c.44-.14.84.53.84,1.13A1.22,1.22,0,0,1,77.26,85.66Z"/><path class="cls-1" d="M77,33.77c.44-.78,1-.76,1.65-.25A20.41,20.41,0,0,0,81.5,35.6a4.05,4.05,0,0,0,4.65-.27,29.07,29.07,0,0,1,6.92-4c.71-.28,1-.58.62-1.37s-.69-1.61,0-2.32a2.58,2.58,0,0,1,2.74-.45,4.93,4.93,0,0,1,2.64,2,7.73,7.73,0,0,0,5.84,3.11c3.8.31,5.9,3,7.92,5.83.34.47.13.81-.18,1.15-2.18,2.39-4.58,4.38-8,4.48a8.74,8.74,0,0,0-5.88,2.54,4.77,4.77,0,0,1-3.15,1.34c-1.89.08-2.7-.89-2-2.62.49-1.15.1-1.37-.89-1.54A18.76,18.76,0,0,1,86.05,41c-2-1.23-3.93-.55-5.79.45-.56.3-1.08.66-1.61,1A1,1,0,0,1,77,42.24V39c.45-.3.44-.59,0-.88Zm28.32,1a2.44,2.44,0,0,0-2.53,2.46,2.57,2.57,0,1,0,2.53-2.46Z"/><path class="cls-1" d="M105.36,34.8a2.55,2.55,0,1,1-2.53,2.46A2.44,2.44,0,0,1,105.36,34.8Zm1.28,2.58c0-.65-.47-1.35-.85-1.18a3.08,3.08,0,0,0-1.53,1.55c-.18.46.55.86,1.11.85A1.18,1.18,0,0,0,106.64,37.38Z"/><path class="cls-1" d="M106.64,37.38a1.18,1.18,0,0,1-1.27,1.22c-.56,0-1.29-.39-1.11-.85a3.08,3.08,0,0,1,1.53-1.55C106.17,36,106.61,36.73,106.64,37.38Z"/><path class="cls-1" d="M122,31.37a9.62,9.62,0,0,0-4.54,1.81c-.47.29-1,.84-1.57.47a1.61,1.61,0,0,1-.48-1.74,17.9,17.9,0,0,0,0-5.37,4.8,4.8,0,0,1,.06-1.31c.23-1.27.58-1.43,1.62-.69s1.76,1.39,2.71,2a3.93,3.93,0,0,0,4.75-.24,28.09,28.09,0,0,1,6.94-4c.81-.3.86-.69.53-1.41s-.7-1.59,0-2.31a2.63,2.63,0,0,1,2.62-.43,4.3,4.3,0,0,1,2.47,1.71,8.87,8.87,0,0,0,6.58,3.47c3.63.42,5.8,3.12,7.8,5.88.45.62-.2,1-.53,1.32a12.37,12.37,0,0,1-8.93,4.32A6.69,6.69,0,0,0,138,36.55a7,7,0,0,1-3.78,2.05c-2.11.19-3-.77-2.21-2.76.3-.8.33-1.15-.67-1.33a19.46,19.46,0,0,1-7.2-2.65A3.59,3.59,0,0,0,122,31.37Zm19.56-3.18a2.52,2.52,0,1,0,2.53-2.38A2.34,2.34,0,0,0,141.55,28.19Z"/><path class="cls-1" d="M141.55,28.19a2.34,2.34,0,0,1,2.53-2.38,2.52,2.52,0,1,1-2.53,2.38Zm3.81.08c-.1-.6-.51-1.28-1-1.11a2.77,2.77,0,0,0-1.51,1.46c-.18.52.56,1,1.19,1A1.28,1.28,0,0,0,145.36,28.27Z"/><path class="cls-1" d="M145.36,28.27a1.28,1.28,0,0,1-1.27,1.32c-.63,0-1.37-.45-1.19-1a2.77,2.77,0,0,1,1.51-1.46C144.85,27,145.26,27.67,145.36,28.27Z"/><path class="cls-1" d="M99,11.82c0-1.4,0-2.81,0-4.21,0-.52,0-1.18.5-1.44s1,.28,1.39.57c.84.58,1.61,1.27,2.48,1.79a3.87,3.87,0,0,0,4.74-.26,29.25,29.25,0,0,1,6.92-4c.55-.22.93-.42.61-1.15s-1-1.88.09-2.65a3.09,3.09,0,0,1,3.31,0,6.25,6.25,0,0,1,2.06,1.83,7.58,7.58,0,0,0,5.62,2.92c3.86.33,6.14,3,8.29,5.87.37.48.12.78-.19,1.12-2.42,2.63-5.24,4.49-8.94,4.6a7.22,7.22,0,0,0-4.5,1.83,7,7,0,0,1-3.51,1.94c-2.16.28-3.09-.74-2.36-2.76.31-.85.28-1.15-.71-1.33A20,20,0,0,1,107.92,14c-2.09-1.28-4-.4-5.91.59-.82.43-1.6,1.61-2.54,1s-.33-1.89-.33-2.88a8.5,8.5,0,0,1,.07-.87Zm28.24-4a2.35,2.35,0,0,0-2.47,2.46,2.47,2.47,0,0,0,2.55,2.57,2.43,2.43,0,0,0,2.49-2.47A2.47,2.47,0,0,0,127.28,7.8Z"/><path class="cls-1" d="M127.28,7.8a2.47,2.47,0,0,1,2.57,2.56,2.43,2.43,0,0,1-2.49,2.47,2.47,2.47,0,0,1-2.55-2.57A2.35,2.35,0,0,1,127.28,7.8Zm1.34,2.63c0-.7-.43-1.42-.93-1.26a2.77,2.77,0,0,0-1.51,1.48c-.18.42.47.91,1.06.94A1.25,1.25,0,0,0,128.62,10.43Z"/><path class="cls-1" d="M128.62,10.43a1.25,1.25,0,0,1-1.38,1.16c-.59,0-1.24-.52-1.06-.94a2.77,2.77,0,0,1,1.51-1.48C128.19,9,128.61,9.73,128.62,10.43Z"/><path class="cls-1" d="M99,54.15c.58-1.83-.14-3.86,0-5.89,0-.53,0-1.16.54-1.43s1,.24,1.39.55.91.74,1.37,1.09c2.25,1.72,3.92,1.77,6.21.13a29,29,0,0,1,6.59-3.69c.72-.27.87-.58.54-1.28s-.73-1.72,0-2.44a2.71,2.71,0,0,1,2.77-.35,4.65,4.65,0,0,1,2.42,1.8,8.11,8.11,0,0,0,6.19,3.3c3.75.36,5.9,3.08,8,5.81.36.47.09.81-.23,1.14-2.31,2.39-4.84,4.39-8.38,4.46a9.15,9.15,0,0,0-6,2.67,4.59,4.59,0,0,1-3.19,1.22c-1.74,0-2.47-1-1.76-2.57.53-1.22,0-1.42-1-1.61a16,16,0,0,1-6-2.12,5.43,5.43,0,0,0-5.92-.08c-.47.25-.91.58-1.38.82s-1.11,1-1.81.57S99,55,99,54.15Zm28.27-.65a2.56,2.56,0,1,0,.09-5.11,2.47,2.47,0,0,0-2.59,2.41A2.62,2.62,0,0,0,127.26,53.5Z"/><path class="cls-1" d="M127.26,53.5a2.62,2.62,0,0,1-2.5-2.7,2.47,2.47,0,0,1,2.59-2.41,2.56,2.56,0,1,1-.09,5.11Zm.06-1.28a1.22,1.22,0,0,0,1.24-1.29c0-.59-.4-1.26-.84-1.13a2.42,2.42,0,0,0-1.53,1.54C126.05,51.86,126.74,52.15,127.32,52.22Z"/><path class="cls-1" d="M127.32,52.22c-.58-.07-1.27-.36-1.13-.88a2.42,2.42,0,0,1,1.53-1.54c.44-.13.84.54.84,1.13A1.22,1.22,0,0,1,127.32,52.22Z"/><path class="cls-1" d="M115.53,101c.45-.78,1-.76,1.66-.25a19.82,19.82,0,0,0,2.81,2.08,4,4,0,0,0,4.64-.27,28.94,28.94,0,0,1,6.93-4c.71-.28,1-.58.61-1.37s-.69-1.61,0-2.32a2.58,2.58,0,0,1,2.74-.45,4.93,4.93,0,0,1,2.64,2,7.71,7.71,0,0,0,5.83,3.11c3.81.31,5.91,3,7.93,5.83.34.47.12.81-.19,1.15-2.17,2.39-4.57,4.38-8,4.48a8.76,8.76,0,0,0-5.88,2.54,4.73,4.73,0,0,1-3.14,1.34c-1.9.08-2.7-.89-2-2.62.49-1.15.09-1.37-.9-1.54a18.76,18.76,0,0,1-6.66-2.43c-2-1.23-3.93-.55-5.79.45-.55.3-1.07.66-1.6,1a1,1,0,0,1-1.62-.25v-3.21c.45-.3.45-.59,0-.88Zm28.33,1a2.44,2.44,0,0,0-2.53,2.46,2.61,2.61,0,0,0,2.56,2.63,2.55,2.55,0,1,0,0-5.09Z"/><path class="cls-1" d="M143.86,102a2.55,2.55,0,1,1-2.53,2.46A2.44,2.44,0,0,1,143.86,102Zm1.28,2.58c0-.65-.47-1.35-.85-1.18a3,3,0,0,0-1.53,1.55c-.18.46.55.86,1.11.85A1.18,1.18,0,0,0,145.14,104.56Z"/><path class="cls-1" d="M145.14,104.56a1.18,1.18,0,0,1-1.27,1.22c-.56,0-1.29-.39-1.11-.85a3,3,0,0,1,1.53-1.55C144.67,103.21,145.11,103.91,145.14,104.56Z"/><path class="cls-1" d="M158.42,90.77a9.66,9.66,0,0,0-4.54,1.82c-.47.29-1,.84-1.57.46a1.59,1.59,0,0,1-.48-1.73,18.3,18.3,0,0,0,0-5.38,4.73,4.73,0,0,1,.06-1.3c.23-1.28.57-1.43,1.62-.7s1.75,1.4,2.71,2a3.92,3.92,0,0,0,4.75-.23,27.47,27.47,0,0,1,6.94-4c.81-.3.86-.7.53-1.42s-.7-1.59,0-2.3a2.66,2.66,0,0,1,2.62-.44,4.37,4.37,0,0,1,2.47,1.72,8.87,8.87,0,0,0,6.58,3.47c3.62.41,5.8,3.12,7.8,5.87.45.63-.2,1-.53,1.32a12.38,12.38,0,0,1-8.93,4.33A6.63,6.63,0,0,0,174.39,96c-1.13.91-2.2,1.9-3.78,2-2.11.2-3-.76-2.21-2.75.3-.81.33-1.15-.67-1.33a19.48,19.48,0,0,1-7.2-2.66A3.75,3.75,0,0,0,158.42,90.77ZM178,87.6a2.51,2.51,0,1,0,5,.24,2.44,2.44,0,0,0-2.49-2.62A2.33,2.33,0,0,0,178,87.6Z"/><path class="cls-1" d="M178,87.6a2.33,2.33,0,0,1,2.53-2.38A2.44,2.44,0,0,1,183,87.84a2.51,2.51,0,1,1-5-.24Zm3.8.08c-.09-.6-.5-1.28-.94-1.11A2.72,2.72,0,0,0,179.33,88c-.18.53.56,1,1.19,1A1.28,1.28,0,0,0,181.78,87.68Z"/><path class="cls-1" d="M181.78,87.68A1.28,1.28,0,0,1,180.52,89c-.63,0-1.37-.45-1.19-1a2.72,2.72,0,0,1,1.51-1.45C181.28,86.4,181.69,87.08,181.78,87.68Z"/><path class="cls-1" d="M113.05,73.09c0-1.41,0-2.81,0-4.21,0-.52,0-1.18.5-1.45s1,.29,1.39.58c.84.58,1.61,1.27,2.48,1.79a3.88,3.88,0,0,0,4.74-.26,28.58,28.58,0,0,1,6.92-4c.55-.22.93-.42.61-1.16s-1-1.87.09-2.64a3.09,3.09,0,0,1,3.31,0,6.14,6.14,0,0,1,2.06,1.83,7.61,7.61,0,0,0,5.62,2.92c3.86.33,6.14,3,8.29,5.87.37.48.12.78-.19,1.12-2.42,2.63-5.24,4.49-8.94,4.6a7.27,7.27,0,0,0-4.5,1.82,7,7,0,0,1-3.51,2c-2.16.28-3.09-.74-2.36-2.76.31-.85.28-1.15-.71-1.33a20,20,0,0,1-6.93-2.53c-2.09-1.28-4-.41-5.91.59-.82.43-1.6,1.61-2.54,1s-.33-1.88-.34-2.87c0-.29.06-.58.08-.87Zm28.24-4a2.35,2.35,0,0,0-2.47,2.45,2.47,2.47,0,0,0,2.55,2.58,2.44,2.44,0,0,0,2.49-2.48A2.46,2.46,0,0,0,141.29,69.07Z"/><path class="cls-1" d="M141.29,69.07a2.46,2.46,0,0,1,2.57,2.55,2.44,2.44,0,0,1-2.49,2.48,2.47,2.47,0,0,1-2.55-2.58A2.35,2.35,0,0,1,141.29,69.07Zm1.34,2.63c0-.7-.43-1.42-.93-1.26a2.77,2.77,0,0,0-1.51,1.48c-.18.41.47.91,1.06.94A1.25,1.25,0,0,0,142.63,71.7Z"/><path class="cls-1" d="M142.63,71.7a1.25,1.25,0,0,1-1.38,1.16c-.59,0-1.24-.53-1.06-.94a2.77,2.77,0,0,1,1.51-1.48C142.2,70.28,142.62,71,142.63,71.7Z"/><path class="cls-1" d="M160.86,112.17c.59-1.83-.13-3.86,0-5.89,0-.53,0-1.16.53-1.42s1,.23,1.4.54.9.74,1.37,1.09c2.25,1.73,3.92,1.77,6.21.14a28.5,28.5,0,0,1,6.59-3.7c.71-.27.87-.58.54-1.28s-.73-1.71,0-2.44a2.69,2.69,0,0,1,2.76-.35,4.61,4.61,0,0,1,2.42,1.8,8.17,8.17,0,0,0,6.2,3.31c3.74.35,5.9,3.07,8,5.8.37.47.09.81-.22,1.14-2.31,2.39-4.85,4.39-8.38,4.46a9.14,9.14,0,0,0-6,2.68,4.63,4.63,0,0,1-3.19,1.21c-1.75,0-2.47-1-1.77-2.57.54-1.22,0-1.42-.95-1.61a16,16,0,0,1-6-2.12,5.45,5.45,0,0,0-5.93-.07c-.47.24-.9.57-1.38.81s-1.1,1-1.81.57S160.88,113,160.86,112.17Zm28.28-.65a2.66,2.66,0,0,0,2.63-2.43,2.69,2.69,0,0,0-2.54-2.68,2.49,2.49,0,0,0-2.6,2.41A2.63,2.63,0,0,0,189.14,111.52Z"/><path class="cls-1" d="M189.14,111.52a2.63,2.63,0,0,1-2.51-2.7,2.49,2.49,0,0,1,2.6-2.41,2.69,2.69,0,0,1,2.54,2.68A2.66,2.66,0,0,1,189.14,111.52Zm.06-1.27a1.21,1.21,0,0,0,1.23-1.29c0-.6-.4-1.27-.84-1.14a2.4,2.4,0,0,0-1.52,1.55C187.93,109.88,188.62,110.17,189.2,110.25Z"/><path class="cls-1" d="M189.2,110.25c-.58-.08-1.27-.37-1.13-.88a2.4,2.4,0,0,1,1.52-1.55c.44-.13.84.54.84,1.14A1.21,1.21,0,0,1,189.2,110.25Z"/><path class="cls-1" d="M148.39,55.11c.45-.78,1-.76,1.66-.25a20.41,20.41,0,0,0,2.81,2.08,4,4,0,0,0,4.64-.27,29.33,29.33,0,0,1,6.93-4c.71-.28,1-.58.62-1.37s-.69-1.61,0-2.32a2.58,2.58,0,0,1,2.74-.45,4.93,4.93,0,0,1,2.64,2,7.73,7.73,0,0,0,5.84,3.11c3.8.31,5.9,3,7.92,5.83.34.47.13.81-.18,1.15C181.8,63,179.4,65,176,65.09a8.76,8.76,0,0,0-5.88,2.54A4.83,4.83,0,0,1,166.92,69c-1.9.07-2.7-.9-2-2.63.49-1.15.1-1.37-.89-1.54a18.62,18.62,0,0,1-6.67-2.43c-2-1.23-3.92-.54-5.78.45-.56.3-1.08.66-1.61,1a1,1,0,0,1-1.62-.25V60.37c.46-.29.45-.59,0-.88Zm28.33,1a2.44,2.44,0,0,0-2.53,2.46,2.57,2.57,0,1,0,2.53-2.46Z"/><path class="cls-1" d="M176.72,56.14a2.55,2.55,0,1,1-2.53,2.46A2.44,2.44,0,0,1,176.72,56.14ZM178,58.72c0-.65-.47-1.35-.85-1.18a3.08,3.08,0,0,0-1.53,1.55c-.18.46.55.86,1.11.85A1.18,1.18,0,0,0,178,58.72Z"/><path class="cls-1" d="M178,58.72a1.18,1.18,0,0,1-1.27,1.22c-.56,0-1.29-.39-1.11-.85a3.08,3.08,0,0,1,1.53-1.55C177.53,57.37,178,58.07,178,58.72Z"/><path class="cls-1" d="M196.22,54.06a9.58,9.58,0,0,0-4.54,1.81c-.47.29-1,.84-1.57.47a1.61,1.61,0,0,1-.48-1.74,17.9,17.9,0,0,0,0-5.37,4.8,4.8,0,0,1,.06-1.31c.23-1.28.57-1.43,1.62-.69s1.75,1.39,2.71,2a3.93,3.93,0,0,0,4.75-.24,28.09,28.09,0,0,1,6.94-4c.81-.3.86-.7.53-1.42s-.7-1.59,0-2.3a2.63,2.63,0,0,1,2.62-.43,4.3,4.3,0,0,1,2.47,1.71A8.87,8.87,0,0,0,217.94,46c3.63.42,5.8,3.12,7.8,5.87.45.63-.2,1-.53,1.33a12.37,12.37,0,0,1-8.93,4.32,6.63,6.63,0,0,0-4.09,1.69c-1.13.92-2.2,1.9-3.78,2-2.11.19-2.95-.77-2.21-2.76.3-.8.33-1.15-.67-1.33a19.46,19.46,0,0,1-7.2-2.65A3.59,3.59,0,0,0,196.22,54.06Zm19.56-3.18a2.51,2.51,0,1,0,5,.24,2.45,2.45,0,0,0-2.49-2.62A2.34,2.34,0,0,0,215.78,50.88Z"/><path class="cls-1" d="M215.78,50.88a2.34,2.34,0,0,1,2.53-2.38,2.52,2.52,0,1,1-.06,5A2.48,2.48,0,0,1,215.78,50.88Zm3.8.08c-.09-.6-.5-1.28-.94-1.11a2.72,2.72,0,0,0-1.51,1.45c-.18.53.56,1,1.19,1A1.28,1.28,0,0,0,219.58,51Z"/><path class="cls-1" d="M219.58,51a1.28,1.28,0,0,1-1.26,1.32c-.63,0-1.37-.45-1.19-1a2.72,2.72,0,0,1,1.51-1.45C219.08,49.68,219.49,50.36,219.58,51Z"/><path class="cls-1" d="M166.48,27.31c0-1.4,0-2.81,0-4.21,0-.52,0-1.18.5-1.45s1,.29,1.39.58c.84.58,1.61,1.27,2.48,1.79a3.88,3.88,0,0,0,4.74-.26,29.25,29.25,0,0,1,6.92-4c.55-.22.93-.42.61-1.16s-1-1.87.09-2.64a3.09,3.09,0,0,1,3.31,0,6.14,6.14,0,0,1,2.06,1.83,7.61,7.61,0,0,0,5.62,2.92c3.86.33,6.14,3,8.29,5.87.37.48.12.78-.19,1.12-2.42,2.63-5.24,4.49-8.94,4.6a7.27,7.27,0,0,0-4.5,1.82,7,7,0,0,1-3.51,2c-2.16.28-3.09-.74-2.36-2.76.31-.85.28-1.15-.71-1.33a19.89,19.89,0,0,1-6.93-2.53c-2.09-1.28-4-.41-5.91.59-.82.43-1.6,1.61-2.54,1s-.33-1.89-.34-2.88c0-.29.06-.58.08-.87Zm28.24-4a2.35,2.35,0,0,0-2.47,2.45,2.47,2.47,0,0,0,2.55,2.58,2.44,2.44,0,0,0,2.49-2.47A2.47,2.47,0,0,0,194.72,23.29Z"/><path class="cls-1" d="M194.72,23.29a2.47,2.47,0,0,1,2.57,2.56,2.44,2.44,0,0,1-2.49,2.47,2.47,2.47,0,0,1-2.55-2.58A2.35,2.35,0,0,1,194.72,23.29Zm1.34,2.63c0-.7-.43-1.42-.93-1.26a2.77,2.77,0,0,0-1.51,1.48c-.18.41.47.91,1.06.94A1.25,1.25,0,0,0,196.06,25.92Z"/><path class="cls-1" d="M196.06,25.92a1.25,1.25,0,0,1-1.38,1.16c-.59,0-1.24-.53-1.06-.94a2.77,2.77,0,0,1,1.51-1.48C195.63,24.5,196.05,25.22,196.06,25.92Z"/><path class="cls-1" d="M187,76.2c.58-1.83-.14-3.85,0-5.88,0-.54,0-1.16.54-1.43s1,.23,1.39.55.91.74,1.37,1.09c2.25,1.72,3.92,1.76,6.21.13a29.47,29.47,0,0,1,6.59-3.7c.72-.27.87-.57.54-1.28s-.73-1.71,0-2.44a2.71,2.71,0,0,1,2.76-.34,4.52,4.52,0,0,1,2.42,1.8,8.21,8.21,0,0,0,6.2,3.3c3.74.36,5.9,3.08,8,5.81.37.47.09.81-.22,1.13-2.31,2.4-4.85,4.39-8.38,4.47a9.08,9.08,0,0,0-6,2.67,4.58,4.58,0,0,1-3.19,1.21c-1.75,0-2.47-1-1.76-2.56.53-1.22,0-1.43-1-1.61a16.2,16.2,0,0,1-6-2.12,5.43,5.43,0,0,0-5.92-.08c-.48.25-.91.57-1.38.81s-1.11,1-1.81.57S187,77.07,187,76.2Zm28.27-.64a2.66,2.66,0,0,0,2.63-2.44,2.7,2.7,0,0,0-2.54-2.68,2.5,2.5,0,0,0-2.6,2.42A2.64,2.64,0,0,0,215.29,75.56Z"/><path class="cls-1" d="M215.29,75.56a2.64,2.64,0,0,1-2.51-2.7,2.5,2.5,0,0,1,2.6-2.42,2.7,2.7,0,0,1,2.54,2.68A2.66,2.66,0,0,1,215.29,75.56Zm.06-1.28A1.21,1.21,0,0,0,216.58,73c0-.6-.4-1.27-.83-1.13a2.4,2.4,0,0,0-1.53,1.54C214.08,73.92,214.77,74.2,215.35,74.28Z"/><path class="cls-1" d="M215.35,74.28c-.58-.08-1.27-.36-1.13-.88a2.4,2.4,0,0,1,1.53-1.54c.43-.14.83.53.83,1.13A1.21,1.21,0,0,1,215.35,74.28Z"/><path class="cls-1" d="M212.78,83c.45-.78,1-.76,1.66-.25a19.76,19.76,0,0,0,2.81,2.07,4,4,0,0,0,4.64-.27,29.48,29.48,0,0,1,6.93-4c.71-.27,1-.57.61-1.36s-.69-1.61,0-2.33a2.62,2.62,0,0,1,2.74-.45,4.93,4.93,0,0,1,2.64,2,7.72,7.72,0,0,0,5.83,3.12c3.81.31,5.91,3,7.93,5.82.34.47.12.82-.19,1.16-2.17,2.39-4.57,4.38-8,4.48a8.75,8.75,0,0,0-5.87,2.53,4.83,4.83,0,0,1-3.15,1.35c-1.9.08-2.7-.89-2-2.62.49-1.15.09-1.37-.89-1.54a19,19,0,0,1-6.67-2.43c-2-1.23-3.93-.55-5.78.45-.56.3-1.08.66-1.61,1a1,1,0,0,1-1.62-.25V88.23q.67-.44,0-.87Zm28.33,1a2.44,2.44,0,0,0-2.53,2.46,2.63,2.63,0,0,0,2.56,2.63,2.55,2.55,0,1,0,0-5.09Z"/><path class="cls-1" d="M241.11,84a2.55,2.55,0,1,1-2.53,2.46A2.44,2.44,0,0,1,241.11,84Zm1.28,2.57c0-.64-.47-1.34-.85-1.17A3,3,0,0,0,240,87c-.18.45.55.86,1.11.85A1.19,1.19,0,0,0,242.39,86.58Z"/><path class="cls-1" d="M242.39,86.58a1.19,1.19,0,0,1-1.27,1.23c-.56,0-1.29-.4-1.11-.85a3,3,0,0,1,1.53-1.55C241.92,85.24,242.36,85.94,242.39,86.58Z"/><path class="cls-1" d="M270.86,56.6a9.62,9.62,0,0,0-4.54,1.81c-.47.29-1,.84-1.57.46a1.59,1.59,0,0,1-.48-1.73,17.9,17.9,0,0,0,0-5.37,4.8,4.8,0,0,1,.06-1.31c.23-1.28.58-1.43,1.62-.7s1.76,1.4,2.71,2a3.92,3.92,0,0,0,4.75-.23,27.77,27.77,0,0,1,6.94-4c.81-.3.86-.7.53-1.42s-.7-1.59.05-2.3a2.61,2.61,0,0,1,2.61-.43A4.3,4.3,0,0,1,286,45.1a8.89,8.89,0,0,0,6.58,3.47c3.63.41,5.8,3.12,7.8,5.87.45.63-.2,1-.53,1.33a12.37,12.37,0,0,1-8.93,4.32,6.63,6.63,0,0,0-4.09,1.69,7,7,0,0,1-3.78,2c-2.11.19-2.95-.77-2.21-2.76.31-.8.34-1.15-.67-1.33a19.52,19.52,0,0,1-7.2-2.65A3.59,3.59,0,0,0,270.86,56.6Zm19.56-3.18a2.52,2.52,0,1,0,5,.24A2.45,2.45,0,0,0,293,51,2.33,2.33,0,0,0,290.42,53.42Z"/><path class="cls-1" d="M290.42,53.42A2.33,2.33,0,0,1,293,51a2.45,2.45,0,0,1,2.5,2.62,2.52,2.52,0,1,1-5-.24Zm3.81.08c-.1-.6-.51-1.28-1-1.11a2.75,2.75,0,0,0-1.51,1.45c-.17.53.56,1,1.19,1A1.28,1.28,0,0,0,294.23,53.5Z"/><path class="cls-1" d="M294.23,53.5A1.28,1.28,0,0,1,293,54.82c-.63,0-1.36-.45-1.19-1a2.75,2.75,0,0,1,1.51-1.45C293.72,52.22,294.13,52.9,294.23,53.5Z"/><path class="cls-1" d="M221.76,41.39c0-1.41,0-2.81,0-4.22,0-.51,0-1.17.5-1.44s1,.29,1.4.58c.83.58,1.6,1.27,2.47,1.79a3.88,3.88,0,0,0,4.74-.26,28.45,28.45,0,0,1,6.93-4c.54-.22.92-.43.61-1.16s-1-1.88.08-2.64a3.09,3.09,0,0,1,3.32,0,6.1,6.1,0,0,1,2.05,1.83,7.61,7.61,0,0,0,5.62,2.92c3.86.33,6.14,3,8.3,5.86.37.49.11.79-.2,1.13-2.42,2.63-5.24,4.49-8.94,4.6a7.16,7.16,0,0,0-4.49,1.82,7,7,0,0,1-3.52,2c-2.15.28-3.08-.75-2.35-2.77.3-.84.27-1.14-.71-1.32a19.76,19.76,0,0,1-6.94-2.54c-2.08-1.28-4-.4-5.91.6-.82.43-1.6,1.6-2.54,1s-.33-1.88-.33-2.87a8.52,8.52,0,0,1,.08-.87Zm28.24-4a2.34,2.34,0,0,0-2.46,2.45,2.47,2.47,0,0,0,2.55,2.58,2.52,2.52,0,1,0-.09-5Z"/><path class="cls-1" d="M250,37.37a2.52,2.52,0,1,1-2.46,2.45A2.34,2.34,0,0,1,250,37.37ZM251.35,40c0-.7-.43-1.42-.94-1.26a2.78,2.78,0,0,0-1.51,1.47c-.17.42.48.92,1.07.95A1.27,1.27,0,0,0,251.35,40Z"/><path class="cls-1" d="M251.35,40A1.27,1.27,0,0,1,250,41.16c-.59,0-1.24-.53-1.07-.95a2.78,2.78,0,0,1,1.51-1.47C250.92,38.58,251.33,39.3,251.35,40Z"/><path class="cls-1" d="M239.68,72.28c.58-1.83-.14-3.86,0-5.88,0-.54,0-1.17.54-1.43s1,.23,1.4.55.9.73,1.36,1.09c2.26,1.72,3.93,1.76,6.22.13a29.25,29.25,0,0,1,6.59-3.7c.71-.27.87-.58.54-1.28s-.73-1.71,0-2.44a2.73,2.73,0,0,1,2.77-.34,4.6,4.6,0,0,1,2.42,1.8,8.19,8.19,0,0,0,6.2,3.3c3.74.36,5.9,3.08,8,5.8.36.48.09.81-.23,1.14-2.31,2.4-4.84,4.39-8.37,4.47a9.08,9.08,0,0,0-6,2.67A4.6,4.6,0,0,1,258,79.37c-1.75,0-2.47-1-1.77-2.57.53-1.22,0-1.42-.95-1.6a16.14,16.14,0,0,1-6-2.12,5.45,5.45,0,0,0-5.93-.08c-.47.25-.9.57-1.38.81s-1.11,1-1.81.57S239.7,73.15,239.68,72.28ZM268,71.63a2.64,2.64,0,0,0,2.63-2.43A2.69,2.69,0,0,0,268,66.52a2.49,2.49,0,0,0-2.59,2.42A2.63,2.63,0,0,0,268,71.63Z"/><path class="cls-1" d="M268,71.63a2.63,2.63,0,0,1-2.5-2.69A2.49,2.49,0,0,1,268,66.52a2.69,2.69,0,0,1,2.54,2.68A2.64,2.64,0,0,1,268,71.63Zm.06-1.27a1.21,1.21,0,0,0,1.24-1.29c0-.6-.4-1.27-.84-1.13a2.44,2.44,0,0,0-1.53,1.54C266.75,70,267.44,70.28,268,70.36Z"/><path class="cls-1" d="M268,70.36c-.57-.08-1.26-.37-1.13-.88a2.44,2.44,0,0,1,1.53-1.54c.44-.14.84.53.84,1.13A1.21,1.21,0,0,1,268,70.36Z"/></g></g></g></svg>