<svg xmlns="http://www.w3.org/2000/svg" viewBox="0 0 289.04 87.54"><defs><style>.cls-1{fill:#1d5560;}</style></defs><title>Asset 8</title><g id="Layer_2" data-name="Layer 2"><g id="Layer_1-2" data-name="Layer 1"><path class="cls-1" d="M75,15.63c-32.94-.29-16.94,11.94-49.88,11.65-5.9-.05-20.87.65-25.12,7.35,0,19,8,17,11.85,35.42,6.92,7.9,16.25,7.46,24.37,3.71S64.89,84.43,73,80.63c23,3,60-1.75,99.64,2.9,30.67,3.6,59.14,6.34,71.36,1.1,14.3-3,22,3,44-16,3-19-.93-23.32-6-36-32.08-36.52-37.57-7.61-75-26C199.06,2.73,152.62.71,144.33.37S113.54-2.28,111,10.63Z"/></g></g></svg>