<svg xmlns="http://www.w3.org/2000/svg" viewBox="0 0 304.54 91.75"><defs><style>.cls-1{fill:#1d5560;}</style></defs><title>Asset 10</title><g id="Layer_2" data-name="Layer 2"><g id="Layer_1-2" data-name="Layer 1"><path class="cls-1" d="M43.06,10c-18-7-15.86.57-26.51,2.53S10.06,21,.06,30c-1,8.79,9.22,22.23,14,29C23.22,72,24.8,81,39,80c15.16-1.09,28,8.29,43.1,6,10-1.52,48-.75,58,1,77,12,48.75-1.9,111-7,5.17-.42,34.36-10.59,38-15,3-3.66,15.33-11.87,15-17-.86-13.7,4.17-15.62-6.23-21.46s-22.14-7.07-33.61-8C196,12.74,180.06,0,116.06,0c-21,3-55.22-2.51-57.6,6.46Z"/></g></g></svg>