<svg xmlns="http://www.w3.org/2000/svg" viewBox="0 0 242.72 127.72"><defs><style>.cls-1{fill:#052e35;}</style></defs><title>Asset 59</title><g id="Layer_2" data-name="Layer 2"><g id="Layer_4" data-name="Layer 4"><path class="cls-1" d="M47.85,85c2.56-1.31,5.15-2.87,7.92-4,17.73-7.37,36.48-9.31,55.41-10.25,1.94-.1,3.89-.23,5.82-.15,6.56.28,10.68-2.25,12.41-9,.92-3.62,3.36-6.86,5.23-10.49,4.73,3.38,9.64,5.66,8.19,12.66-1,4.62,1.61,7,6.56,7,3.62,0,7.35,1.31,10.83.75a37.58,37.58,0,0,0,13.05-4.38c4.23-2.51,7.63-6.43,12.68-10.87,1.05,8.54-4.8,18,6.58,21.41h-7.75c10.53,4.55,18.64,3.83,26.77-.6,8.9-4.86,18-9.36,27-14A24.38,24.38,0,0,1,242.72,62a53.26,53.26,0,0,1-2.51,5.26c-3.91,6.13-8.2,12-11.69,18.39-1.06,1.92-.74,5.36.23,7.53,3.14,7,6.87,13.77,11,21.89-3-.67-5.46-.77-7.53-1.78-5.86-2.87-12-5.47-17.21-9.33-9-6.7-18.69-8.55-29.71-6.42l3,2.16c-8.63,4.34-10.59,11.64-8.62,20.63l-1.71.85c-4.31-4.18-8.91-8.11-12.81-12.64-2.45-2.84-4.14-3.87-8.33-3.25-10.94,1.63-22.07,2-33.27,2.83,5,7.85-2.33,12.2-6,19.63-3.25-5.42-6.37-9.4-8.13-13.91-1.56-4-3-6.3-7.84-6.9a283.59,283.59,0,0,1-32.13-5.73C60.63,99,51.58,96.25,47.85,85Z"/><path class="cls-1" d="M0,25.31c1.91-1,3.84-2.15,5.9-3,13.22-5.49,27.2-6.95,41.31-7.65,1.45-.07,2.9-.16,4.35-.1,4.89.2,8-1.69,9.25-6.74.69-2.7,2.5-5.11,3.89-7.82,3.53,2.52,7.19,4.22,6.11,9.44-.71,3.44,1.2,5.22,4.89,5.2,2.7,0,5.48,1,8.08.56a28,28,0,0,0,9.73-3.26c3.15-1.88,5.68-4.79,9.45-8.11.78,6.37-3.58,13.4,4.9,16h-5.77c7.85,3.39,13.9,2.85,20-.45,6.63-3.62,13.4-7,20.14-10.41a18.26,18.26,0,0,1,3.1-.83A40.94,40.94,0,0,1,143.41,12c-2.91,4.56-6.11,9-8.71,13.7-.79,1.44-.55,4,.17,5.62,2.34,5.23,5.12,10.26,8.22,16.32-2.21-.5-4.08-.58-5.61-1.33-4.38-2.13-9-4.07-12.84-7-6.72-5-13.93-6.38-22.15-4.79l2.24,1.61c-6.44,3.23-7.9,8.68-6.43,15.38L97,52.23c-3.21-3.12-6.65-6-9.56-9.42-1.82-2.12-3.08-2.89-6.21-2.42-8.15,1.21-16.45,1.46-24.8,2.1,3.69,5.86-1.74,9.1-4.48,14.65-2.42-4-4.75-7-6.06-10.38-1.17-3-2.25-4.69-5.85-5.14a213.28,213.28,0,0,1-23.95-4.27C9.53,35.74,2.78,33.67,0,25.31Z"/></g></g></svg>