<svg xmlns="http://www.w3.org/2000/svg" viewBox="0 0 468.32 322.54"><defs><style>.cls-1{fill:#052e35;}</style></defs><title>Asset 58</title><g id="Layer_2" data-name="Layer 2"><g id="Layer_4" data-name="Layer 4"><path class="cls-1" d="M38.07,250.29c5,12.65,12.53,20.5,24.08,24.91,4.54,1.73,8.62,5.27,12.22,8.71,4.63,4.42,8.34,9.78,12.84,14.34,18.33,18.6,37.1,21.05,59.4,7.85,18.7-11.07,36.13-31.08,41.48-58.16-8.06,7.1-15.9,16.15-25.65,22s-21.67,8.72-33.78,13.33c-.08,1.69-.24,4.84-.39,8l-1.56.2c-1-3.21-2-6.43-2.81-8.82l-48.91-8c15.27-10.71,31.89,4.4,47.69-.77,1.78-4.54,3.59-9.18,5.28-13.5L97.74,256.7c20.2-1.31,40.21-1.26,55.94-17.72-2.38.38-4.94.32-7.12,1.2-15,6-30.12,5-45.88,3.33-10.19-1.08-20.91,2.78-33.27,4.72,14.86-10.41,30-9.45,45.09-11.16,16.12-1.83,32.09-7,47.43-12.64,4.54-1.66,6.73-9.7,10.18-15.11-15,4.61-28.49,9.84-42.44,12.61-8.28,1.64-17.53.39-26-1.31-13.43-2.69-17.94-9.51-20.39-23.05-1-5.5-5.22-10.41-7.94-15.52,2.62,2.15,7.85,4.37,9.58,8.18,11.24,24.69,18.52,28.7,46,21.34,12.55-3.37,24.59-8.64,38.94-13.79-14.39,1.38-26.26,3.27-38.15,3.48-13.82.24-25.91-4.25-33.41-17.16-5.21-9-12.42-13.31-23.29-9.2,5.42-6.52,12-7.41,19.1-3.82a25.71,25.71,0,0,1,8.83,6.73C111,191,124.42,192.17,139.24,189.68c14.29-2.39,28.63-4.53,43-8.58-23.34-2.17-43-12.63-62.32-23.79C95.72,143.33,51.6,162,40,180.36c-6,9.46-4.68,19.77-5.51,30.2-1.42,17.75-2,36.89-19.45,48.37-4.07,2.68-9.31,3.59-15,4.08,11.32-8.09,12-18.21,9.89-30.21s1.26-23.3,8.59-33.46c13.72-19,27.48-37.72,50.3-47.15,22.16-9.16,43.39-9.24,65.58,1.05a238.83,238.83,0,0,0,51.37,17.36c12.18,2.53,26,1.12,34.14-11.94.84-1.33,2.45-2.52,2.6-3.9,1.28-11.54,9-14.6,20.9-14.58l-9.84-9.26c20-19.33,43-34.6,65.44-50.25s46.41-29.66,69-44c-2.78-5.43-7-11.66-9.23-18.53-3.15-9.6-.56-13.83,9.4-14.56C386,2.32,404,2.26,421.84,1.58,433,1.16,444.13.47,455.27,0c3.15-.13,6.31.18,13.05.4-6.72,7.78-10.82,13.88-16.2,18.49C440.25,29.11,432,40.6,433.35,57.16a31.42,31.42,0,0,1-1.08,9c-2.75,12.66-8.25,15.73-20.34,11.51-17.11-6-16-4.91-28.54,8.7-25.89,28-53.1,54.83-79.83,82.08-4.73,4.83-9.71,9.43-14.69,14s-10.27,6.73-14.39,2.89c-7.67,3.34-14.5,5.66-20.62,9.22-3.94,2.29-8.52,5.81-9.87,9.78-6.39,18.7-16.05,34.74-31.78,47.14-15.34,12.09-22.92,27.25-14.47,47.59l-3.37.06c-2.13-8.22-4.26-16.44-6.79-26.17-2.24,3.41-4.22,6.54-6.31,9.61-14.45,21.25-32.54,37.09-59.46,39.5-3.66.33-7.74.95-11-.24C92.74,315.28,74.33,309.27,59.63,296a54.36,54.36,0,0,0-7.08-5.59c-6.82-4.36-15.12-6.88-13-18.42.89-4.8-2.81-10.37-4-15.68C35.29,255,36.74,253.32,38.07,250.29Zm140.71-6.75c-17.61,6.86-38,9.47-49.38,29.06C153,273.54,166.93,260.45,178.78,243.54Zm-16.23-5.4,3.44,4.27,39.64-33.22c-.64-.75-1.28-1.49-1.91-2.24Zm35.77,9.62,2.88,2.35q11.69-15.18,23.38-30.34l-2.69-2Z"/></g></g></svg>