<svg xmlns="http://www.w3.org/2000/svg" viewBox="0 0 341 225.12"><defs><style>.cls-1{fill:#22727c;}</style></defs><title>Stingray 1</title><g id="Layer_2" data-name="Layer 2"><g id="Layer_4" data-name="Layer 4"><path id="Stingray_1" data-name="Stingray 1" class="cls-1" d="M9.8,65.73c.5,5.64.76,11,1.49,16.26,1.62,11.59,7.26,20.47,18,25.79,1.73.85,2.64.43,3.66-1A120.36,120.36,0,0,1,57,82.52c2.39-1.86,2.81-3.72,1.06-6.34q-3.54-5.28-7.25-10.45c-1.94-2.71-2.18-4.53-.23-7.29,1-1.46.82-2.48.11-4a31.22,31.22,0,0,1-2.28-6.73c-.48-2.26-.14-4.89,2.26-5.67a10.45,10.45,0,0,1,6.79,0c1.88.81,3.33,3,4.5,4.91,1,1.68,1.43,3.75,2.07,5.54,2.66.69,4.14.17,5.47-2.51,1.7-3.44,5.61-3.88,9.09-4.31,9.06-1.14,18.18-1.84,27.17-3.32C114.15,41,122.44,38.89,131,37c-.29-1.43-.45-2.3-.65-3.16-1.4-6.09,3.68-9,8.49-7a11.35,11.35,0,0,1,4.88,4.52c2.55,4.14,3.65,4.95,8.45,4.39a16.52,16.52,0,0,0,2.72-.51c5.39-1.65,10,0,14.09,3.48a17.73,17.73,0,0,0,12.12,4.65c7.68-.18,13,3.16,16.82,9.54a10.33,10.33,0,0,0,8.58,5.27c13.34.92,26.67,2.16,40,2.67a55.28,55.28,0,0,0,25.83-5c8.39-3.93,14.3-10.64,19.57-17.91a73,73,0,0,1,28.23-23.3c6.91-3.32,13.81-7.08,18.93-13.17.4-.48.79-1,1.18-1.46l.75.44c-.73,2.4-1.29,4.88-2.24,7.19a48.7,48.7,0,0,1-13.91,18.69c-9.84,8.34-20,16.35-29.71,24.78C289.49,56,284.21,61.28,279,66.6c-6.46,6.57-12.78,13.28-19,20.06a81.44,81.44,0,0,0-17.83,31.14c-3.53,11.24-9.26,20.94-18.81,28.28-4.87,3.75-9.13,8.27-13.72,12.39-1.39,1.24-1.29,2.27-.28,3.76a64.67,64.67,0,0,0,19.1,18.54c4.59,2.91,9.21,5.77,13.78,8.71,8.32,5.36,13.83,13.06,18.42,21.65,2.59,4.84,5.84,9.33,8.8,14-1.78-1.13-4.14-2.06-5.71-3.73-3.82-4.07-7.82-8.15-10.75-12.85-5.17-8.26-12.2-14.48-19.76-20.27-8.63-6.62-17.62-12.81-25.8-19.92-5.72-5-11.83-5.89-18.79-5.26-9.37.84-18.74,1.92-28.13,2.17a136.78,136.78,0,0,1-59.16-11.75c-9.78-4.29-19.47-8.81-29.22-13.16A113.75,113.75,0,0,0,36.19,131C17.78,129.25,3.4,116,.52,97.82-1.31,86.34,1.75,75.91,8.79,66.66A9.42,9.42,0,0,1,9.8,65.73Z"/></g></g></svg>