<svg xmlns="http://www.w3.org/2000/svg" viewBox="0 0 258.08 153.76"><defs><style>.cls-1{fill:#22727c;}</style></defs><title>Stingray 2</title><g id="Layer_2" data-name="Layer 2"><g id="Layer_4" data-name="Layer 4"><path id="Stingray_2" data-name="Stingray 2" class="cls-1" d="M258.08,48.57c-2.77,1.46-5.25,3-7.89,4.12-6,2.66-12.48,3.52-18.94,4A444.62,444.62,0,0,0,179,63.32c-7.55,1.4-15,3.14-22.56,4.68-10.27,2.09-20.6,2.2-30.63-.81-6.14-1.85-10.69,0-15.08,3.77-2.34,2-4.62,4.09-7.12,6.3L92.93,70.2c-1.68,1.83-3.22,3.78-5,5.42-7,6.37-14,12.85-21.28,18.9-9.85,8.18-20.32,15.64-29.92,24.1-6.75,5.95-12.54,13-18.69,19.65C12.71,144,7.42,149.63,0,153.76c3-3.4,5.61-6.3,8.09-9.34,4.38-5.38,8.25-11.23,13.05-16.19,6.76-7,14-13.47,21.34-19.82C53.55,98.84,65,89.72,76,80.12c3.77-3.29,6.76-7.47,10.09-11.26a6,6,0,0,0,.6-1.39L73.57,68.89,73,68.07l7-11.31c-2.41-1.22-5.23-2.52-7.93-4A43.91,43.91,0,0,1,53.19,32c-3.14-7-8-11.73-15.36-13.89a35.54,35.54,0,0,1-5-2.06c-1.81-.85-4.09-1.43-4.08-4S31,8.81,32.78,8a103.53,103.53,0,0,1,24-7.59C66.12-1.13,74.48,1.75,82.86,5.3s17.2,6.81,25.86,10.08A21.1,21.1,0,0,0,126,14.46c10.9-5.21,22.19-5.5,32.86.17,10.19,5.41,20.43,5.79,31.35,3.47A108.82,108.82,0,0,1,209,15.78c9-.3,16.6,3.94,23.68,9,8.81,6.28,16.51,13.82,23.88,21.71A22.49,22.49,0,0,1,258.08,48.57Z"/></g></g></svg>