<svg xmlns="http://www.w3.org/2000/svg" xmlns:xlink="http://www.w3.org/1999/xlink" viewBox="0 0 1925.6 428.4"><defs><style>.cls-1{opacity:0.98;fill:url(#linear-gradient);}</style><linearGradient id="linear-gradient" x1="962.8" x2="962.8" y2="428.4" gradientUnits="userSpaceOnUse"><stop offset="0" stop-color="#017680"/><stop offset="0.3" stop-color="#017680" stop-opacity="0.98"/><stop offset="0.47" stop-color="#017680" stop-opacity="0.92"/><stop offset="0.6" stop-color="#017680" stop-opacity="0.81"/><stop offset="0.72" stop-color="#017680" stop-opacity="0.65"/><stop offset="0.83" stop-color="#017680" stop-opacity="0.45"/><stop offset="0.93" stop-color="#017680" stop-opacity="0.21"/><stop offset="1" stop-color="#017680" stop-opacity="0"/></linearGradient></defs><title>Asset 4</title><g id="Layer_2" data-name="Layer 2"><g id="Layer_1-2" data-name="Layer 1"><path class="cls-1" d="M2.86,26.32C55,13.6,120.63,20.29,173,30.8c54.08,10.84,105.47,44,162.35,36.13,28.86-4,55-18.64,82.36-28.58,62.51-22.66,121.19,15.92,182,24.79C664.44,72.58,719.61,34,783.28,33.67c45.15-.23,87.48,21.95,132.34,27,77.63,8.77,149.32-32.5,226-33.52,84.25-1.12,162.44,43.49,248.44,32,65.17-8.68,109.85-50.86,176.23-21,47.73,21.45,93.15,31.32,141.19,4,27.47-15.61,56.25-35.81,89-22,15.69,6.59,28.44,19.53,44.82,24.14,16.18,4.55,33.92.14,48.17-8.76S1914.94,13.61,1924.8,0c-4.73,38.1.84,78.67.8,117.14l-.14,137.16-.18,174.1H0L5.72,51.31"/></g></g></svg>