<svg xmlns="http://www.w3.org/2000/svg" xmlns:xlink="http://www.w3.org/1999/xlink" viewBox="0 0 1920 428.4"><defs><style>.cls-1{fill:url(#linear-gradient);}</style><linearGradient id="linear-gradient" x1="960" x2="960" y2="428.4" gradientUnits="userSpaceOnUse"><stop offset="0" stop-color="#017680"/><stop offset="0.3" stop-color="#017680" stop-opacity="0.98"/><stop offset="0.47" stop-color="#017680" stop-opacity="0.92"/><stop offset="0.6" stop-color="#017680" stop-opacity="0.81"/><stop offset="0.72" stop-color="#017680" stop-opacity="0.65"/><stop offset="0.83" stop-color="#017680" stop-opacity="0.45"/><stop offset="0.93" stop-color="#017680" stop-opacity="0.21"/><stop offset="1" stop-color="#017680" stop-opacity="0"/></linearGradient></defs><title>Asset 43</title><g id="Layer_2" data-name="Layer 2"><g id="Layer_1-2" data-name="Layer 1"><path class="cls-1" d="M1920,0c-9.86,13.61-19.12,26.62-33.37,35.53s-32,13.31-48.16,8.76c-16.39-4.61-29.13-17.55-44.83-24.14-32.73-13.77-61.51,6.43-89,22-48,27.28-93.46,17.41-141.19-4-66.38-29.82-111.06,12.36-176.23,21-86,11.46-164.2-33.15-248.44-32-76.72,1-148.41,42.29-226,33.52-44.86-5.06-87.19-27.24-132.34-27C716.75,34,661.58,72.58,596.86,63.14c-60.78-8.87-119.47-47.45-182-24.79-27.4,9.94-53.5,24.58-82.36,28.58C275.64,74.82,224.26,41.64,170.18,30.8,117.77,20.29,52.16,13.6,0,26.32V428.4H1920Z"/></g></g></svg>