<svg width="38" height="1083" viewBox="0 0 38 1083" fill="none" xmlns="http://www.w3.org/2000/svg">
<path d="M0 0H26.52C26.52 1.77 26.52 3.55 26.6 5.32C27.09 29.76 28.45 54.22 27.89 78.63C27.09 114.21 24.82 149.75 23.36 185.32C22.74 200.42 24.53 215.92 21.72 230.57C18.91 245.22 17.97 258.32 27.28 270.88C28.46 272.47 28.46 276.79 27.21 278.01C21.54 283.57 23.15 289.61 24.6 296.01C26.28 303.35 29.02 310.86 28.68 318.17C27.36 347.26 25.21 376.32 22.96 405.35C21.89 419.09 19.35 432.72 18.56 446.46C18.09 454.74 18.7 463.52 28.8 467.41C30.12 467.92 31.2 471.54 30.86 473.41C29.27 482.47 28.1 491.32 31.47 500.41C32.3 502.64 31.62 506.78 30 508.32C26.42 511.71 26.86 515.06 27.47 519.22C28.89 528.81 31.85 538.79 30.47 548.07C26.19 577.74 20.13 607.15 14.97 636.69C12.24 652.32 7.21 667.9 14.09 683.89C15.16 686.36 13.58 690.32 12.47 693.31C10.18 699.45 5.47001 705.31 5.10001 711.45C3.31001 745.45 2.49999 779.45 1.48999 813.45C1.54106 816.559 1.94705 819.653 2.70001 822.67C4.86001 833.33 7.63001 843.9 9.20001 854.67C9.96001 859.88 8.42001 865.4 8.20001 870.79C7.99316 873.148 8.23752 875.524 8.92001 877.79C21.22 911.85 29.55 946.71 30.83 983.07C31.25 995.07 31.9 1007.07 33.13 1019C33.62 1023.72 37.46 1028.32 37.24 1032.85C36.44 1049.18 34.46 1066.82 33 1083H0V0Z" fill="#00242C"/>
</svg>
