<svg width="1546" height="660" viewBox="0 0 1546 660" fill="none" xmlns="http://www.w3.org/2000/svg">
<g opacity="0.2">
<path d="M1535.93 166.439C1410.75 177.828 1256.98 200.535 1142.68 245.778C1142.68 245.778 1103.45 280.627 1047.26 296.951C991.069 313.275 759.464 375.134 653.61 378.702C547.755 382.27 191.422 577.435 36.5145 660C36.5145 660 -99.67 639.615 -118.042 638.298C-136.415 636.982 -76.4564 564.096 -76.4564 564.096C-76.4564 564.096 396.636 376.712 717.377 362.308C717.377 362.308 1045.89 306.168 1095.89 256.503C1130.61 222.025 1344.92 174.863 1535.38 151.834L1535.93 166.439Z" fill="white"/>
<path d="M1546 -10.8736C1442.86 -16.6332 1358.4 23.8753 1358.4 23.8753C1267.59 57.4481 1159.99 67.912 1052.08 68.495C905.742 69.2992 758.852 51.9599 652.447 49.457C467.55 45.1147 380.819 120.06 380.819 145.26C380.819 170.46 351.141 195.077 351.141 195.077C273.532 225.232 337.449 227.112 337.449 227.112C431.035 212.346 638.745 331.65 435.596 323.106C232.447 314.562 -38.2382 333.027 -38.2382 333.027V355.653C-38.2382 355.653 285.8 320.12 534.174 355.814C534.174 355.814 699.235 369.002 641.602 258.423C641.602 258.423 563.421 193.358 488.097 183.427C488.097 183.427 405.907 160.67 622.768 81.5824C622.768 81.5824 684.912 64.4944 759.985 68.7664C835.058 73.0384 1045.96 72.1941 1045.96 72.1941" fill="white"/>
<path d="M1467.55 -16C1363.5 -15.1456 1266.64 16.3164 1266.64 16.3164C1175.83 49.8791 1068.18 60.343 960.318 60.9361C813.98 61.7402 667.091 44.3909 560.675 41.8981C375.788 37.5557 289.048 112.491 289.048 137.701C289.048 162.911 259.369 187.518 259.369 187.518C181.76 217.673 245.678 219.553 245.678 219.553C339.264 204.777 546.973 324.091 343.824 315.537C140.675 306.983 -130 325.428 -130 325.428V348.054C-130 348.054 194.038 312.521 442.412 348.205C442.412 348.205 607.463 361.403 549.84 250.824C549.84 250.824 471.659 185.749 396.335 175.817C396.335 175.817 314.146 153.06 531.006 73.9832C531.006 73.9832 593.15 56.8953 668.223 61.1572C743.297 65.4191 954.194 64.5949 954.194 64.5949" fill="white"/>
</g>
</svg>
