<svg width="94" height="1024" viewBox="0 0 94 1024" fill="none" xmlns="http://www.w3.org/2000/svg">
<path d="M93.0663 1024L0 1023.88C1.08961 1020.78 1.98018 1018.54 2.6529 1016.24C7.39034 1000.13 12.1941 984.015 16.6284 967.904C17.5758 964.558 18.0022 960.426 16.8747 957.317C12.6773 945.802 15.7188 934.941 18.5708 923.919C23.0524 906.651 27.6193 889.393 31.6082 872.012C32.802 866.771 30.6607 860.392 32.7357 855.815C36.933 846.754 34.1001 839.305 31.4566 830.861C30.0922 826.511 31.3619 820.057 33.8538 816.057C38.4491 808.665 44.8162 802.382 49.8094 796.401C48.2745 793.842 45.9342 791.246 45.072 788.232C43.8238 783.555 43.1149 778.75 42.9591 773.912C41.2821 731.936 42.9591 690.151 51.5718 648.915C53.1351 641.428 56.7546 634.357 59.4739 627.117C60.9993 623.06 62.9511 619.137 64.0313 614.967C64.3534 613.735 62.1363 612 61.4731 610.323C60.5824 607.944 58.7159 604.399 59.6633 603.12C68.1907 591.548 64.0502 579.275 62.2879 567.163C58.6969 542.399 54.9259 517.663 51.3349 492.898C51.0503 490.181 51.0217 487.442 51.2496 484.719C51.8276 472.446 52.7846 460.183 52.9267 447.909C52.9267 443.986 50.2453 440.081 49.9516 436.082C49.601 431.229 50.7475 426.282 50.7664 421.382C50.7664 413.63 53.3815 403.745 49.6295 398.542C39.7945 384.885 47.1755 372.005 48.0756 358.908C48.7578 349.117 51.6666 339.498 53.2868 329.755C54.2074 324.804 54.6767 319.779 54.689 314.743C54.149 281.487 53.9215 248.212 52.5003 214.984C51.7139 196.456 48.3598 178.023 47.0807 159.532C46.3606 148.946 46.1332 137.99 48.0282 127.613C51.1477 110.202 50.6705 92.3367 46.6259 75.1175C44.0677 63.7447 43.7077 51.8411 42.2959 40.184C40.6947 26.9157 39.0176 13.6948 37.3216 0H93L93.0663 1024Z" fill="#00242C"/>
</svg>
