<svg xmlns="http://www.w3.org/2000/svg" viewBox="0 0 158.53 158.53"><defs><style>.cls-1{fill:#fff;opacity:0.6;}</style></defs><title>Asset 71</title><g id="Layer_2" data-name="Layer 2"><g id="Sponsors"><circle class="cls-1" cx="79.26" cy="79.26" r="79.26"/><path d="M122.76,69.09a10.4,10.4,0,0,0-6-6.24c-1.17-.56-1.64-.82-1.91-1.37a16.19,16.19,0,0,1-1-3.32c-.71-3.25-1.61-7.31-6.37-10.54-3.86-2.63-7.35-2.27-10.15-2a12,12,0,0,1-4.72-.11,9.31,9.31,0,0,1-3.09-2c-2.23-1.88-5-4.23-10.26-4.23s-8,2.35-10.25,4.23a9.31,9.31,0,0,1-3.09,2,12,12,0,0,1-4.73.11c-2.8-.3-6.28-.66-10.15,2-4.76,3.23-5.65,7.29-6.37,10.54a15.59,15.59,0,0,1-1,3.32c-.26.55-.73.81-1.91,1.37a10.43,10.43,0,0,0-6,6.24c-1.86,4.79.29,8.34,2.08,10.59l.6.78c4.69,6.13,9.93,12.67,15.15,18.6a2,2,0,0,0-.35.72l-2.32,9.07a5.84,5.84,0,0,0,6.54,7.65l10.84-1.94a2.22,2.22,0,0,0,.73-.28c4,3.09,7.48,5,10.21,5h.05c1.19,0,3.9,0,10-4.74l0,0,13.15,2a5.84,5.84,0,0,0,6.54-7.65l-2.65-10.31a2.06,2.06,0,0,0-.35-.73c6.59-7.57,12.17-14.87,14.09-17.37.3-.4.51-.66.6-.79C122.47,77.43,124.63,73.88,122.76,69.09Zm-66,43.37a1.75,1.75,0,0,1-2-2.31l2-7.58c2.85,3.1,5.67,6,8.36,8.39Zm48.05-.56a1.73,1.73,0,0,1-1.64.59L93.39,111c2.65-2.43,5.78-5.56,9.45-9.62L105,110l.06.19A1.74,1.74,0,0,1,104.8,111.9Zm12.67-34.76-.64.84c-2,2.64-8.2,10.7-15.27,18.7-14.74,16.68-20.49,18.47-22.27,18.47h-.05c-4.39,0-16.56-9.76-37.55-37.18-.32-.41-.53-.7-.64-.83-1.4-1.77-2.55-3.79-1.47-6.57a6.49,6.49,0,0,1,4-4,7.1,7.1,0,0,0,3.83-3.28A18.9,18.9,0,0,0,48.67,59c.65-2.94,1.26-5.72,4.67-8a8,8,0,0,1,4.82-1.46c.84,0,1.7.09,2.61.18a15.81,15.81,0,0,0,6.3-.24,12.74,12.74,0,0,0,4.59-2.85c2-1.68,3.85-3.26,7.6-3.26s5.63,1.58,7.61,3.26a12.57,12.57,0,0,0,4.59,2.85,15.8,15.8,0,0,0,6.3.24c2.57-.27,4.79-.5,7.42,1.28,3.41,2.32,4,5.1,4.67,8a18.93,18.93,0,0,0,1.29,4.23A7,7,0,0,0,115,66.55a6.45,6.45,0,0,1,4,4C120,73.35,118.88,75.37,117.47,77.14Z"/><path d="M50.2,75.68a2.05,2.05,0,0,1-1.1-3.78A13,13,0,0,0,54,66.47a24.68,24.68,0,0,0,1.85-5.85,11.5,11.5,0,0,1,.72-2.6l.57-1.11h.47l.08-.07.84,0c.39,0,.91.07,1.47.13a35.12,35.12,0,0,0,3.75.24,18.87,18.87,0,0,0,5.39-.74,19.34,19.34,0,0,0,7.27-4.29A15.66,15.66,0,0,1,77.93,51l.39-.24.46,0a7.85,7.85,0,0,1,1,0l.45,0,.39.24a13.58,13.58,0,0,1,1.52,1.19,19.38,19.38,0,0,0,7.28,4.3,19,19,0,0,0,5.4.74A34.36,34.36,0,0,0,98.52,57c.55-.06,1.07-.11,1.49-.13l1.34-.07L102,58a12,12,0,0,1,.73,2.6,25.15,25.15,0,0,0,1.85,5.85,13.06,13.06,0,0,0,4.9,5.43,2.05,2.05,0,0,1-2.2,3.46,17.27,17.27,0,0,1-6.39-7.1,28.76,28.76,0,0,1-2.16-6.76l-.08-.37a36.25,36.25,0,0,1-3.81.23,23,23,0,0,1-6.55-.91,23.57,23.57,0,0,1-8.76-5.09l-.22-.18-.19.16a23.71,23.71,0,0,1-8.78,5.11,23,23,0,0,1-6.55.91,35.9,35.9,0,0,1-3.81-.23c0,.14-.06.27-.08.37a29.32,29.32,0,0,1-2.17,6.76,17.2,17.2,0,0,1-6.39,7.1A2.09,2.09,0,0,1,50.2,75.68Z"/><path d="M73.08,102.6a2,2,0,0,1-1.22-.41c-2.71-2-14.14-16.19-16.4-19a2,2,0,1,1,3.19-2.56c5.12,6.37,13.9,17,15.67,18.3a2,2,0,0,1-1.24,3.68Z"/><circle cx="78.56" cy="106.88" r="2.44" transform="translate(-31.11 181.51) rotate(-87.92)"/></g></g></svg>