<svg xmlns="http://www.w3.org/2000/svg" viewBox="0 0 158.53 158.53"><defs><style>.cls-1{fill:#fff;opacity:0.6;}</style></defs><title>Asset 70</title><g id="Layer_2" data-name="Layer 2"><g id="Sponsors"><circle class="cls-1" cx="79.26" cy="79.26" r="79.26"/><path d="M58.7,54.45a2.23,2.23,0,0,1-2.26-2.17A2.29,2.29,0,0,1,58.64,50a2.23,2.23,0,0,1,2.23,2.19A2.16,2.16,0,0,1,58.7,54.45Z"/><path d="M79.26,30.31a31.87,31.87,0,0,0-22.18,9.07A31.13,31.13,0,0,0,47.9,61.29a2.36,2.36,0,0,0,2.32,2.33H108.3a2.37,2.37,0,0,0,2.33-2.33,31.14,31.14,0,0,0-9.19-21.91,31.85,31.85,0,0,0-22.18-9.07c-3,0-3,4.63,0,4.65,14.48.1,26.61,11.74,26.71,26.33L108.3,59H50.22l2.33,2.32C52.65,46.7,64.78,35.06,79.26,35,82.26,34.94,82.26,30.29,79.26,30.31Z"/><path d="M97.12,61.91c1.54,4.36,3.49,8.59,3.39,13.29-.08,4-1.41,7.17-3,10.68a46.22,46.22,0,0,0-3.87,13,62,62,0,0,0-.42,8.93v8.71c0,3,4.65,3,4.65,0,0-5.22-.39-10.6.18-15.79a40.41,40.41,0,0,1,3.53-12.58c.54-1.18,1.1-2.34,1.63-3.52a23.6,23.6,0,0,0,1.92-7.88A22.67,22.67,0,0,0,104,67.54q-1.2-3.44-2.42-6.87c-1-2.8-5.48-1.59-4.49,1.24Z"/><path d="M83.68,60.67C82.85,63,82,65.22,81.19,67.53a15.35,15.35,0,0,0-.08,8.78,12.72,12.72,0,0,0,1.72,3.81,8,8,0,0,1,1.73,3.31A8.3,8.3,0,0,1,84.38,87a17.56,17.56,0,0,1-1.86,3.73,31.83,31.83,0,0,0-3.78,14.66c0,3,0,6,0,9v9c0,3,4.65,3,4.65,0v-17.3a28,28,0,0,1,2.8-12.25c.57-1.16,1.36-2.2,1.89-3.38a14.27,14.27,0,0,0,1.22-4.81,11.5,11.5,0,0,0-2.45-7.83c-3.56-5-.52-10.84,1.31-15.87,1-2.82-3.47-4-4.48-1.24Z"/><path d="M67.59,61.91l2.72,9c1.24,4.1,1.84,8.93-.6,12.74A18.79,18.79,0,0,0,67,92c-.35,3.24.36,6.2,1,9.35a74.21,74.21,0,0,1,1.3,14V126c0,3,4.66,3,4.66,0,0-7.84.16-15.57-1.05-23.35-.43-2.81-1.35-5.59-1.34-8.45A14.87,14.87,0,0,1,73.73,86c2.8-4.38,2.84-10.47,1.38-15.3l-3-10c-.86-2.86-5.35-1.64-4.48,1.24Z"/><path d="M57.43,60.67,55.5,68.34c-1,4.16-1.91,9.43-.09,13.5A9.36,9.36,0,0,1,55.83,88c-.59,2.37-1.41,4.59-1.81,7A68.68,68.68,0,0,0,53.27,106v9c0,3,4.66,3,4.66,0,0-5.73-.34-11.6.38-17.3.64-5,3.1-9.72,2.28-14.86a15.25,15.25,0,0,0-1.05-3.07,11,11,0,0,1-.42-2.85,24.42,24.42,0,0,1,.75-6.81c.67-2.72,1.37-5.44,2.05-8.16.73-2.9-3.75-4.14-4.49-1.24Z"/><path d="M64.43,49.09c2.67-3.28,6.47-6.2,10.73-6.8a2.34,2.34,0,0,0,1.63-2.86,2.41,2.41,0,0,0-2.87-1.63c-4.94.7-9.68,4.18-12.78,8a2.4,2.4,0,0,0,0,3.29,2.33,2.33,0,0,0,3.29,0Z"/></g></g></svg>