<svg xmlns="http://www.w3.org/2000/svg" viewBox="0 0 158.53 158.53"><defs><style>.cls-1{fill:#fff;opacity:0.6;}</style></defs><title>Asset 72</title><g id="Layer_2" data-name="Layer 2"><g id="Sponsors"><circle class="cls-1" cx="79.26" cy="79.26" r="79.26"/><path d="M49.38,81.88a2.8,2.8,0,0,1-2.84-2.71,2.89,2.89,0,0,1,2.76-2.84,2.81,2.81,0,0,1,2.8,2.76A2.7,2.7,0,0,1,49.38,81.88Z"/><path d="M42.18,78.38H23.88c-3,0-3,4.66,0,4.66h18.3c3,0,3-4.66,0-4.66Z"/><path d="M76.94,49.26v8.25c0,3,4.65,3,4.65,0V49.26c0-3-4.65-3-4.65,0Z"/><path d="M62.53,49.26v8.25c0,3,4.66,3,4.66,0V49.26c0-3-4.66-3-4.66,0Z"/><path d="M43.72,69.05l-8.06-1.77c-2.92-.63-4.16,3.85-1.23,4.49l8.06,1.76c2.92.64,4.16-3.84,1.23-4.48Z"/><path d="M91.34,49.26v8.25c0,3,4.65,3,4.65,0V49.26c0-3-4.65-3-4.65,0Z"/><path d="M62.53,101v8.25c0,3,4.66,3,4.66,0V101c0-3-4.66-3-4.66,0Z"/><path d="M91.34,101v8.25c0,3,4.65,3,4.65,0V101c0-3-4.65-3-4.65,0Z"/><path d="M76.94,101v8.25c0,3,4.65,3,4.65,0V101c0-3-4.65-3-4.65,0Z"/><path d="M35.6,94.14l8.06-1.76c2.93-.64,1.69-5.13-1.23-4.49l-8.07,1.76c-2.92.64-1.68,5.13,1.24,4.49Z"/><path d="M123.78,67.28l-8.06,1.77c-2.92.63-1.68,5.12,1.24,4.48L125,71.77c2.93-.64,1.69-5.13-1.24-4.49Z"/><path d="M124.08,89.65,116,87.89c-2.92-.64-4.17,3.85-1.24,4.49l8.06,1.76c2.92.64,4.17-3.85,1.24-4.49Z"/><path d="M104.51,99.37l4.45,6.95c1.61,2.51,5.64.18,4-2.35l-4.45-7c-1.61-2.52-5.64-.19-4,2.35Z"/><path d="M108.53,61.51,113,54.56c1.62-2.53-2.41-4.87-4-2.35l-4.45,6.95c-1.62,2.53,2.41,4.86,4,2.35Z"/><path d="M49.54,97l-4.45,7c-1.62,2.53,2.4,4.86,4,2.35l4.44-6.95c1.62-2.53-2.4-4.87-4-2.35Z"/><path d="M53.55,59.16l-4.44-6.95c-1.61-2.52-5.64-.19-4,2.35l4.45,6.95c1.6,2.51,5.63.18,4-2.35Z"/><path d="M106.88,79.11c-.06,4.12-2.18,8.35-6.13,10A8.92,8.92,0,0,1,90.22,86a11.8,11.8,0,0,1-.88-12.32c1.89-3.53,5.77-6,9.86-5,4.82,1.1,7.61,5.77,7.68,10.5,0,3,4.69,3,4.65,0-.09-6.19-3.49-12.12-9.38-14.44S90,64.74,86.42,69.59a16.47,16.47,0,0,0-1,17.47,13.86,13.86,0,0,0,14.85,7.07c6.92-1.45,11.17-8.27,11.27-15C111.57,76.11,106.92,76.11,106.88,79.11Z"/><path d="M61.64,61.85A16.66,16.66,0,0,0,49.08,72a2.34,2.34,0,0,0,1.62,2.86,2.37,2.37,0,0,0,2.86-1.63c1.54-3.84,5.56-6.23,9.32-6.84a2.34,2.34,0,0,0,1.62-2.86,2.38,2.38,0,0,0-2.86-1.63Z"/><path d="M42.18,78.38H23.88c-3,0-3,4.66,0,4.66h18.3c3,0,3-4.66,0-4.66Z"/><path d="M134.65,78.38H116.34c-3,0-3,4.66,0,4.66h18.31c3,0,3-4.66,0-4.66Z"/><path d="M96,98.69H67c-1.45,0-2.89,0-4.34,0a18.32,18.32,0,0,1-9.71-2.78,18,18,0,0,1-7.32-9.06A26.07,26.07,0,0,1,44.52,77a18.25,18.25,0,0,1,14.93-17,27.36,27.36,0,0,1,5-.25H89.65c4.43,0,9-.38,13.22,1.35A18.24,18.24,0,0,1,111.7,69c1.88,3.3,2.32,6.78,2.32,10.5a19.48,19.48,0,0,1-2.69,10.6,18,18,0,0,1-9.16,7.48A18.57,18.57,0,0,1,96,98.69c-3,0-3,4.68,0,4.65a23,23,0,0,0,21.62-16,30,30,0,0,0,1-10.92,23,23,0,0,0-5.24-13.13,22.63,22.63,0,0,0-11.77-7.44,28.69,28.69,0,0,0-7.09-.7H62.73A23,23,0,0,0,42.28,67.66c-2,3.91-2.42,8-2.42,12.26a23.71,23.71,0,0,0,3.22,12.41,23.11,23.11,0,0,0,20,11H96C99,103.34,99,98.69,96,98.69Z"/></g></g></svg>