<svg xmlns="http://www.w3.org/2000/svg" viewBox="0 0 158.53 158.53"><defs><style>.cls-1{fill:#fff;opacity:0.6;}</style></defs><title>Asset 69</title><g id="Layer_2" data-name="Layer 2"><g id="Sponsors"><circle class="cls-1" cx="79.26" cy="79.26" r="79.26"/><path d="M79.81,30.87c1.8,1.75,3.62,3.48,5.4,5.25q5,5,10,10c3.35,3.36,3.35,7.46,0,10.82a28.63,28.63,0,0,1-2.15,2.12,2.29,2.29,0,0,0-.81,2.15c.16,2.23.29,4.47.36,6.7.11,3.43-.49,6.65-3.06,9.21a1.34,1.34,0,0,0-.24.86c0,5,0,10.08.13,15.12A11.09,11.09,0,0,0,100,103.66c2.77.09,5,1.1,6.09,3.78a5.87,5.87,0,0,1-5.46,8.09,22.27,22.27,0,0,1-9.16-1.92,7.52,7.52,0,0,0-1.36-.51c.51,1.23.48,2.67,2.09,3.34A5.79,5.79,0,0,1,95.45,123a6,6,0,0,1-5.79,4.65,9.06,9.06,0,0,1-7.5-4.07,44.85,44.85,0,0,1-2.41-4.15c-.16-.28-.29-.59-.49-1-.64,1.24-1.16,2.41-1.81,3.5-1.54,2.58-3.52,4.67-6.57,5.46a6.14,6.14,0,0,1-7.59-3.61,5.73,5.73,0,0,1,2.78-7.22,3.7,3.7,0,0,0,2-2.38c.11-.34.25-.68.41-1.13a36.34,36.34,0,0,1-4.41,1.54,34.92,34.92,0,0,1-6.42.88A5.72,5.72,0,0,1,52,110.11a5.81,5.81,0,0,1,5.09-6.29c2-.23,4-.33,5.83-1.36,3.68-2.09,5.92-5.09,5.92-9.48q0-7.45,0-14.93a1.71,1.71,0,0,0-.32-1.1,10.75,10.75,0,0,1-2.83-7.6c0-2.57.14-5.16.32-7.73a2.89,2.89,0,0,0-1-2.73,24.68,24.68,0,0,1-2.77-2.83,6.89,6.89,0,0,1,0-9c.31-.36.63-.71,1-1l13.1-13.1c.71-.71,1.46-1.36,2.2-2ZM72.75,79.45v1.09c0,4.41,0,8.82,0,13.23a9.41,9.41,0,0,1-.33,2.42A15,15,0,0,1,58.21,107.6c-1.45.06-2.33.85-2.31,2.07s.91,2,2.38,2a15.49,15.49,0,0,0,7-1.53,57.89,57.89,0,0,0,5.19-3.2,2,2,0,0,1,2.3-.15,1.76,1.76,0,0,1,.87,2c-.77,2.68-1.51,5.38-2.47,8-.5,1.36-1.23,2.7-2.91,3.1a1.84,1.84,0,0,0-1.44,2.2A1.94,1.94,0,0,0,69,123.73a5.71,5.71,0,0,0,4.46-2.8c2-2.71,2.85-5.86,3.67-9,.43-1.68,1.06-2.38,2.13-2.36s1.63.7,2.06,2.34c.82,3.17,1.71,6.32,3.65,9a5.72,5.72,0,0,0,4.46,2.81,2,2,0,0,0,2.2-1.72,1.92,1.92,0,0,0-1.52-2.17A3.44,3.44,0,0,1,88,118.12a29.39,29.39,0,0,1-3.21-9.51,1.81,1.81,0,0,1,1.94-2.12,3.68,3.68,0,0,1,1.74.82,18.84,18.84,0,0,0,11.91,4.31,2,2,0,0,0,2.22-1.92,2,2,0,0,0-2.1-2.09c-.69-.06-1.38-.1-2.06-.19-6.59-.82-12.27-6.52-12.72-13.15-.3-4.54-.17-9.12-.23-13.69V79.45A26.86,26.86,0,0,1,72.75,79.45Zm6.41-43.74a29.13,29.13,0,0,0-4.32,6.65c-4.19,8.8-5.45,18.17-5.21,27.8a5.51,5.51,0,0,0,4.26,5.47,19.68,19.68,0,0,0,9.34.31c3.72-.69,5.41-2.75,5.46-6.54,0-2.05,0-4.09-.16-6.13a57.36,57.36,0,0,0-3.41-17A35.56,35.56,0,0,0,79.16,35.71ZM91.65,55.08a21.45,21.45,0,0,0,1.6-1.72,2.69,2.69,0,0,0,.08-3.43,49.71,49.71,0,0,0-4-3.73ZM69,45.94c-1.19,1.13-2.62,2.41-3.93,3.79a2.93,2.93,0,0,0-.58,1.64C64.31,53.12,65.57,54,66.65,55Z"/><path d="M81.84,89.45A2.16,2.16,0,0,1,84,91.59a2.2,2.2,0,0,1-2.21,2.21,2.27,2.27,0,0,1-2.16-2.2A2.23,2.23,0,0,1,81.84,89.45Z"/><path d="M74.27,91.58a2.17,2.17,0,0,1,2.19-2.13,2.23,2.23,0,0,1,2.18,2.17,2.26,2.26,0,0,1-2.26,2.18A2.2,2.2,0,0,1,74.27,91.58Z"/><path d="M71.82,61c.83-3.9,1.62-7.8,2.51-11.68a1.86,1.86,0,0,1,2.34-1.37A2,2,0,0,1,78,50.4q-1,5.41-2,10.83c-.23,1.28-1,2-2.12,2A2,2,0,0,1,72.08,61Z"/><path d="M76.59,43.86A2.79,2.79,0,0,1,79,41.15a2,2,0,0,1,1.9,2,2.83,2.83,0,0,1-2.4,2.69A1.9,1.9,0,0,1,76.59,43.86Z"/></g></g></svg>