<svg id="Layer_1" data-name="Layer 1" xmlns="http://www.w3.org/2000/svg" viewBox="0 0 217.73 161.6"><defs><style>.cls-1{fill:#fff;}</style></defs><title>Logo</title><g id="logo"><polygon class="cls-1" points="96.39 38.39 112.08 38.37 112.06 28.65 122.52 28.64 122.5 16.91 92.8 16.94 85.92 28.68 96.38 28.67 96.39 38.39"/><polygon class="cls-1" points="112.09 48.73 96.41 48.75 96.42 58.48 85.96 58.47 85.98 70.22 115.78 70.18 122.56 58.44 112.1 58.46 112.09 48.73"/></g><g id="logotext"><path class="cls-1" d="M61.17,92.1H67v7.78h7.45V92.09h5.81l0,20.76H74.46V105H67v7.89H61.2Z"/><path class="cls-1" d="M91.2,91.92h5.6l9,20.9H99.52L98,109.11H89.91l-1.49,3.71H82.31Zm5.11,12.72L94,98.73l-2.36,5.91Z"/><path class="cls-1" d="M105.71,102.49v-.06a10.73,10.73,0,0,1,11-10.81,10.25,10.25,0,0,1,8.89,4.32l-4.37,3.36a5.56,5.56,0,0,0-4.58-2.43c-2.93,0-5,2.47-5,5.49v.06c0,3.11,2.07,5.54,5,5.54a5.71,5.71,0,0,0,4.72-2.53l4.38,3.08a11.06,11.06,0,0,1-20.1-6Z"/><path class="cls-1" d="M128.28,92h5.81v8.42L141.3,92h6.89l-7.93,8.94,8.22,11.82h-7l-5.28-7.7-2.12,2.35v5.36h-5.8Z"/><path class="cls-1" d="M38.72,127h5.84l0,20.76H38.75Z"/><path class="cls-1" d="M48.4,127h5.81l0,15.72,10.14,0v5l-15.95,0Z"/><path class="cls-1" d="M66.84,127h5.81l0,15.72H82.82v5l-15.95,0Z"/><path class="cls-1" d="M85.41,127h5.84l0,20.76H85.44Z"/><path class="cls-1" d="M95.08,127h5.42l8.63,11V127h5.75l0,20.76H109.8l-9-11.38v11.39H95.11Z"/><path class="cls-1" d="M117.88,137.38v-.06c0-6,4.83-10.8,11.3-10.81s11.27,4.76,11.27,10.72v.06c0,6-4.83,10.8-11.3,10.81S117.89,143.34,117.88,137.38Zm16.65,0v-.06a5.42,5.42,0,0,0-5.4-5.6,5.31,5.31,0,0,0-5.29,5.55v.06a5.41,5.41,0,0,0,5.36,5.6A5.33,5.33,0,0,0,134.53,137.36Z"/><path class="cls-1" d="M143.59,126.91h5.84l0,20.76h-5.83Z"/><path class="cls-1" d="M151.7,144.57l3.22-3.83a10.82,10.82,0,0,0,6.8,2.48c1.56,0,2.4-.53,2.4-1.42v-.06c0-.86-.69-1.34-3.54-2-4.46-1-7.9-2.25-7.91-6.52v-.06c0-3.85,3.08-6.65,8.1-6.65a13.28,13.28,0,0,1,8.63,2.74l-2.9,4.07a10.61,10.61,0,0,0-5.87-2c-1.41,0-2.1.6-2.09,1.34v.06c0,1,.72,1.36,3.62,2,4.82,1,7.82,2.57,7.82,6.46v.06c0,4.24-3.37,6.76-8.46,6.77A14.73,14.73,0,0,1,151.7,144.57Z"/></g></svg>
