<svg xmlns="http://www.w3.org/2000/svg" viewBox="0 0 130.26 137.62"><defs><style>.cls-1{fill:#fff;}.cls-2{fill:#f27863;}</style></defs><title>Asset 30</title><g id="Layer_2" data-name="Layer 2"><g id="Layer_1-2" data-name="Layer 1"><path class="cls-1" d="M21.61,79.92h5.52v8.62h8.53V79.92h5.52v21.13H35.66V92.94H27.13v8.11H21.61Z"/><path class="cls-1" d="M60.8,101.05l-1.44-3.74H50.22l-1.48,3.74H43.08l9.07-21.13h5.67l8.86,21.13Zm-8.92-8h5.85l-2.9-7.54Z"/><path class="cls-1" d="M80.85,85a5.75,5.75,0,0,0-2.8-.77,5.4,5.4,0,0,0-2.91.8,5.63,5.63,0,0,0-2.07,2.2,6.86,6.86,0,0,0,0,6.24,5.7,5.7,0,0,0,2.07,2.2,5.49,5.49,0,0,0,2.91.8,6.28,6.28,0,0,0,2.71-.67A8.33,8.33,0,0,0,83.29,94l3.23,3.47a12.83,12.83,0,0,1-4.09,2.88,11.33,11.33,0,0,1-4.68,1.07A11.18,11.18,0,0,1,72.08,100a10.48,10.48,0,0,1-4-3.95,11,11,0,0,1-1.45-5.6A10.55,10.55,0,0,1,72.18,81,11.87,11.87,0,0,1,78,79.58a12.21,12.21,0,0,1,8.53,3.65l-3.2,3.86A7.78,7.78,0,0,0,80.85,85Z"/><path class="cls-1" d="M109.19,101.05h-6.6L97,92.85l-2.65,3v5.25H88.87V79.92h5.52v9.16l7.92-9.16h6.4l-7.84,8.71Z"/><path class="cls-1" d="M0,116.09H5.52v21.13H0Z"/><path class="cls-1" d="M9.62,116.09h5.51v16.43h9v4.7H9.62Z"/><path class="cls-1" d="M28.28,116.09h5.51v16.43h9v4.7H28.28Z"/><path class="cls-1" d="M45.82,116.09h5.52v21.13H45.82Z"/><path class="cls-1" d="M70.45,116.09h5.13v21.13H70.75l-9.58-12.63v12.63H56V116.09h4.85l9.62,12.72Z"/><path class="cls-1" d="M96.18,117.18a10.5,10.5,0,0,1,5.59,9.43,10.8,10.8,0,0,1-1.49,5.61,10.67,10.67,0,0,1-4.1,3.95,12.5,12.5,0,0,1-11.67,0,10.71,10.71,0,0,1-4.1-3.94,10.89,10.89,0,0,1-1.49-5.63,10.55,10.55,0,0,1,1.49-5.54,10.65,10.65,0,0,1,4.1-3.89,12.7,12.7,0,0,1,11.67,0Zm-8.68,4.07a5.89,5.89,0,0,0-2.13,2.24,6.51,6.51,0,0,0-.78,3.15,6.42,6.42,0,0,0,.8,3.18,6.18,6.18,0,0,0,2.12,2.27,5.39,5.39,0,0,0,2.9.82,5.33,5.33,0,0,0,2.88-.82,5.87,5.87,0,0,0,2.06-2.27,7,7,0,0,0,0-6.33,5.72,5.72,0,0,0-2.06-2.24,5.33,5.33,0,0,0-2.88-.82A5.43,5.43,0,0,0,87.5,121.25Z"/><path class="cls-1" d="M104.24,116.09h5.52v21.13h-5.52Z"/><path class="cls-1" d="M124.55,120.83a10.45,10.45,0,0,0-3.21-.64,3,3,0,0,0-1.62.38,1.22,1.22,0,0,0-.58,1.1,1.51,1.51,0,0,0,.51,1.16,3.9,3.9,0,0,0,1.26.75c.51.2,1.25.44,2.24.74a29.64,29.64,0,0,1,3.63,1.27,6.35,6.35,0,0,1,2.45,1.94,5.38,5.38,0,0,1,1,3.42,5.84,5.84,0,0,1-1.12,3.61,6.73,6.73,0,0,1-3.06,2.24,11.87,11.87,0,0,1-4.32.76,15.71,15.71,0,0,1-5.23-.92,14.41,14.41,0,0,1-4.51-2.52l2.14-4.31a13.5,13.5,0,0,0,3.78,2.32,10.42,10.42,0,0,0,3.88.91,3.59,3.59,0,0,0,1.94-.46,1.47,1.47,0,0,0,.71-1.32,1.54,1.54,0,0,0-.53-1.21,3.87,3.87,0,0,0-1.32-.77c-.53-.19-1.28-.42-2.25-.68a27.92,27.92,0,0,1-3.59-1.22,6.26,6.26,0,0,1-2.42-1.87,5.09,5.09,0,0,1-1-3.33,5.81,5.81,0,0,1,1-3.44,6.63,6.63,0,0,1,3-2.27,11.55,11.55,0,0,1,4.45-.8,16.2,16.2,0,0,1,4.52.65,15,15,0,0,1,3.92,1.73l-2.08,4.4A18.85,18.85,0,0,0,124.55,120.83Z"/><polygon class="cls-2" points="56.31 24.85 74.1 24.85 74.1 13.6 85.86 13.6 85.86 0 52.29 0 44.4 13.6 56.31 13.6 56.31 24.85"/><polygon class="cls-2" points="74.1 36.73 56.31 36.73 56.31 47.98 44.4 47.98 44.4 61.58 78.28 61.58 85.86 47.98 74.1 47.98 74.1 36.73"/></g></g></svg>