<svg xmlns="http://www.w3.org/2000/svg" xmlns:xlink="http://www.w3.org/1999/xlink" viewBox="0 0 818.12 147.74"><defs><style>.cls-1{isolation:isolate;}.cls-2{fill:url(#linear-gradient);}.cls-3{fill:url(#linear-gradient-2);}.cls-4{fill:url(#linear-gradient-3);}.cls-5{fill:url(#linear-gradient-4);}.cls-6{fill:url(#linear-gradient-5);}.cls-7{fill:url(#linear-gradient-6);}.cls-8{fill:url(#linear-gradient-7);}.cls-9{fill:url(#linear-gradient-8);}.cls-10{fill:url(#linear-gradient-9);}.cls-11{fill:url(#linear-gradient-10);}.cls-12{fill:url(#linear-gradient-11);}.cls-13{fill:url(#linear-gradient-12);}.cls-14{fill:url(#linear-gradient-13);}.cls-15{fill:url(#linear-gradient-14);}.cls-16{fill:url(#linear-gradient-15);}.cls-17{fill:url(#linear-gradient-16);}.cls-18,.cls-19,.cls-20,.cls-21{opacity:0.3;mix-blend-mode:multiply;}.cls-18{fill:url(#linear-gradient-17);}.cls-19{fill:url(#linear-gradient-18);}.cls-20{fill:url(#linear-gradient-19);}.cls-21{fill:url(#linear-gradient-20);}</style><linearGradient id="linear-gradient" x1="-39.49" y1="-710.03" x2="317.49" y2="204.93" gradientUnits="userSpaceOnUse"><stop offset="0" stop-color="#09def8"/><stop offset="1" stop-color="#3a92f3"/></linearGradient><linearGradient id="linear-gradient-2" x1="13.74" y1="-730.8" x2="370.72" y2="184.16" xlink:href="#linear-gradient"/><linearGradient id="linear-gradient-3" x1="71.42" y1="-753.3" x2="428.41" y2="161.65" xlink:href="#linear-gradient"/><linearGradient id="linear-gradient-4" x1="130" y1="-776.16" x2="486.99" y2="138.8" xlink:href="#linear-gradient"/><linearGradient id="linear-gradient-5" x1="185.71" y1="-797.89" x2="542.69" y2="117.06" xlink:href="#linear-gradient"/><linearGradient id="linear-gradient-6" x1="236.16" y1="-817.58" x2="593.14" y2="97.38" xlink:href="#linear-gradient"/><linearGradient id="linear-gradient-7" x1="296.94" y1="-841.29" x2="653.92" y2="73.66" xlink:href="#linear-gradient"/><linearGradient id="linear-gradient-8" x1="354.18" y1="-863.63" x2="711.16" y2="51.33" xlink:href="#linear-gradient"/><linearGradient id="linear-gradient-9" x1="411.29" y1="-885.91" x2="768.27" y2="29.05" xlink:href="#linear-gradient"/><linearGradient id="linear-gradient-10" x1="-84.86" y1="-17.16" x2="124.55" y2="161.04" xlink:href="#linear-gradient"/><linearGradient id="linear-gradient-11" x1="-53.85" y1="-53.6" x2="155.56" y2="124.61" xlink:href="#linear-gradient"/><linearGradient id="linear-gradient-12" x1="-72.82" y1="-31.31" x2="136.59" y2="146.9" xlink:href="#linear-gradient"/><linearGradient id="linear-gradient-13" x1="-36.75" y1="-73.69" x2="172.66" y2="104.52" xlink:href="#linear-gradient"/><linearGradient id="linear-gradient-14" x1="-89.47" y1="-11.74" x2="119.94" y2="166.46" xlink:href="#linear-gradient"/><linearGradient id="linear-gradient-15" x1="-60.74" y1="-45.5" x2="148.66" y2="132.71" xlink:href="#linear-gradient"/><linearGradient id="linear-gradient-16" x1="-17.44" y1="-96.39" x2="191.97" y2="81.82" xlink:href="#linear-gradient"/><linearGradient id="linear-gradient-17" x1="25.04" y1="-117.03" x2="58.27" y2="-117.03" gradientTransform="translate(67.33 253.67)" gradientUnits="userSpaceOnUse"><stop offset="0" stop-color="#fff"/><stop offset="1"/></linearGradient><linearGradient id="linear-gradient-18" x1="25.04" y1="-242.63" x2="58.27" y2="-242.63" xlink:href="#linear-gradient-17"/><linearGradient id="linear-gradient-19" x1="11.05" y1="50.37" x2="11.05" y2="22.1" gradientTransform="matrix(1, 0, 0, 1, 0, 0)" xlink:href="#linear-gradient-17"/><linearGradient id="linear-gradient-20" x1="11.05" y1="97.3" x2="11.05" y2="125.57" gradientTransform="matrix(1, 0, 0, 1, 0, 0)" xlink:href="#linear-gradient-17"/></defs><title>Artboard 26</title><g class="cls-1"><g id="Layer_2" data-name="Layer 2"><g id="Group-3-Copy"><path id="Fill-2" class="cls-2" d="M299.11,48.8l-9.86,9.87c-6.68-7.4-14.28-11.1-22.7-11.1a23.85,23.85,0,0,0-17.88,7.6,26.06,26.06,0,0,0-7.29,18.7,28.64,28.64,0,0,0,3.18,13.77,23.84,23.84,0,0,0,9.15,9.45,25.84,25.84,0,0,0,13.15,3.39,26.66,26.66,0,0,0,11.19-2.36c3.39-1.65,7.09-4.52,11.2-8.74l9.56,10.38c-5.45,5.55-10.69,9.45-15.52,11.61a40.37,40.37,0,0,1-16.64,3.18c-11.51,0-21-3.8-28.25-11.4s-11-17.36-11-29.28a40.91,40.91,0,0,1,5-20.55,38.27,38.27,0,0,1,14.38-14.48A38.78,38.78,0,0,1,267,33.39a39.52,39.52,0,0,1,17.67,4.11,38.39,38.39,0,0,1,14.48,11.3"/><path id="Fill-3" class="cls-3" d="M310,33.19h13.67V61a31.28,31.28,0,0,1,8.11-5.45A19.58,19.58,0,0,1,340,53.74a18,18,0,0,1,13.77,5.95c3.18,3.39,4.83,8.43,4.83,15V112.5H345V87.43c0-6.68-.31-11.09-.93-13.46A9.45,9.45,0,0,0,341,68.73,8.64,8.64,0,0,0,335.59,67a9.86,9.86,0,0,0-7.2,2.87,15.45,15.45,0,0,0-4.11,7.91c-.41,1.75-.61,5.66-.61,11.82v23H310V33.19"/><path id="Fill-4" class="cls-4" d="M426.81,88.15H382.64a15.11,15.11,0,0,0,5.13,9.66,15.75,15.75,0,0,0,10.59,3.59,17.77,17.77,0,0,0,13.25-5.65l11.61,5.65a27.46,27.46,0,0,1-10.38,9.46,31.35,31.35,0,0,1-14.38,3.08c-8.63,0-15.62-2.88-21-8.53s-8.12-12.74-8.12-21.27c0-8.73,2.67-16,8.12-21.77a26.6,26.6,0,0,1,20.24-8.63c8.63,0,15.61,2.87,21.06,8.63s8.11,13.35,8.11,22.9l-.1,2.88Zm-13.76-11.4a14.75,14.75,0,0,0-5.35-7.81,15.38,15.38,0,0,0-9.34-3,15.87,15.87,0,0,0-10.07,3.39c-1.85,1.44-3.5,3.91-5,7.4Z"/><path id="Fill-5" class="cls-5" d="M491.53,66.89l-11.4,6.57a20.12,20.12,0,0,0-6.37-4.93,17.86,17.86,0,0,0-7.4-1.34c-5.13,0-9.34,1.65-12.43,4.83s-4.72,7.3-4.72,12.33a15.84,15.84,0,0,0,16.64,16.54c6.16,0,10.89-2.16,14.38-6.57L491,102c-5.85,7.91-14.18,11.92-24.86,11.92-9.66,0-17.16-3-22.6-8.94a31,31,0,0,1-4.21-36.27,29.19,29.19,0,0,1,11.09-11,33.63,33.63,0,0,1,30.62-.61,30.61,30.61,0,0,1,10.47,9.76"/><path id="Fill-6" class="cls-6" d="M504.07,33.19h13.76V78.91l20.24-23.63h17.26L531.81,82.71l26.4,29.79H541.15L517.94,86.1v26.4H504.17V33.19"/><path id="Fill-7" class="cls-7" d="M577.42,33.19V61.65a26.8,26.8,0,0,1,8-5.86,21.6,21.6,0,0,1,9.25-1.95c7.19,0,13.25,2.87,18.28,8.53s7.5,12.94,7.5,21.77c0,8.53-2.56,15.62-7.7,21.37s-11.3,8.63-18.39,8.63a22.94,22.94,0,0,1-8.83-1.74,28.3,28.3,0,0,1-8.12-5.76v6.06H563.76V33.19Zm14.49,33.9a14.14,14.14,0,0,0-10.79,4.62c-2.88,3.09-4.32,7.09-4.32,12.13s1.44,9.24,4.32,12.32a13.86,13.86,0,0,0,10.79,4.73,13.7,13.7,0,0,0,10.58-4.83,17.61,17.61,0,0,0,4.31-12.22,17.33,17.33,0,0,0-4.21-12,13.83,13.83,0,0,0-10.68-4.73Z"/><path id="Fill-8" class="cls-8" d="M657.65,53.84A27.46,27.46,0,0,1,672.24,58a28.93,28.93,0,0,1,10.69,11,30.41,30.41,0,0,1,3.8,15,32.43,32.43,0,0,1-3.8,15.2,28.46,28.46,0,0,1-10.48,11,28,28,0,0,1-14.69,4,27.17,27.17,0,0,1-20.14-8.73,29.77,29.77,0,0,1-8.32-21.27,29.7,29.7,0,0,1,9.45-22.39,25.86,25.86,0,0,1,18.9-7.91Zm.21,13.56A13.92,13.92,0,0,0,647.18,72C644.3,75.1,643,79.11,643,83.94c0,5,1.44,9,4.22,12.12a13.77,13.77,0,0,0,10.68,4.62A13.52,13.52,0,0,0,668.54,96q4.32-4.62,4.32-12c0-4.93-1.44-8.94-4.21-11.92a14.15,14.15,0,0,0-10.79-4.62Z"/><path id="Fill-9" class="cls-9" d="M723.61,53.84A27.46,27.46,0,0,1,738.2,58a28.91,28.91,0,0,1,10.68,11,30.41,30.41,0,0,1,3.8,15,32.31,32.31,0,0,1-3.8,15.2,28.39,28.39,0,0,1-10.48,11,27.92,27.92,0,0,1-14.69,4,27.13,27.13,0,0,1-20.13-8.73,29.77,29.77,0,0,1-8.32-21.27,29.7,29.7,0,0,1,9.45-22.39,26.19,26.19,0,0,1,18.9-7.91Zm.21,13.56A14.09,14.09,0,0,0,713.13,72c-2.87,3.08-4.21,7.09-4.21,11.92,0,5,1.44,9,4.21,12.12a13.78,13.78,0,0,0,10.69,4.62A13.53,13.53,0,0,0,734.5,96q4.32-4.62,4.31-12c0-4.93-1.43-8.94-4.21-11.92a13.83,13.83,0,0,0-10.78-4.62Z"/><path id="Fill-10" class="cls-10" d="M764,33.19h13.77V78.91L798,55.28h17.26L791.72,82.71l26.4,29.79h-17L777.85,86.1v26.4H764.09V33.19"/></g><polygon class="cls-11" points="22.13 0.04 22.13 147.74 0 125.61 0 22.17 0.02 22.15 22.13 0.04"/><path class="cls-12" d="M107.85,50v7.46a7.29,7.29,0,0,1-7.26,7.35H41.44v-22h59.15a7.07,7.07,0,0,1,3.53.85A7.21,7.21,0,0,1,107.85,50Z"/><path class="cls-13" d="M107.85,88.54V96a7.2,7.2,0,0,1-7.26,7.23H41.44v-22h59.15A7.26,7.26,0,0,1,107.85,88.54Z"/><polygon class="cls-14" points="147.71 22.03 0.01 22.03 22.14 0.02 125.58 0.02 136.67 11.05 147.71 22.03"/><polygon class="cls-15" points="147.71 125.64 147.69 125.64 125.61 147.72 125.6 147.67 125.58 147.64 22.14 147.64 22.14 147.69 0.01 125.64 147.71 125.64"/><polygon class="cls-16" points="147.85 97.23 147.85 125.61 147.77 125.62 147.73 125.63 125.55 147.72 125.45 147.72 125.45 147.73 125.45 147.74 125.45 97.23 147.85 97.23"/><polygon class="cls-17" points="147.85 22.13 147.85 50.43 125.45 50.43 125.45 0 136.68 11.09 147.85 22.13"/><rect class="cls-18" x="92.37" y="125.59" width="33.23" height="22.1"/><rect class="cls-19" x="92.37" width="33.23" height="22.1"/><rect class="cls-20" y="22.1" width="22.1" height="28.27"/><rect class="cls-21" y="97.3" width="22.1" height="28.27"/></g></g></svg>