<svg xmlns="http://www.w3.org/2000/svg" viewBox="0 0 364.61 506.79"><defs><style>.cls-1{fill:#22727c;}</style></defs><title>Mid Stingray</title><g id="Layer_2" data-name="Layer 2"><g id="Layer_4" data-name="Layer 4"><g id="Mid_Stingray" data-name="Mid Stingray"><path class="cls-1" d="M179.05,292.7c-.81-6.39-1.6-12.69-2.39-19-1.46-11.75.2-22.78,6.68-33a61.78,61.78,0,0,0,9.75-34.45c0-1.86-.22-3.71-.38-6.27,3.41,2.37,6.61,4.32,9.49,6.65C215,217,223.25,230.67,230,245.42c3.16,7,5.76,14.19,9,21.15,2.08,4.53,4.75,8.8,6.89,12.7,7.42-4.43,14.06-9.1,21.29-12.54,10.33-4.93,21.05-9.06,31.68-13.36,15.09-6.1,29.81-12.82,41.91-24.11a61.39,61.39,0,0,0,11.22-14.18c.42-.71.86-1.41,1.44-2.37,4.34,16.77,5.95,33.16-.83,49.35-1.85,4.43-4.36,8.58-6.28,13q-5.1,11.71-9.82,23.6c-1.54,3.9-.91,5,2.57,7.34a79.52,79.52,0,0,1,8.57,6.32,8.07,8.07,0,0,1,2.24,8.41c-2.52,8.73,2.19,13.51,8.79,17.67,2.13,1.34,3.72,3.56,6,5.86-5.83,2.35-10.88,4.49-16,6.43-9.43,3.58-19.13,6.2-29.31,4.81a139.82,139.82,0,0,1-19.07-4.09C285.74,347.25,271,346,256,346c-9.38,0-18.78-.55-28.14-1.23a52,52,0,0,1-20.41-6,13,13,0,0,0-10.58-.87,89.76,89.76,0,0,0-25.17,13.3c-1.23.93-2.43,1.9-4,3.13a24.16,24.16,0,0,1-1.19-3.87,117,117,0,0,1-1.3-12.21c-.12-4.34,2.06-7.9,5.06-10.91,8.13-8.18,9.56-18.44,9.23-29.29-.05-1.4-.81-1.62-1.93-1.74-9-.93-17.94-1.68-26.86-2.9-15.22-2.08-30.36-4.63-44.92-9.82-9-3.2-16-9.15-22-16.23-8-9.27-16.52-17.92-27.1-24.28A51.44,51.44,0,0,1,50,238.79c3.09,1.11,6.27,2,9.26,3.36C67.93,246,75,252,81.07,259.22c4.71,5.55,9.28,11.26,15.32,15.54,4.9,3.47,10.49,5.34,16.18,6.87a372.47,372.47,0,0,0,65.73,11.28A3.72,3.72,0,0,0,179.05,292.7Z"/><path class="cls-1" d="M277.35,226.62c-4.79-2.79-10-5.1-14.28-8.48a204.93,204.93,0,0,1-18-16.11,86,86,0,0,0-20.52-15.15q-17-9-34.22-17.37c-6.46-3.17-13.09-6.06-19.8-8.65-2-.78-4.58-.29-6.88-.13s-4.27.65-6.54,1c.15.65.34,1.3.47,1.95.59,2.91-.23,5.1-2.91,6.47a39.13,39.13,0,0,1-18.56,4.54c-2.15,0-3.23-1.12-3.68-3.13-1.14-5.11-4.49-7.83-9.45-9a78.72,78.72,0,0,0-46.51,2.38A74.28,74.28,0,0,0,49.3,182a31.13,31.13,0,0,1-4.3,3.54c-2.08,1.43-2.91,1.11-3.87-1.16a79.66,79.66,0,0,1-6-26.2c-.56-9.36-.46-18.75-.66-28.13a3.78,3.78,0,0,0-.07-.6c-3.76-1.53-7.52-2.65-10.84-4.53a27.68,27.68,0,0,1-11.29-12.39c-.5-1-1-2.1-1.46-3.16-1.86-4.3-4-8.35-8-11.18-1.49-1-3.48-2.53-2.59-4.75s3.27-2.87,5.49-2.77c3.71.18,7.4.76,11.1,1,1.06.07,2.57-.08,3.16-.76,3.71-4.21,8.3-4.39,13.25-3.31a15.18,15.18,0,0,1,2.26.53c3.73,1.48,6.41-.24,8.86-2.8a27.31,27.31,0,0,0,6.45-11.42c3.68-12.52,8.09-24.75,14.28-36.27A141.46,141.46,0,0,1,87.69,6.46C90.27,3.79,93.07,1.31,97.14,0c.62,3.6,1.22,7.06,1.8,10.53,3.13,18.76,7.11,37.31,14.5,54.94a168.52,168.52,0,0,0,12.93,23.9c5.25,8.41,9.91,17.09,10.21,27.34.07,2.31-.42,4.63-.45,7a3.08,3.08,0,0,0,.94,2.41,29.32,29.32,0,0,0,6.29,2.82c3,.85,3.47,1.53,1.74,4-1.23,1.77-.77,2.92,1.06,3.61,2.52,1,5.08,1.83,7.66,2.63a18.1,18.1,0,0,1,11,8.56c2.22,3.8,5.89,6.88,9.34,9.77,2.13,1.78,5,2.82,7.65,3.84,16,6.18,30.46,15.27,45.52,23.26,10.63,5.63,18.73,14,27.19,22,7.31,7,14.63,13.88,23.19,19.33Z"/><path class="cls-1" d="M89.69,432.51c2.26.85,4.42,1.64,6.55,2.48,3.17,1.25,6.3,2.58,9.49,3.78.67.25,1.8.47,2.19.11,5.91-5.38,13.56-7,20.69-9.68,8-3.07,16.3-5.61,24-9.27,10.83-5.12,16.87-14.64,20.29-25.74,2.07-6.71,3.29-13.69,4.89-20.56.18-.75.33-1.51.56-2.59,2.61,1.29,4.73,3,5.49,5.68a75.77,75.77,0,0,1,3.05,13.53c1.56,16.8,4,33.42,9,49.59,1.79,5.8,4.76,10.72,9.92,14.18,3.92,2.63,6.83,6.11,7.84,10.85,1.23,5.8,5.15,9.24,10.18,11.6,4.13,1.93,8.41,3.55,12.62,5.34,1.41.6,2.78,1.3,4.17,1.95l.1.73a15.44,15.44,0,0,1-3.38,1.18c-6.57.79-13-.36-19.4-1.6-2.51-.48-5-1.16-7.52-1.41a17.27,17.27,0,0,0-5.74.32,4.83,4.83,0,0,0-3.33,6.76,23.12,23.12,0,0,0,4.5,6c2.07,2.08,4.59,3.7,6.8,5.64,1.79,1.57,1.61,2.19-.61,2.89a52.92,52.92,0,0,1-22.34,2.11c-14.72-1.82-29.22-4.6-43.13-10.1-8-3.15-16.18-5.44-25-4.28-6,.79-12,1.74-18,2.19a108,108,0,0,1-53.52-9.39,94.36,94.36,0,0,1-28.56-20.06,126,126,0,0,1-9.14-11.15c-1-1.3-1.95-1.95-3.66-1.66a9.36,9.36,0,0,1-4.5-.49l5.39-1.6C5.74,443,2,436.19.14,428.46c4,3.64,7.87,7.29,11.9,10.75,3,2.57,6.25,4.86,9.33,7.34,1.49,1.19,3.08,1,4.83.95q22.69-.81,45.41-1.41c2.28-.06,4.16,0,5.64-2.4.8-1.3,2.85-2.12,4.49-2.55C86.33,439.92,89.06,437.1,89.69,432.51ZM73.85,447.62l-46.8,1.84-.16.81c2,1.27,3.91,2.65,6,3.8,4.58,2.57,9.08,5.38,13.88,7.46,6.21,2.69,11.94,1.65,16.66-3.62A12,12,0,0,1,68,454.44C71.16,453.34,72.53,451,73.85,447.62Z"/></g></g></g></svg>