<svg xmlns="http://www.w3.org/2000/svg" viewBox="0 0 158.53 158.53"><defs><style>.cls-1{fill:#fff;opacity:0.6;}</style></defs><title>Asset 68</title><g id="Layer_2" data-name="Layer 2"><g id="Sponsors"><circle class="cls-1" cx="79.26" cy="79.26" r="79.26"/><path d="M131.07,75.45c-.61,1.84-1.1,3.73-1.85,5.52-6,14.26-16.54,23-31.65,26.18-2,.43-4.14.45-6.2.72a2,2,0,0,0-1.26.6,13.28,13.28,0,0,1-9,5.77,23.42,23.42,0,0,1-4,.43c-1.81.08-2.73-.85-2.56-2.67.21-2.12.58-4.24.9-6.43C59.4,99.13,50,87.27,47.36,69.89a2.48,2.48,0,0,0-.45.16c-6.18,3.9-11.67,2.8-17-1.34a15.93,15.93,0,0,1-1.72-1.56,2,2,0,0,1,0-3.13c4-3.79,8.4-6.31,14.17-5a.74.74,0,0,0,.22-.05c0-.08.09-.18.07-.26-1.07-4,.12-7.65,2.34-11a23.77,23.77,0,0,1,2.56-3.11,2,2,0,0,1,3-.16C54,47.93,56.39,51.86,56,56.94a13.49,13.49,0,0,1-1.94,5.69c-.09.17-.18.34-.36.71h1.37q32.46,0,64.91,0c5.07,0,9,2.71,10.55,7.24.21.6.36,1.22.54,1.83Zm-63.93,21c.34-.28.61-.48.85-.71a61.29,61.29,0,0,1,12-8.59,62.1,62.1,0,0,1,28.82-7.83c4.88-.1,9.77,0,14.66,0,2.13,0,2.13,0,2.77-2.06a8.46,8.46,0,0,0,.51-4.84,6.31,6.31,0,0,0-6.57-4.87q-33.82,0-67.65,0H51.42A38.57,38.57,0,0,0,67.14,96.44Zm56.3-12.94h-1.22c-3.1,0-6.2,0-9.3-.07a62.87,62.87,0,0,0-11.87.75,58.78,58.78,0,0,0-27.2,12c-1,.8-2,1.69-3.13,2.66,1.88.83,3.6,1.51,5.24,2.35,1.23.63,2,.42,3-.57,3-2.9,6.86-3.84,10.94-3.92,2,0,2.77.78,2.68,2.77-.07,1.36-.27,2.72-.42,4.08C103.52,103.36,117.07,96,123.44,83.5ZM49.2,62.3c3.56-4.34,3.65-8.59,0-13.1C45.54,53.32,45.54,58.21,49.2,62.3Zm29.7,48.07c5.95-.64,9-4,9.2-9.34C82.11,101.7,79.43,105,78.9,110.37Zm-33-44.8c-4.2-3.65-8.89-3.6-13.07,0C37.2,69.25,41.66,69.16,45.89,65.57Z"/><path d="M69.17,69.18H80.39a2.15,2.15,0,0,1,2.26,1.35,2,2,0,0,1-1.52,2.69,6.23,6.23,0,0,1-1.3.13H58.51a6,6,0,0,1-1.2-.11,1.93,1.93,0,0,1-1.72-2.12,2,2,0,0,1,2-1.92c1.48,0,3,0,4.44,0Z"/><path d="M112.61,75.26A2.35,2.35,0,1,1,115,72.89,2.39,2.39,0,0,1,112.61,75.26Z"/><path d="M87.29,69.18a2.11,2.11,0,0,1,2.3,2,2.27,2.27,0,0,1-4.52.06A2.08,2.08,0,0,1,87.29,69.18Z"/></g></g></svg>